<svg width="99" height="22" viewBox="0 0 99 22" fill="none" xmlns="http://www.w3.org/2000/svg">
<path d="M20.916 0.541658L47.8225 17.8634L32.6191 21.1581L14.9617 9.79076L20.916 0.541658Z" fill="black"/>
<path d="M0 10.8622L4.87173 3.29477L20.0752 0L9.2491 16.8165L0 10.8622Z" fill="black"/>
<path d="M39.1162 11.068L43.9879 3.50058L59.1914 0.205811L48.3653 17.0224L39.1162 11.068Z" fill="black"/>
<path d="M60.0322 0.747468L86.9387 18.0692L71.7353 21.3639L54.0779 9.99657L60.0322 0.747468Z" fill="black"/>
<path d="M78.2305 11.2736L83.1022 3.70614L98.3056 0.411377L87.4796 17.2279L78.2305 11.2736Z" fill="black"/>
<path d="M20.916 0.541658L47.8225 17.8634L32.6191 21.1581L14.9617 9.79076L20.916 0.541658Z" fill="black"/>
<path d="M0 10.8622L4.87173 3.29477L20.0752 0L9.2491 16.8165L0 10.8622Z" fill="black"/>
<path d="M39.1162 11.068L43.9879 3.50058L59.1914 0.205811L48.3653 17.0224L39.1162 11.068Z" fill="black"/>
<path d="M60.0322 0.747468L86.9387 18.0692L71.7353 21.3639L54.0779 9.99657L60.0322 0.747468Z" fill="black"/>
<path d="M78.2305 11.2736L83.1022 3.70614L98.3056 0.411377L87.4796 17.2279L78.2305 11.2736Z" fill="black"/>
</svg>
