<svg width="212" height="2914" viewBox="0 0 212 2914" fill="none" xmlns="http://www.w3.org/2000/svg">
<path d="M210.735 2913.51L0.630334 2913.51L0.630336 2782.47C1.26035 2729.55 1.26035 2729.23 3.15034 2714.74C5.35535 2697.73 13.5453 2685.13 26.4603 2678.52C36.2253 2673.79 46.6203 2671.9 63.9453 2671.9C102.69 2671.9 113.715 2678.83 119.385 2706.55C121.275 2696.47 124.425 2690.49 130.095 2685.13C138.6 2676.94 144.9 2675.68 180.81 2675.68L210.735 2675.68L210.735 2703.72L190.575 2703.72C163.485 2703.72 163.17 2703.72 154.98 2704.98C141.435 2706.55 133.56 2714.11 131.67 2727.34C130.095 2737.11 130.095 2737.11 129.78 2782.47L129.78 2885.47L210.735 2885.47L210.735 2913.51ZM105.21 2885.47L105.21 2782.47L105.21 2757.27C105.21 2723.56 101.745 2710.65 91.0353 2704.98C86.3104 2702.46 74.3403 2700.57 63.6304 2700.57C48.8254 2700.57 37.1704 2704.35 32.7604 2710.65C26.4603 2719.15 25.2003 2731.75 25.2003 2782.47L25.2003 2885.47L105.21 2885.47ZM210.735 2419.71L166.32 2444.59L166.32 2614.38L210.735 2639.26L210.735 2671.08L0.630339 2552.01L0.630339 2507.28L210.735 2388.52L210.735 2419.71ZM141.75 2457.82L25.2003 2523.34L25.2003 2534.68L141.75 2600.83L141.75 2457.82ZM210.735 2382.24L0.630341 2382.24L0.630342 2237.34C0.630343 2172.45 4.09536 2156.38 20.7903 2140.63C35.5953 2126.77 56.0704 2122.36 105.525 2122.36C152.145 2122.36 178.605 2128.98 193.41 2144.73C207.585 2159.85 210.735 2175.91 210.735 2235.13L210.735 2382.24ZM186.165 2354.2L186.165 2236.39C186.165 2195.76 186.165 2194.5 183.33 2182.84C177.975 2160.16 155.295 2151.03 104.265 2151.03C71.8204 2151.03 49.4554 2155.44 39.0604 2163.63C30.8703 2170.56 27.0904 2180.32 25.8304 2199.54C25.2003 2205.21 25.2003 2214.34 25.2003 2237.97L25.2003 2354.2L186.165 2354.2ZM0.630344 2101.53L0.630344 2073.5L210.735 2073.5L210.735 2101.53L0.630344 2101.53ZM0.00035435 1914.59C0.000355206 1842.77 3.46535 1820.09 17.0104 1806.55C25.5154 1797.73 36.2254 1793.95 58.5904 1791.74C69.3004 1790.48 90.4054 1789.54 106.47 1789.54C158.13 1789.54 181.755 1793.95 194.355 1805.6C207.27 1817.89 211.365 1841.2 211.365 1905.46C211.365 1961.53 209.79 1997.44 206.325 2013.19C202.545 2030.2 189.315 2043.74 172.305 2047.52C158.445 2050.99 138.915 2052.25 104.895 2052.25C48.5103 2052.25 26.1454 2047.21 14.1754 2031.77C6.30035 2021.06 3.46535 2010.35 1.57535 1981.69C0.94536 1969.09 0.000354132 1932.86 0.00035435 1914.59ZM25.2003 1930.97C25.2003 1983.26 28.0353 2004.68 35.5953 2012.87C42.5254 2020.43 62.3704 2023.58 102.69 2023.58C149.31 2023.58 167.58 2021.38 174.825 2014.76C180.81 2009.09 183.015 2000.59 184.59 1977.28C185.22 1965.94 186.165 1930.66 186.165 1917.11C186.165 1886.24 184.59 1857.26 182.07 1843.09C179.865 1830.8 173.25 1824.19 160.65 1821.67C149.31 1819.78 126.63 1818.2 107.1 1818.2C83.4754 1818.2 58.2754 1819.46 48.8254 1821.35C36.8554 1823.24 30.5554 1830.8 28.3503 1844.98C25.8304 1861.04 25.2003 1877.11 25.2003 1930.97ZM210.735 1695.92L0.630349 1695.92L0.63035 1562.99C2.20535 1492.12 2.20535 1492.12 11.9704 1479.2C21.1054 1467.23 36.8554 1462.19 65.5204 1462.19C93.8704 1462.19 108.99 1466.6 118.44 1477.94C128.205 1489.28 130.725 1498.42 131.355 1526.14C131.67 1529.92 131.67 1542.2 131.67 1562.99L131.67 1667.89L210.735 1667.89L210.735 1695.92ZM107.1 1667.89L107.1 1562.99C107.1 1511.96 106.47 1507.87 99.5404 1499.36C94.1854 1493.06 86.3104 1490.86 66.4654 1490.86C44.7304 1490.86 37.8004 1492.43 33.0754 1498.73C26.7754 1507.24 26.1454 1510.39 25.2004 1562.99L25.2004 1667.89L107.1 1667.89ZM210.735 1448.74L0.630352 1448.74L0.630353 1317.7C1.26036 1264.78 1.26036 1264.47 3.15036 1249.98C5.35537 1232.97 13.5454 1220.37 26.4604 1213.75C36.2254 1209.03 46.6204 1207.14 63.9454 1207.14C102.69 1207.14 113.715 1214.07 119.385 1241.79C121.275 1231.71 124.425 1225.72 130.095 1220.37C138.6 1212.18 144.9 1210.92 180.81 1210.92L210.735 1210.92L210.735 1238.95L190.575 1238.95C163.485 1238.95 163.17 1238.95 154.98 1240.21C141.435 1241.79 133.56 1249.35 131.67 1262.58C130.095 1272.34 130.095 1272.34 129.78 1317.7L129.78 1420.71L210.735 1420.71L210.735 1448.74ZM105.21 1420.71L105.21 1317.7L105.21 1292.5C105.21 1258.8 101.745 1245.88 91.0354 1240.21C86.3104 1237.69 74.3404 1235.8 63.6304 1235.8C48.8254 1235.8 37.1704 1239.58 32.7604 1245.88C26.4604 1254.39 25.2004 1266.99 25.2004 1317.7L25.2004 1420.71L105.21 1420.71ZM0.000364614 1053.86C0.00036547 982.037 3.46536 959.357 17.0104 945.812C25.5154 936.992 36.2254 933.212 58.5904 931.007C69.3004 929.747 90.4054 928.802 106.47 928.802C158.13 928.802 181.755 933.212 194.355 944.867C207.27 957.152 211.365 980.462 211.365 1044.72C211.365 1100.79 209.79 1136.7 206.325 1152.45C202.545 1169.46 189.315 1183.01 172.305 1186.79C158.445 1190.25 138.915 1191.51 104.895 1191.51C48.5104 1191.51 26.1454 1186.47 14.1754 1171.04C6.30036 1160.33 3.46536 1149.62 1.57536 1120.95C0.945371 1108.35 0.000364396 1072.13 0.000364614 1053.86ZM25.2004 1070.24C25.2004 1122.53 28.0354 1143.95 35.5954 1152.14C42.5254 1159.7 62.3704 1162.85 102.69 1162.85C149.31 1162.85 167.58 1160.64 174.825 1154.03C180.81 1148.36 183.015 1139.85 184.59 1116.54C185.22 1105.2 186.165 1069.92 186.165 1056.38C186.165 1025.51 184.59 996.527 182.07 982.352C179.865 970.067 173.25 963.452 160.65 960.932C149.31 959.042 126.63 957.467 107.1 957.467C83.4754 957.467 58.2754 958.727 48.8254 960.617C36.8554 962.507 30.5554 970.067 28.3504 984.242C25.8304 1000.31 25.2004 1016.37 25.2004 1070.24ZM0.63036 750.763L0.63036 722.728L109.305 722.728C160.965 723.043 167.265 723.358 178.605 727.453C205.38 737.533 211.365 757.063 211.365 834.553C211.365 879.598 206.955 899.758 194.67 910.783C183.645 920.548 171.045 923.068 133.56 923.383L133.56 896.923L140.49 896.923C170.73 896.293 177.345 893.458 182.385 878.653C184.905 870.778 186.165 855.343 186.165 828.883C186.165 822.898 184.905 790.768 184.59 784.783C183.33 766.198 179.235 758.638 169.155 754.543C160.965 751.393 155.61 750.763 109.305 750.763L0.63036 750.763ZM210.735 699.832L0.630361 699.832L0.630363 494.137L25.2004 494.137L25.2004 671.797L89.4604 671.797L89.4604 501.697L114.03 501.697L114.03 671.797L186.165 671.797L186.165 493.822L210.735 493.822L210.735 699.832ZM138.915 266.456L138.915 239.366C179.235 240.941 187.11 242.516 196.56 252.281C208.215 264.566 211.365 284.411 211.365 349.301C211.365 432.146 208.215 454.196 194.67 468.056C183.015 480.026 159.705 484.436 108.99 484.436C50.7154 484.436 25.8304 479.396 14.1754 464.906C6.30037 454.826 3.46536 442.856 1.57537 411.356C0.630364 398.126 0.000372764 370.406 0.000372963 353.711C0.000373733 289.136 4.09538 266.771 17.9554 253.226C27.4054 243.776 34.0204 242.516 70.2454 241.886L70.2454 268.031L63.0004 268.031C42.2104 268.346 35.9104 271.496 31.1854 283.466C27.4054 293.861 25.2004 318.431 25.2004 354.971C25.2004 410.411 28.0354 435.926 34.6504 444.431C41.2654 452.306 61.4254 456.086 97.9654 456.086C115.29 456.086 148.995 454.196 159.39 452.936C175.455 450.416 182.07 443.486 183.645 425.846C185.22 411.986 186.165 383.321 186.165 357.806C186.165 337.016 184.59 300.476 183.33 292.286C180.18 271.181 174.51 266.771 148.365 266.771L138.915 266.456ZM0.630366 238.455L0.630369 6.83174e-05L25.2004 6.86104e-05L25.2004 104.895L210.735 104.895L210.735 132.93L25.2004 132.93L25.2004 238.455L0.630366 238.455Z" fill="black"/>
</svg>
