<svg id="Layer_1" data-name="Layer 1" xmlns="http://www.w3.org/2000/svg" viewBox="0 0 200 200"><defs><style>.cls-1{fill:none;}</style></defs><rect class="cls-1" x="190.48" y="57.14" width="9.52" height="9.52"/><circle cx="195.24" cy="61.91" r="3.98"/><rect class="cls-1" x="190.48" y="66.67" width="9.52" height="9.52"/><circle cx="195.24" cy="71.43" r="3.98"/><rect class="cls-1" x="190.48" y="76.19" width="9.52" height="9.52"/><circle cx="195.24" cy="80.95" r="3.98"/><rect class="cls-1" x="190.48" y="85.71" width="9.52" height="9.52"/><circle cx="195.24" cy="90.48" r="3.98"/><rect class="cls-1" x="180.95" y="47.62" width="9.52" height="9.52"/><circle cx="185.71" cy="52.38" r="3.98"/><rect class="cls-1" x="180.95" y="57.14" width="9.52" height="9.52"/><circle cx="185.71" cy="61.91" r="3.98"/><rect class="cls-1" x="180.95" y="66.67" width="9.52" height="9.52"/><circle cx="185.71" cy="71.43" r="3.98"/><rect class="cls-1" x="180.95" y="76.19" width="9.52" height="9.52"/><circle cx="185.71" cy="80.95" r="3.98"/><rect class="cls-1" x="180.95" y="85.71" width="9.52" height="9.52"/><circle cx="185.71" cy="90.48" r="3.98"/><rect class="cls-1" x="180.95" y="95.24" width="9.52" height="9.52"/><circle cx="185.71" cy="100" r="3.98"/><rect class="cls-1" x="171.43" y="38.1" width="9.52" height="9.52"/><circle cx="176.19" cy="42.86" r="3.98"/><rect class="cls-1" x="171.43" y="47.62" width="9.52" height="9.52"/><circle cx="176.19" cy="52.38" r="3.98"/><rect class="cls-1" x="171.43" y="95.24" width="9.52" height="9.52"/><circle cx="176.19" cy="100" r="3.98"/><rect class="cls-1" x="161.9" y="38.1" width="9.52" height="9.52"/><circle cx="166.67" cy="42.86" r="3.98"/><rect class="cls-1" x="161.9" y="47.62" width="9.52" height="9.52"/><circle cx="166.67" cy="52.38" r="3.98"/><rect class="cls-1" x="152.38" y="38.1" width="9.52" height="9.52"/><circle cx="157.14" cy="42.86" r="3.98"/><rect class="cls-1" x="152.38" y="47.62" width="9.52" height="9.52"/><circle cx="157.14" cy="52.38" r="3.98"/><rect class="cls-1" x="142.86" y="38.1" width="9.52" height="9.52"/><circle cx="147.62" cy="42.86" r="3.98"/><rect class="cls-1" x="142.86" y="47.62" width="9.52" height="9.52"/><circle cx="147.62" cy="52.38" r="3.98"/><rect class="cls-1" x="133.33" y="47.62" width="9.52" height="9.52"/><circle cx="138.1" cy="52.38" r="3.98"/><rect class="cls-1" x="133.33" y="57.14" width="9.52" height="9.52"/><circle cx="138.1" cy="61.91" r="3.98"/><rect class="cls-1" x="123.81" y="47.62" width="9.52" height="9.52"/><circle cx="128.57" cy="52.38" r="3.98"/><rect class="cls-1" x="123.81" y="57.14" width="9.52" height="9.52"/><circle cx="128.57" cy="61.91" r="3.98"/><rect class="cls-1" x="123.81" y="66.67" width="9.52" height="9.52"/><circle cx="128.57" cy="71.43" r="3.98"/><rect class="cls-1" x="114.29" y="66.67" width="9.52" height="9.52"/><circle cx="119.05" cy="71.43" r="3.98"/><rect class="cls-1" x="114.29" y="76.19" width="9.52" height="9.52"/><circle cx="119.05" cy="80.95" r="3.98"/><rect class="cls-1" x="114.29" y="85.71" width="9.52" height="9.52"/><circle cx="119.05" cy="90.48" r="3.98"/><rect class="cls-1" x="114.29" y="95.24" width="9.52" height="9.52"/><circle cx="119.05" cy="100" r="3.98"/><rect class="cls-1" x="114.29" y="104.76" width="9.52" height="9.52"/><circle cx="119.05" cy="109.52" r="3.98"/><rect class="cls-1" x="114.29" y="114.29" width="9.52" height="9.52"/><circle cx="119.05" cy="119.05" r="3.98"/><rect class="cls-1" x="114.29" y="123.81" width="9.52" height="9.52"/><circle cx="119.05" cy="128.57" r="3.98"/><rect class="cls-1" x="104.76" y="85.71" width="9.52" height="9.52"/><circle cx="109.52" cy="90.48" r="3.98"/><rect class="cls-1" x="104.76" y="95.24" width="9.52" height="9.52"/><circle cx="109.52" cy="100" r="3.98"/><rect class="cls-1" x="104.76" y="104.76" width="9.52" height="9.52"/><circle cx="109.52" cy="109.52" r="3.98"/><rect class="cls-1" x="104.76" y="114.29" width="9.52" height="9.52"/><circle cx="109.52" cy="119.05" r="3.98"/><rect class="cls-1" x="104.76" y="123.81" width="9.52" height="9.52"/><circle cx="109.52" cy="128.57" r="3.98"/><rect class="cls-1" x="104.76" y="133.33" width="9.52" height="9.52"/><circle cx="109.52" cy="138.1" r="3.98"/><rect class="cls-1" x="104.76" y="142.86" width="9.52" height="9.52"/><circle cx="109.52" cy="147.62" r="3.98"/><rect class="cls-1" x="95.24" y="133.33" width="9.52" height="9.52"/><circle cx="100" cy="138.1" r="3.98"/><rect class="cls-1" x="95.24" y="142.86" width="9.52" height="9.52"/><circle cx="100" cy="147.62" r="3.98"/><rect class="cls-1" x="95.24" y="152.38" width="9.52" height="9.52"/><circle cx="100" cy="157.14" r="3.98"/><rect class="cls-1" x="95.24" y="161.9" width="9.52" height="9.52"/><circle cx="100" cy="166.67" r="3.98"/><rect class="cls-1" x="95.24" y="171.43" width="9.52" height="9.52"/><circle cx="100" cy="176.19" r="3.98"/><rect class="cls-1" x="85.71" y="85.71" width="9.52" height="9.52"/><circle cx="90.48" cy="90.48" r="3.98"/><rect class="cls-1" x="85.71" y="95.24" width="9.52" height="9.52"/><circle cx="90.48" cy="100" r="3.98"/><rect class="cls-1" x="85.71" y="104.76" width="9.52" height="9.52"/><circle cx="90.48" cy="109.52" r="3.98"/><rect class="cls-1" x="85.71" y="114.29" width="9.52" height="9.52"/><circle cx="90.48" cy="119.05" r="3.98"/><rect class="cls-1" x="85.71" y="123.81" width="9.52" height="9.52"/><circle cx="90.48" cy="128.57" r="3.98"/><rect class="cls-1" x="85.71" y="133.33" width="9.52" height="9.52"/><circle cx="90.48" cy="138.1" r="3.98"/><rect class="cls-1" x="85.71" y="142.86" width="9.52" height="9.52"/><circle cx="90.48" cy="147.62" r="3.98"/><rect class="cls-1" x="76.19" y="66.67" width="9.52" height="9.52"/><circle cx="80.95" cy="71.43" r="3.98"/><rect class="cls-1" x="76.19" y="76.19" width="9.52" height="9.52"/><circle cx="80.95" cy="80.95" r="3.98"/><rect class="cls-1" x="76.19" y="85.71" width="9.52" height="9.52"/><circle cx="80.95" cy="90.48" r="3.98"/><rect class="cls-1" x="76.19" y="95.24" width="9.52" height="9.52"/><circle cx="80.95" cy="100" r="3.98"/><rect class="cls-1" x="76.19" y="104.76" width="9.52" height="9.52"/><circle cx="80.95" cy="109.52" r="3.98"/><rect class="cls-1" x="76.19" y="114.29" width="9.52" height="9.52"/><circle cx="80.95" cy="119.05" r="3.98"/><rect class="cls-1" x="76.19" y="123.81" width="9.52" height="9.52"/><circle cx="80.95" cy="128.57" r="3.98"/><rect class="cls-1" x="66.67" y="47.62" width="9.52" height="9.52"/><circle cx="71.43" cy="52.38" r="3.98"/><rect class="cls-1" x="66.67" y="57.14" width="9.52" height="9.52"/><circle cx="71.43" cy="61.91" r="3.98"/><rect class="cls-1" x="66.67" y="66.67" width="9.52" height="9.52"/><circle cx="71.43" cy="71.43" r="3.98"/><rect class="cls-1" x="66.67" y="76.19" width="9.52" height="9.52"/><circle cx="71.43" cy="80.95" r="3.98"/><rect class="cls-1" x="57.14" y="38.1" width="9.52" height="9.52"/><circle cx="61.9" cy="42.86" r="3.98"/><rect class="cls-1" x="57.14" y="47.62" width="9.52" height="9.52"/><circle cx="61.9" cy="52.38" r="3.98"/><rect class="cls-1" x="57.14" y="57.14" width="9.52" height="9.52"/><circle cx="61.9" cy="61.91" r="3.98"/><rect class="cls-1" x="47.62" y="38.1" width="9.52" height="9.52"/><circle cx="52.38" cy="42.86" r="3.98"/><rect class="cls-1" x="47.62" y="47.62" width="9.52" height="9.52"/><circle cx="52.38" cy="52.38" r="3.98"/><rect class="cls-1" x="38.1" y="38.1" width="9.52" height="9.52"/><circle cx="42.86" cy="42.86" r="3.98"/><rect class="cls-1" x="38.1" y="47.62" width="9.52" height="9.52"/><circle cx="42.86" cy="52.38" r="3.98"/><rect class="cls-1" x="28.57" y="38.1" width="9.52" height="9.52"/><circle cx="33.33" cy="42.86" r="3.98"/><rect class="cls-1" x="28.57" y="47.62" width="9.52" height="9.52"/><circle cx="33.33" cy="52.38" r="3.98"/><rect class="cls-1" x="19.05" y="38.1" width="9.52" height="9.52"/><circle cx="23.81" cy="42.86" r="3.98"/><rect class="cls-1" x="19.05" y="47.62" width="9.52" height="9.52"/><circle cx="23.81" cy="52.38" r="3.98"/><rect class="cls-1" x="19.05" y="95.24" width="9.52" height="9.52"/><circle cx="23.81" cy="100" r="3.98"/><rect class="cls-1" x="9.52" y="47.62" width="9.52" height="9.52"/><circle cx="14.29" cy="52.38" r="3.98"/><rect class="cls-1" x="9.52" y="57.14" width="9.52" height="9.52"/><circle cx="14.29" cy="61.91" r="3.98"/><rect class="cls-1" x="9.52" y="66.67" width="9.52" height="9.52"/><circle cx="14.29" cy="71.43" r="3.98"/><rect class="cls-1" x="9.52" y="76.19" width="9.52" height="9.52"/><circle cx="14.29" cy="80.95" r="3.98"/><rect class="cls-1" x="9.52" y="85.71" width="9.52" height="9.52"/><circle cx="14.29" cy="90.48" r="3.98"/><rect class="cls-1" x="9.52" y="95.24" width="9.52" height="9.52"/><circle cx="14.29" cy="100" r="3.98"/><rect class="cls-1" y="57.14" width="9.52" height="9.52"/><circle cx="4.76" cy="61.91" r="3.98"/><rect class="cls-1" y="66.67" width="9.52" height="9.52"/><circle cx="4.76" cy="71.43" r="3.98"/><rect class="cls-1" y="76.19" width="9.52" height="9.52"/><circle cx="4.76" cy="80.95" r="3.98"/><rect class="cls-1" y="85.71" width="9.52" height="9.52"/><circle cx="4.76" cy="90.48" r="3.98"/><rect class="cls-1" x="133.33" y="38.1" width="9.52" height="9.52"/><circle cx="138.1" cy="42.86" r="3.98"/><rect class="cls-1" x="123.81" y="76.19" width="9.52" height="9.52"/><circle cx="128.57" cy="80.95" r="3.98"/></svg>