<svg id="Layer_2" data-name="Layer 2" xmlns="http://www.w3.org/2000/svg" viewBox="0 0 200 200"><defs><style>.cls-1{fill:none;}</style></defs><rect class="cls-1" x="187.53" y="96.5" width="12.47" height="12.47"/><circle cx="193.77" cy="102.74" r="5.21"/><rect class="cls-1" x="187.53" y="108.97" width="12.47" height="12.47"/><circle cx="193.77" cy="115.21" r="5.21"/><rect class="cls-1" x="187.53" y="121.44" width="12.47" height="12.47"/><circle cx="193.77" cy="127.68" r="5.21"/><rect class="cls-1" x="175.06" y="84.03" width="12.47" height="12.47"/><circle cx="181.3" cy="90.27" r="5.21"/><rect class="cls-1" x="175.06" y="96.5" width="12.47" height="12.47"/><circle cx="181.3" cy="102.74" r="5.21"/><rect class="cls-1" x="175.06" y="108.97" width="12.47" height="12.47"/><circle cx="181.3" cy="115.21" r="5.21"/><rect class="cls-1" x="175.06" y="121.44" width="12.47" height="12.47"/><circle cx="181.3" cy="127.68" r="5.21"/><rect class="cls-1" x="175.06" y="133.91" width="12.47" height="12.47"/><circle cx="181.3" cy="140.15" r="5.21"/><rect class="cls-1" x="162.59" y="71.56" width="12.47" height="12.47"/><circle cx="168.83" cy="77.8" r="5.21"/><rect class="cls-1" x="162.59" y="133.91" width="12.47" height="12.47"/><circle cx="168.83" cy="140.15" r="5.21"/><rect class="cls-1" x="162.59" y="146.38" width="12.47" height="12.47"/><circle cx="168.83" cy="152.62" r="5.21"/><rect class="cls-1" x="150.12" y="71.56" width="12.47" height="12.47"/><circle cx="156.36" cy="77.8" r="5.21"/><rect class="cls-1" x="150.12" y="133.91" width="12.47" height="12.47"/><circle cx="156.36" cy="140.15" r="5.21"/><rect class="cls-1" x="150.12" y="146.38" width="12.47" height="12.47"/><circle cx="156.36" cy="152.62" r="5.21"/><rect class="cls-1" x="150.12" y="158.85" width="12.47" height="12.47"/><circle cx="156.36" cy="165.09" r="5.21"/><rect class="cls-1" x="137.65" y="71.56" width="12.47" height="12.47"/><circle cx="143.89" cy="77.8" r="5.21"/><rect class="cls-1" x="137.65" y="84.03" width="12.47" height="12.47"/><circle cx="143.89" cy="90.27" r="5.21"/><rect class="cls-1" x="137.65" y="133.91" width="12.47" height="12.47"/><circle cx="143.89" cy="140.15" r="5.21"/><rect class="cls-1" x="137.65" y="146.38" width="12.47" height="12.47"/><circle cx="143.89" cy="152.62" r="5.21"/><rect class="cls-1" x="137.65" y="158.85" width="12.47" height="12.47"/><circle cx="143.89" cy="165.09" r="5.21"/><rect class="cls-1" x="125.18" y="84.03" width="12.47" height="12.47"/><circle cx="131.42" cy="90.27" r="5.21"/><rect class="cls-1" x="125.18" y="96.5" width="12.47" height="12.47"/><circle cx="131.42" cy="102.74" r="5.21"/><rect class="cls-1" x="125.18" y="108.97" width="12.47" height="12.47"/><circle cx="131.42" cy="115.21" r="5.21"/><rect class="cls-1" x="125.18" y="121.44" width="12.47" height="12.47"/><circle cx="131.42" cy="127.68" r="5.21"/><rect class="cls-1" x="125.18" y="133.91" width="12.47" height="12.47"/><circle cx="131.42" cy="140.15" r="5.21"/><rect class="cls-1" x="125.18" y="158.85" width="12.47" height="12.47"/><circle cx="131.42" cy="165.09" r="5.21"/><rect class="cls-1" x="125.18" y="171.32" width="12.47" height="12.47"/><circle cx="131.42" cy="177.56" r="5.21"/><rect class="cls-1" x="112.71" y="96.5" width="12.47" height="12.47"/><circle cx="118.95" cy="102.74" r="5.21"/><rect class="cls-1" x="112.71" y="108.97" width="12.47" height="12.47"/><circle cx="118.95" cy="115.21" r="5.21"/><rect class="cls-1" x="112.71" y="121.44" width="12.47" height="12.47"/><circle cx="118.95" cy="127.68" r="5.21"/><rect class="cls-1" x="112.71" y="158.85" width="12.47" height="12.47"/><circle cx="118.95" cy="165.09" r="5.21"/><rect class="cls-1" x="112.71" y="171.32" width="12.47" height="12.47"/><circle cx="118.95" cy="177.56" r="5.21"/><rect class="cls-1" x="100.24" y="158.85" width="12.47" height="12.47"/><circle cx="106.48" cy="165.09" r="5.21"/><rect class="cls-1" x="100.24" y="171.32" width="12.47" height="12.47"/><circle cx="106.48" cy="177.56" r="5.21"/><rect class="cls-1" x="87.77" y="158.85" width="12.47" height="12.47"/><circle cx="94.01" cy="165.09" r="5.21"/><rect class="cls-1" x="87.77" y="171.32" width="12.47" height="12.47"/><circle cx="94.01" cy="177.56" r="5.21"/><rect class="cls-1" x="75.3" y="158.85" width="12.47" height="12.47"/><circle cx="81.54" cy="165.09" r="5.21"/><rect class="cls-1" x="75.3" y="171.32" width="12.47" height="12.47"/><circle cx="81.54" cy="177.56" r="5.21"/><rect class="cls-1" x="62.83" y="158.85" width="12.47" height="12.47"/><circle cx="69.07" cy="165.09" r="5.21"/><rect class="cls-1" x="62.83" y="171.32" width="12.47" height="12.47"/><circle cx="69.07" cy="177.56" r="5.21"/><rect class="cls-1" x="50.36" y="158.85" width="12.47" height="12.47"/><circle cx="56.6" cy="165.09" r="5.21"/><rect class="cls-1" x="37.89" y="146.38" width="12.47" height="12.47"/><circle cx="44.13" cy="152.62" r="5.21"/><rect class="cls-1" x="37.89" y="158.85" width="12.47" height="12.47"/><circle cx="44.13" cy="165.09" r="5.21"/><rect class="cls-1" x="25.42" y="133.91" width="12.47" height="12.47"/><circle cx="31.66" cy="140.15" r="5.21"/><rect class="cls-1" x="25.42" y="146.38" width="12.47" height="12.47"/><circle cx="31.66" cy="152.62" r="5.21"/><rect class="cls-1" x="162.59" y="84.03" width="12.47" height="12.47"/><circle cx="168.83" cy="90.27" r="5.21"/><rect class="cls-1" x="0.48" y="84.03" width="12.47" height="12.47"/><circle cx="6.72" cy="90.27" r="5.21"/><rect class="cls-1" x="0.48" y="71.56" width="12.47" height="12.47"/><circle cx="6.72" cy="77.8" r="5.21"/><rect class="cls-1" x="0.48" y="59.09" width="12.47" height="12.47"/><circle cx="6.72" cy="65.33" r="5.21"/><rect class="cls-1" x="12.95" y="96.5" width="12.47" height="12.47"/><circle cx="19.19" cy="102.74" r="5.21"/><rect class="cls-1" x="12.95" y="84.03" width="12.47" height="12.47"/><circle cx="19.19" cy="90.27" r="5.21"/><rect class="cls-1" x="12.95" y="71.56" width="12.47" height="12.47"/><circle cx="19.19" cy="77.8" r="5.21"/><rect class="cls-1" x="12.95" y="59.09" width="12.47" height="12.47"/><circle cx="19.19" cy="65.33" r="5.21"/><rect class="cls-1" x="12.95" y="46.62" width="12.47" height="12.47"/><circle cx="19.19" cy="52.86" r="5.21"/><rect class="cls-1" x="25.42" y="108.97" width="12.47" height="12.47"/><circle cx="31.66" cy="115.21" r="5.21"/><rect class="cls-1" x="25.42" y="46.62" width="12.47" height="12.47"/><circle cx="31.66" cy="52.86" r="5.21"/><rect class="cls-1" x="25.42" y="34.15" width="12.47" height="12.47"/><circle cx="31.66" cy="40.39" r="5.21"/><rect class="cls-1" x="37.89" y="108.97" width="12.47" height="12.47"/><circle cx="44.13" cy="115.21" r="5.21"/><rect class="cls-1" x="37.89" y="46.62" width="12.47" height="12.47"/><circle cx="44.13" cy="52.86" r="5.21"/><rect class="cls-1" x="37.89" y="34.15" width="12.47" height="12.47"/><circle cx="44.13" cy="40.39" r="5.21"/><rect class="cls-1" x="37.89" y="21.68" width="12.47" height="12.47"/><circle cx="44.13" cy="27.92" r="5.21"/><rect class="cls-1" x="50.36" y="108.97" width="12.47" height="12.47"/><circle cx="56.6" cy="115.21" r="5.21"/><rect class="cls-1" x="50.36" y="96.5" width="12.47" height="12.47"/><circle cx="56.6" cy="102.74" r="5.21"/><rect class="cls-1" x="50.36" y="46.62" width="12.47" height="12.47"/><circle cx="56.6" cy="52.86" r="5.21"/><rect class="cls-1" x="50.36" y="34.15" width="12.47" height="12.47"/><circle cx="56.6" cy="40.39" r="5.21"/><rect class="cls-1" x="50.36" y="21.68" width="12.47" height="12.47"/><circle cx="56.6" cy="27.92" r="5.21"/><rect class="cls-1" x="62.83" y="96.5" width="12.47" height="12.47"/><circle cx="69.07" cy="102.74" r="5.21"/><rect class="cls-1" x="62.83" y="84.03" width="12.47" height="12.47"/><circle cx="69.07" cy="90.27" r="5.21"/><rect class="cls-1" x="62.83" y="71.56" width="12.47" height="12.47"/><circle cx="69.07" cy="77.8" r="5.21"/><rect class="cls-1" x="62.83" y="59.09" width="12.47" height="12.47"/><circle cx="69.07" cy="65.33" r="5.21"/><rect class="cls-1" x="62.83" y="46.62" width="12.47" height="12.47"/><circle cx="69.07" cy="52.86" r="5.21"/><rect class="cls-1" x="62.83" y="21.68" width="12.47" height="12.47"/><circle cx="69.07" cy="27.92" r="5.21"/><rect class="cls-1" x="62.83" y="9.21" width="12.47" height="12.47"/><circle cx="69.07" cy="15.45" r="5.21"/><rect class="cls-1" x="75.3" y="84.03" width="12.47" height="12.47"/><circle cx="81.54" cy="90.27" r="5.21"/><rect class="cls-1" x="75.3" y="71.56" width="12.47" height="12.47"/><circle cx="81.54" cy="77.8" r="5.21"/><rect class="cls-1" x="75.3" y="59.09" width="12.47" height="12.47"/><circle cx="81.54" cy="65.33" r="5.21"/><rect class="cls-1" x="75.3" y="21.68" width="12.47" height="12.47"/><circle cx="81.54" cy="27.92" r="5.21"/><rect class="cls-1" x="75.3" y="9.21" width="12.47" height="12.47"/><circle cx="81.54" cy="15.45" r="5.21"/><rect class="cls-1" x="87.77" y="21.68" width="12.47" height="12.47"/><circle cx="94.01" cy="27.92" r="5.21"/><rect class="cls-1" x="87.77" y="9.21" width="12.47" height="12.47"/><circle cx="94.01" cy="15.45" r="5.21"/><rect class="cls-1" x="100.24" y="21.68" width="12.47" height="12.47"/><circle cx="106.48" cy="27.92" r="5.21"/><rect class="cls-1" x="100.24" y="9.21" width="12.47" height="12.47"/><circle cx="106.48" cy="15.45" r="5.21"/><rect class="cls-1" x="112.71" y="21.68" width="12.47" height="12.47"/><circle cx="118.95" cy="27.92" r="5.21"/><rect class="cls-1" x="112.71" y="9.21" width="12.47" height="12.47"/><circle cx="118.95" cy="15.45" r="5.21"/><rect class="cls-1" x="125.18" y="21.68" width="12.47" height="12.47"/><circle cx="131.42" cy="27.92" r="5.21"/><rect class="cls-1" x="125.18" y="9.21" width="12.47" height="12.47"/><circle cx="131.42" cy="15.45" r="5.21"/><rect class="cls-1" x="137.65" y="21.68" width="12.47" height="12.47"/><circle cx="143.89" cy="27.92" r="5.21"/><rect class="cls-1" x="150.12" y="34.15" width="12.47" height="12.47"/><circle cx="156.36" cy="40.39" r="5.21"/><rect class="cls-1" x="150.12" y="21.68" width="12.47" height="12.47"/><circle cx="156.36" cy="27.92" r="5.21"/><rect class="cls-1" x="162.59" y="46.62" width="12.47" height="12.47"/><circle cx="168.83" cy="52.86" r="5.21"/><rect class="cls-1" x="162.59" y="34.15" width="12.47" height="12.47"/><circle cx="168.83" cy="40.39" r="5.21"/><rect class="cls-1" x="25.42" y="96.5" width="12.47" height="12.47"/><circle cx="31.66" cy="102.74" r="5.21"/></svg>