<svg id="Layer_2" data-name="Layer 2" xmlns="http://www.w3.org/2000/svg" viewBox="0 0 200 200"><defs><style>.cls-1{fill:none;}</style></defs><rect class="cls-1" x="190" y="110" width="10" height="10"/><circle cx="195" cy="115" r="4.18"/><rect class="cls-1" x="190" y="120" width="10" height="10"/><circle cx="195" cy="125" r="4.18"/><rect class="cls-1" x="190" y="140" width="10" height="10"/><circle cx="195" cy="145" r="4.18"/><rect class="cls-1" x="190" y="150" width="10" height="10"/><circle cx="195" cy="155" r="4.18"/><rect class="cls-1" x="180" y="110" width="10" height="10"/><circle cx="185" cy="115" r="4.18"/><rect class="cls-1" x="180" y="120" width="10" height="10"/><circle cx="185" cy="125" r="4.18"/><rect class="cls-1" x="180" y="140" width="10" height="10"/><circle cx="185" cy="145" r="4.18"/><rect class="cls-1" x="180" y="150" width="10" height="10"/><circle cx="185" cy="155" r="4.18"/><rect class="cls-1" x="170" y="110" width="10" height="10"/><circle cx="175" cy="115" r="4.18"/><rect class="cls-1" x="170" y="120" width="10" height="10"/><circle cx="175" cy="125" r="4.18"/><rect class="cls-1" x="170" y="140" width="10" height="10"/><circle cx="175" cy="145" r="4.18"/><rect class="cls-1" x="170" y="150" width="10" height="10"/><circle cx="175" cy="155" r="4.18"/><rect class="cls-1" x="160" y="110" width="10" height="10"/><circle cx="165" cy="115" r="4.18"/><rect class="cls-1" x="160" y="120" width="10" height="10"/><circle cx="165" cy="125" r="4.18"/><rect class="cls-1" x="160" y="140" width="10" height="10"/><circle cx="165" cy="145" r="4.18"/><rect class="cls-1" x="160" y="150" width="10" height="10"/><circle cx="165" cy="155" r="4.18"/><rect class="cls-1" x="150" y="110" width="10" height="10"/><circle cx="155" cy="115" r="4.18"/><rect class="cls-1" x="150" y="120" width="10" height="10"/><circle cx="155" cy="125" r="4.18"/><rect class="cls-1" x="150" y="140" width="10" height="10"/><circle cx="155" cy="145" r="4.18"/><rect class="cls-1" x="150" y="150" width="10" height="10"/><circle cx="155" cy="155" r="4.18"/><rect class="cls-1" x="140" y="60" width="10" height="10"/><circle cx="145" cy="65" r="4.18"/><rect class="cls-1" x="140" y="70" width="10" height="10"/><circle cx="145" cy="75" r="4.18"/><rect class="cls-1" x="140" y="80" width="10" height="10"/><circle cx="145" cy="85" r="4.18"/><rect class="cls-1" x="140" y="90" width="10" height="10"/><circle cx="145" cy="95" r="4.18"/><rect class="cls-1" x="140" y="100" width="10" height="10"/><circle cx="145" cy="105" r="4.18"/><rect class="cls-1" x="140" y="110" width="10" height="10"/><circle cx="145" cy="115" r="4.18"/><rect class="cls-1" x="140" y="120" width="10" height="10"/><circle cx="145" cy="125" r="4.18"/><rect class="cls-1" x="140" y="140" width="10" height="10"/><circle cx="145" cy="145" r="4.18"/><rect class="cls-1" x="140" y="150" width="10" height="10"/><circle cx="145" cy="155" r="4.18"/><rect class="cls-1" x="130" y="50" width="10" height="10"/><circle cx="135" cy="55" r="4.18"/><rect class="cls-1" x="130" y="60" width="10" height="10"/><circle cx="135" cy="65" r="4.18"/><rect class="cls-1" x="130" y="70" width="10" height="10"/><circle cx="135" cy="75" r="4.18"/><rect class="cls-1" x="130" y="80" width="10" height="10"/><circle cx="135" cy="85" r="4.18"/><rect class="cls-1" x="130" y="90" width="10" height="10"/><circle cx="135" cy="95" r="4.18"/><rect class="cls-1" x="130" y="100" width="10" height="10"/><circle cx="135" cy="105" r="4.18"/><rect class="cls-1" x="130" y="110" width="10" height="10"/><circle cx="135" cy="115" r="4.18"/><rect class="cls-1" x="130" y="120" width="10" height="10"/><circle cx="135" cy="125" r="4.18"/><rect class="cls-1" x="130" y="140" width="10" height="10"/><circle cx="135" cy="145" r="4.18"/><rect class="cls-1" x="130" y="150" width="10" height="10"/><circle cx="135" cy="155" r="4.18"/><rect class="cls-1" x="120" y="40" width="10" height="10"/><circle cx="125" cy="45" r="4.18"/><rect class="cls-1" x="120" y="50" width="10" height="10"/><circle cx="125" cy="55" r="4.18"/><rect class="cls-1" x="120" y="60" width="10" height="10"/><circle cx="125" cy="65" r="4.18"/><rect class="cls-1" x="120" y="110" width="10" height="10"/><circle cx="125" cy="115" r="4.18"/><rect class="cls-1" x="120" y="120" width="10" height="10"/><circle cx="125" cy="125" r="4.18"/><rect class="cls-1" x="120" y="140" width="10" height="10"/><circle cx="125" cy="145" r="4.18"/><rect class="cls-1" x="120" y="150" width="10" height="10"/><circle cx="125" cy="155" r="4.18"/><rect class="cls-1" x="110" y="40" width="10" height="10"/><circle cx="115" cy="45" r="4.18"/><rect class="cls-1" x="110" y="50" width="10" height="10"/><circle cx="115" cy="55" r="4.18"/><rect class="cls-1" x="110" y="140" width="10" height="10"/><circle cx="115" cy="145" r="4.18"/><rect class="cls-1" x="110" y="150" width="10" height="10"/><circle cx="115" cy="155" r="4.18"/><rect class="cls-1" x="100" y="40" width="10" height="10"/><circle cx="105" cy="45" r="4.18"/><rect class="cls-1" x="100" y="50" width="10" height="10"/><circle cx="105" cy="55" r="4.18"/><rect class="cls-1" x="100" y="140" width="10" height="10"/><circle cx="105" cy="145" r="4.18"/><rect class="cls-1" x="100" y="150" width="10" height="10"/><circle cx="105" cy="155" r="4.18"/><rect class="cls-1" x="90" y="40" width="10" height="10"/><circle cx="95" cy="45" r="4.18"/><rect class="cls-1" x="90" y="50" width="10" height="10"/><circle cx="95" cy="55" r="4.18"/><rect class="cls-1" x="90" y="140" width="10" height="10"/><circle cx="95" cy="145" r="4.18"/><rect class="cls-1" x="90" y="150" width="10" height="10"/><circle cx="95" cy="155" r="4.18"/><rect class="cls-1" x="80" y="40" width="10" height="10"/><circle cx="85" cy="45" r="4.18"/><rect class="cls-1" x="80" y="50" width="10" height="10"/><circle cx="85" cy="55" r="4.18"/><rect class="cls-1" x="80" y="140" width="10" height="10"/><circle cx="85" cy="145" r="4.18"/><rect class="cls-1" x="80" y="150" width="10" height="10"/><circle cx="85" cy="155" r="4.18"/><rect class="cls-1" x="70" y="40" width="10" height="10"/><circle cx="75" cy="45" r="4.18"/><rect class="cls-1" x="70" y="50" width="10" height="10"/><circle cx="75" cy="55" r="4.18"/><rect class="cls-1" x="70" y="60" width="10" height="10"/><circle cx="75" cy="65" r="4.18"/><rect class="cls-1" x="70" y="110" width="10" height="10"/><circle cx="75" cy="115" r="4.18"/><rect class="cls-1" x="70" y="120" width="10" height="10"/><circle cx="75" cy="125" r="4.18"/><rect class="cls-1" x="70" y="140" width="10" height="10"/><circle cx="75" cy="145" r="4.18"/><rect class="cls-1" x="70" y="150" width="10" height="10"/><circle cx="75" cy="155" r="4.18"/><rect class="cls-1" x="60" y="50" width="10" height="10"/><circle cx="65" cy="55" r="4.18"/><rect class="cls-1" x="60" y="60" width="10" height="10"/><circle cx="65" cy="65" r="4.18"/><rect class="cls-1" x="60" y="70" width="10" height="10"/><circle cx="65" cy="75" r="4.18"/><rect class="cls-1" x="60" y="80" width="10" height="10"/><circle cx="65" cy="85" r="4.18"/><rect class="cls-1" x="60" y="90" width="10" height="10"/><circle cx="65" cy="95" r="4.18"/><rect class="cls-1" x="60" y="100" width="10" height="10"/><circle cx="65" cy="105" r="4.18"/><rect class="cls-1" x="60" y="110" width="10" height="10"/><circle cx="65" cy="115" r="4.18"/><rect class="cls-1" x="60" y="120" width="10" height="10"/><circle cx="65" cy="125" r="4.18"/><rect class="cls-1" x="60" y="140" width="10" height="10"/><circle cx="65" cy="145" r="4.18"/><rect class="cls-1" x="60" y="150" width="10" height="10"/><circle cx="65" cy="155" r="4.18"/><rect class="cls-1" x="50" y="60" width="10" height="10"/><circle cx="55" cy="65" r="4.18"/><rect class="cls-1" x="50" y="70" width="10" height="10"/><circle cx="55" cy="75" r="4.18"/><rect class="cls-1" x="50" y="80" width="10" height="10"/><circle cx="55" cy="85" r="4.18"/><rect class="cls-1" x="50" y="90" width="10" height="10"/><circle cx="55" cy="95" r="4.18"/><rect class="cls-1" x="50" y="100" width="10" height="10"/><circle cx="55" cy="105" r="4.18"/><rect class="cls-1" x="50" y="110" width="10" height="10"/><circle cx="55" cy="115" r="4.18"/><rect class="cls-1" x="50" y="120" width="10" height="10"/><circle cx="55" cy="125" r="4.18"/><rect class="cls-1" x="50" y="140" width="10" height="10"/><circle cx="55" cy="145" r="4.18"/><rect class="cls-1" x="50" y="150" width="10" height="10"/><circle cx="55" cy="155" r="4.18"/><rect class="cls-1" x="40" y="110" width="10" height="10"/><circle cx="45" cy="115" r="4.18"/><rect class="cls-1" x="40" y="120" width="10" height="10"/><circle cx="45" cy="125" r="4.18"/><rect class="cls-1" x="40" y="140" width="10" height="10"/><circle cx="45" cy="145" r="4.18"/><rect class="cls-1" x="40" y="150" width="10" height="10"/><circle cx="45" cy="155" r="4.18"/><rect class="cls-1" x="30" y="110" width="10" height="10"/><circle cx="35" cy="115" r="4.18"/><rect class="cls-1" x="30" y="120" width="10" height="10"/><circle cx="35" cy="125" r="4.18"/><rect class="cls-1" x="30" y="140" width="10" height="10"/><circle cx="35" cy="145" r="4.18"/><rect class="cls-1" x="30" y="150" width="10" height="10"/><circle cx="35" cy="155" r="4.18"/><rect class="cls-1" x="20" y="110" width="10" height="10"/><circle cx="25" cy="115" r="4.18"/><rect class="cls-1" x="20" y="120" width="10" height="10"/><circle cx="25" cy="125" r="4.18"/><rect class="cls-1" x="20" y="140" width="10" height="10"/><circle cx="25" cy="145" r="4.18"/><rect class="cls-1" x="20" y="150" width="10" height="10"/><circle cx="25" cy="155" r="4.18"/><rect class="cls-1" x="10" y="110" width="10" height="10"/><circle cx="15" cy="115" r="4.18"/><rect class="cls-1" x="10" y="120" width="10" height="10"/><circle cx="15" cy="125" r="4.18"/><rect class="cls-1" x="10" y="140" width="10" height="10"/><circle cx="15" cy="145" r="4.18"/><rect class="cls-1" x="10" y="150" width="10" height="10"/><circle cx="15" cy="155" r="4.18"/><rect class="cls-1" y="110" width="10" height="10"/><circle cx="5" cy="115" r="4.18"/><rect class="cls-1" y="120" width="10" height="10"/><circle cx="5" cy="125" r="4.18"/><rect class="cls-1" y="140" width="10" height="10"/><circle cx="5" cy="145" r="4.18"/><rect class="cls-1" y="150" width="10" height="10"/><circle cx="5" cy="155" r="4.18"/></svg>