<svg width="207" height="33" viewBox="0 0 207 33" fill="none" xmlns="http://www.w3.org/2000/svg">
<circle cx="27" cy="21" r="6.85" stroke="#434A47" stroke-width="2.3"/>
<circle cx="44" cy="21" r="6.85" stroke="#434A47" stroke-width="2.3"/>
<circle cx="73" cy="21" r="6.85" stroke="#434A47" stroke-width="2.3"/>
<path d="M4.2312 15.552C3.92507 15.8581 3.56427 16.0112 3.1488 16.0112C2.7552 16.0112 2.40533 15.8581 2.0992 15.552C1.79307 15.2459 1.64 14.896 1.64 14.5024C1.64 14.0869 1.79307 13.7261 2.0992 13.42C2.38347 13.1357 2.73333 12.9936 3.1488 12.9936C3.58613 12.9936 3.94693 13.1357 4.2312 13.42C4.51547 13.7043 4.6576 14.0651 4.6576 14.5024C4.6576 14.9179 4.51547 15.2677 4.2312 15.552ZM10.7256 15.552C10.4195 15.8581 10.0587 16.0112 9.6432 16.0112C9.2496 16.0112 8.89973 15.8581 8.5936 15.552C8.28747 15.2459 8.1344 14.896 8.1344 14.5024C8.1344 14.0869 8.28747 13.7261 8.5936 13.42C8.87787 13.1357 9.22773 12.9936 9.6432 12.9936C10.0805 12.9936 10.4413 13.1357 10.7256 13.42C11.0099 13.7043 11.152 14.0651 11.152 14.5024C11.152 14.9179 11.0099 15.2677 10.7256 15.552ZM13.9728 15.552C13.6667 15.8581 13.3059 16.0112 12.8904 16.0112C12.4968 16.0112 12.1469 15.8581 11.8408 15.552C11.5347 15.2459 11.3816 14.896 11.3816 14.5024C11.3816 14.0869 11.5347 13.7261 11.8408 13.42C12.1251 13.1357 12.4749 12.9936 12.8904 12.9936C13.3277 12.9936 13.6885 13.1357 13.9728 13.42C14.2571 13.7043 14.3992 14.0651 14.3992 14.5024C14.3992 14.9179 14.2571 15.2677 13.9728 15.552ZM7.4784 18.7992C7.17227 19.1053 6.81147 19.2584 6.396 19.2584C6.0024 19.2584 5.65253 19.1053 5.3464 18.7992C5.04027 18.4931 4.8872 18.1432 4.8872 17.7496C4.8872 17.3341 5.04027 16.9733 5.3464 16.6672C5.63067 16.3829 5.98053 16.2408 6.396 16.2408C6.83333 16.2408 7.19413 16.3829 7.4784 16.6672C7.76267 16.9515 7.9048 17.3123 7.9048 17.7496C7.9048 18.1651 7.76267 18.5149 7.4784 18.7992ZM17.22 18.7992C16.9139 19.1053 16.5531 19.2584 16.1376 19.2584C15.744 19.2584 15.3941 19.1053 15.088 18.7992C14.7819 18.4931 14.6288 18.1432 14.6288 17.7496C14.6288 17.3341 14.7819 16.9733 15.088 16.6672C15.3723 16.3829 15.7221 16.2408 16.1376 16.2408C16.5749 16.2408 16.9357 16.3829 17.22 16.6672C17.5043 16.9515 17.6464 17.3123 17.6464 17.7496C17.6464 18.1651 17.5043 18.5149 17.22 18.7992ZM7.4784 22.0464C7.17227 22.3525 6.81147 22.5056 6.396 22.5056C6.0024 22.5056 5.65253 22.3525 5.3464 22.0464C5.04027 21.7403 4.8872 21.3904 4.8872 20.9968C4.8872 20.5813 5.04027 20.2205 5.3464 19.9144C5.63067 19.6301 5.98053 19.488 6.396 19.488C6.83333 19.488 7.19413 19.6301 7.4784 19.9144C7.76267 20.1987 7.9048 20.5595 7.9048 20.9968C7.9048 21.4123 7.76267 21.7621 7.4784 22.0464ZM7.4784 25.2936C7.17227 25.5997 6.81147 25.7528 6.396 25.7528C6.0024 25.7528 5.65253 25.5997 5.3464 25.2936C5.04027 24.9875 4.8872 24.6376 4.8872 24.244C4.8872 23.8285 5.04027 23.4677 5.3464 23.1616C5.63067 22.8773 5.98053 22.7352 6.396 22.7352C6.83333 22.7352 7.19413 22.8773 7.4784 23.1616C7.76267 23.4459 7.9048 23.8067 7.9048 24.244C7.9048 24.6595 7.76267 25.0093 7.4784 25.2936ZM7.4784 28.5408C7.17227 28.8469 6.81147 29 6.396 29C6.0024 29 5.65253 28.8469 5.3464 28.5408C5.04027 28.2347 4.8872 27.8848 4.8872 27.4912C4.8872 27.0757 5.04027 26.7149 5.3464 26.4088C5.63067 26.1245 5.98053 25.9824 6.396 25.9824C6.83333 25.9824 7.19413 26.1245 7.4784 26.4088C7.76267 26.6931 7.9048 27.0539 7.9048 27.4912C7.9048 27.9067 7.76267 28.2565 7.4784 28.5408Z" fill="#434A47"/>
<path d="M108.581 15.552C108.275 15.8581 107.914 16.0112 107.498 16.0112C107.105 16.0112 106.755 15.8581 106.449 15.552C106.143 15.2459 105.99 14.896 105.99 14.5024C105.99 14.0869 106.143 13.7261 106.449 13.42C106.733 13.1357 107.083 12.9936 107.498 12.9936C107.936 12.9936 108.297 13.1357 108.581 13.42C108.865 13.7043 109.007 14.0651 109.007 14.5024C109.007 14.9179 108.865 15.2677 108.581 15.552ZM115.075 15.552C114.769 15.8581 114.408 16.0112 113.993 16.0112C113.599 16.0112 113.249 15.8581 112.943 15.552C112.637 15.2459 112.484 14.896 112.484 14.5024C112.484 14.0869 112.637 13.7261 112.943 13.42C113.227 13.1357 113.577 12.9936 113.993 12.9936C114.43 12.9936 114.791 13.1357 115.075 13.42C115.359 13.7043 115.502 14.0651 115.502 14.5024C115.502 14.9179 115.359 15.2677 115.075 15.552ZM118.322 15.552C118.016 15.8581 117.655 16.0112 117.24 16.0112C116.846 16.0112 116.497 15.8581 116.19 15.552C115.884 15.2459 115.731 14.896 115.731 14.5024C115.731 14.0869 115.884 13.7261 116.19 13.42C116.475 13.1357 116.825 12.9936 117.24 12.9936C117.677 12.9936 118.038 13.1357 118.322 13.42C118.607 13.7043 118.749 14.0651 118.749 14.5024C118.749 14.9179 118.607 15.2677 118.322 15.552ZM111.828 18.7992C111.522 19.1053 111.161 19.2584 110.746 19.2584C110.352 19.2584 110.002 19.1053 109.696 18.7992C109.39 18.4931 109.237 18.1432 109.237 17.7496C109.237 17.3341 109.39 16.9733 109.696 16.6672C109.98 16.3829 110.33 16.2408 110.746 16.2408C111.183 16.2408 111.544 16.3829 111.828 16.6672C112.112 16.9515 112.254 17.3123 112.254 17.7496C112.254 18.1651 112.112 18.5149 111.828 18.7992ZM121.57 18.7992C121.263 19.1053 120.903 19.2584 120.487 19.2584C120.094 19.2584 119.744 19.1053 119.438 18.7992C119.131 18.4931 118.978 18.1432 118.978 17.7496C118.978 17.3341 119.131 16.9733 119.438 16.6672C119.722 16.3829 120.072 16.2408 120.487 16.2408C120.925 16.2408 121.285 16.3829 121.57 16.6672C121.854 16.9515 121.996 17.3123 121.996 17.7496C121.996 18.1651 121.854 18.5149 121.57 18.7992ZM111.828 22.0464C111.522 22.3525 111.161 22.5056 110.746 22.5056C110.352 22.5056 110.002 22.3525 109.696 22.0464C109.39 21.7403 109.237 21.3904 109.237 20.9968C109.237 20.5813 109.39 20.2205 109.696 19.9144C109.98 19.6301 110.33 19.488 110.746 19.488C111.183 19.488 111.544 19.6301 111.828 19.9144C112.112 20.1987 112.254 20.5595 112.254 20.9968C112.254 21.4123 112.112 21.7621 111.828 22.0464ZM111.828 25.2936C111.522 25.5997 111.161 25.7528 110.746 25.7528C110.352 25.7528 110.002 25.5997 109.696 25.2936C109.39 24.9875 109.237 24.6376 109.237 24.244C109.237 23.8285 109.39 23.4677 109.696 23.1616C109.98 22.8773 110.33 22.7352 110.746 22.7352C111.183 22.7352 111.544 22.8773 111.828 23.1616C112.112 23.4459 112.254 23.8067 112.254 24.244C112.254 24.6595 112.112 25.0093 111.828 25.2936ZM111.828 28.5408C111.522 28.8469 111.161 29 110.746 29C110.352 29 110.002 28.8469 109.696 28.5408C109.39 28.2347 109.237 27.8848 109.237 27.4912C109.237 27.0757 109.39 26.7149 109.696 26.4088C109.98 26.1245 110.33 25.9824 110.746 25.9824C111.183 25.9824 111.544 26.1245 111.828 26.4088C112.112 26.6931 112.254 27.0539 112.254 27.4912C112.254 27.9067 112.112 28.2565 111.828 28.5408Z" fill="#434A47"/>
<path d="M60.4784 9.0576C60.1723 9.36373 59.8115 9.5168 59.396 9.5168C59.0024 9.5168 58.6525 9.36373 58.3464 9.0576C58.0403 8.75147 57.8872 8.4016 57.8872 8.008C57.8872 7.59253 58.0403 7.23173 58.3464 6.9256C58.6307 6.64133 58.9805 6.4992 59.396 6.4992C59.8333 6.4992 60.1941 6.64133 60.4784 6.9256C60.7627 7.20987 60.9048 7.57067 60.9048 8.008C60.9048 8.42347 60.7627 8.77333 60.4784 9.0576ZM57.2312 15.552C56.9251 15.8581 56.5643 16.0112 56.1488 16.0112C55.7552 16.0112 55.4053 15.8581 55.0992 15.552C54.7931 15.2459 54.64 14.896 54.64 14.5024C54.64 14.0869 54.7931 13.7261 55.0992 13.42C55.3835 13.1357 55.7333 12.9936 56.1488 12.9936C56.5861 12.9936 56.9469 13.1357 57.2312 13.42C57.5155 13.7043 57.6576 14.0651 57.6576 14.5024C57.6576 14.9179 57.5155 15.2677 57.2312 15.552ZM60.4784 15.552C60.1723 15.8581 59.8115 16.0112 59.396 16.0112C59.0024 16.0112 58.6525 15.8581 58.3464 15.552C58.0403 15.2459 57.8872 14.896 57.8872 14.5024C57.8872 14.0869 58.0403 13.7261 58.3464 13.42C58.6307 13.1357 58.9805 12.9936 59.396 12.9936C59.8333 12.9936 60.1941 13.1357 60.4784 13.42C60.7627 13.7043 60.9048 14.0651 60.9048 14.5024C60.9048 14.9179 60.7627 15.2677 60.4784 15.552ZM60.4784 18.7992C60.1723 19.1053 59.8115 19.2584 59.396 19.2584C59.0024 19.2584 58.6525 19.1053 58.3464 18.7992C58.0403 18.4931 57.8872 18.1432 57.8872 17.7496C57.8872 17.3341 58.0403 16.9733 58.3464 16.6672C58.6307 16.3829 58.9805 16.2408 59.396 16.2408C59.8333 16.2408 60.1941 16.3829 60.4784 16.6672C60.7627 16.9515 60.9048 17.3123 60.9048 17.7496C60.9048 18.1651 60.7627 18.5149 60.4784 18.7992ZM60.4784 22.0464C60.1723 22.3525 59.8115 22.5056 59.396 22.5056C59.0024 22.5056 58.6525 22.3525 58.3464 22.0464C58.0403 21.7403 57.8872 21.3904 57.8872 20.9968C57.8872 20.5813 58.0403 20.2205 58.3464 19.9144C58.6307 19.6301 58.9805 19.488 59.396 19.488C59.8333 19.488 60.1941 19.6301 60.4784 19.9144C60.7627 20.1987 60.9048 20.5595 60.9048 20.9968C60.9048 21.4123 60.7627 21.7621 60.4784 22.0464ZM60.4784 25.2936C60.1723 25.5997 59.8115 25.7528 59.396 25.7528C59.0024 25.7528 58.6525 25.5997 58.3464 25.2936C58.0403 24.9875 57.8872 24.6376 57.8872 24.244C57.8872 23.8285 58.0403 23.4677 58.3464 23.1616C58.6307 22.8773 58.9805 22.7352 59.396 22.7352C59.8333 22.7352 60.1941 22.8773 60.4784 23.1616C60.7627 23.4459 60.9048 23.8067 60.9048 24.244C60.9048 24.6595 60.7627 25.0093 60.4784 25.2936ZM57.2312 28.5408C56.9251 28.8469 56.5643 29 56.1488 29C55.7552 29 55.4053 28.8469 55.0992 28.5408C54.7931 28.2347 54.64 27.8848 54.64 27.4912C54.64 27.0757 54.7931 26.7149 55.0992 26.4088C55.3835 26.1245 55.7333 25.9824 56.1488 25.9824C56.5861 25.9824 56.9469 26.1245 57.2312 26.4088C57.5155 26.6931 57.6576 27.0539 57.6576 27.4912C57.6576 27.9067 57.5155 28.2565 57.2312 28.5408ZM60.4784 28.5408C60.1723 28.8469 59.8115 29 59.396 29C59.0024 29 58.6525 28.8469 58.3464 28.5408C58.0403 28.2347 57.8872 27.8848 57.8872 27.4912C57.8872 27.0757 58.0403 26.7149 58.3464 26.4088C58.6307 26.1245 58.9805 25.9824 59.396 25.9824C59.8333 25.9824 60.1941 26.1245 60.4784 26.4088C60.7627 26.6931 60.9048 27.0539 60.9048 27.4912C60.9048 27.9067 60.7627 28.2565 60.4784 28.5408ZM63.7256 28.5408C63.4195 28.8469 63.0587 29 62.6432 29C62.2496 29 61.8997 28.8469 61.5936 28.5408C61.2875 28.2347 61.1344 27.8848 61.1344 27.4912C61.1344 27.0757 61.2875 26.7149 61.5936 26.4088C61.8779 26.1245 62.2277 25.9824 62.6432 25.9824C63.0805 25.9824 63.4413 26.1245 63.7256 26.4088C64.0099 26.6931 64.152 27.0539 64.152 27.4912C64.152 27.9067 64.0099 28.2565 63.7256 28.5408Z" fill="#434A47"/>
<circle cx="33.5" cy="11.5" r="1.5" fill="#434A47"/>
<circle cx="30.2998" cy="8.30005" r="1.5" fill="#434A47"/>
<circle cx="50.7002" cy="11.5" r="1.5" fill="#434A47"/>
<circle cx="50.7002" cy="8.30005" r="1.5" fill="#434A47"/>
<circle cx="90.5" cy="30.5" r="1.5" fill="#434A47"/>
<circle cx="27.0996" cy="8.30005" r="1.5" fill="#434A47"/>
<circle cx="23.9004" cy="8.30005" r="1.5" fill="#434A47"/>
<circle cx="97" cy="21" r="6.85" stroke="#434A47" stroke-width="2.3"/>
<circle cx="131" cy="21" r="6.85" stroke="#434A47" stroke-width="2.3"/>
<path d="M181.179 15.552C180.872 15.8581 180.512 16.0112 180.096 16.0112C179.703 16.0112 179.353 15.8581 179.047 15.552C178.74 15.2459 178.587 14.896 178.587 14.5024C178.587 14.0869 178.74 13.7261 179.047 13.42C179.331 13.1357 179.681 12.9936 180.096 12.9936C180.534 12.9936 180.894 13.1357 181.179 13.42C181.463 13.7043 181.605 14.0651 181.605 14.5024C181.605 14.9179 181.463 15.2677 181.179 15.552ZM184.426 15.552C184.12 15.8581 183.759 16.0112 183.343 16.0112C182.95 16.0112 182.6 15.8581 182.294 15.552C181.988 15.2459 181.835 14.896 181.835 14.5024C181.835 14.0869 181.988 13.7261 182.294 13.42C182.578 13.1357 182.928 12.9936 183.343 12.9936C183.781 12.9936 184.142 13.1357 184.426 13.42C184.71 13.7043 184.852 14.0651 184.852 14.5024C184.852 14.9179 184.71 15.2677 184.426 15.552ZM187.673 15.552C187.367 15.8581 187.006 16.0112 186.591 16.0112C186.197 16.0112 185.847 15.8581 185.541 15.552C185.235 15.2459 185.082 14.896 185.082 14.5024C185.082 14.0869 185.235 13.7261 185.541 13.42C185.825 13.1357 186.175 12.9936 186.591 12.9936C187.028 12.9936 187.389 13.1357 187.673 13.42C187.957 13.7043 188.099 14.0651 188.099 14.5024C188.099 14.9179 187.957 15.2677 187.673 15.552ZM177.931 18.7992C177.625 19.1053 177.264 19.2584 176.849 19.2584C176.455 19.2584 176.106 19.1053 175.799 18.7992C175.493 18.4931 175.34 18.1432 175.34 17.7496C175.34 17.3341 175.493 16.9733 175.799 16.6672C176.084 16.3829 176.434 16.2408 176.849 16.2408C177.286 16.2408 177.647 16.3829 177.931 16.6672C178.216 16.9515 178.358 17.3123 178.358 17.7496C178.358 18.1651 178.216 18.5149 177.931 18.7992ZM190.92 18.7992C190.614 19.1053 190.253 19.2584 189.838 19.2584C189.444 19.2584 189.094 19.1053 188.788 18.7992C188.482 18.4931 188.329 18.1432 188.329 17.7496C188.329 17.3341 188.482 16.9733 188.788 16.6672C189.072 16.3829 189.422 16.2408 189.838 16.2408C190.275 16.2408 190.636 16.3829 190.92 16.6672C191.204 16.9515 191.347 17.3123 191.347 17.7496C191.347 18.1651 191.204 18.5149 190.92 18.7992ZM177.931 22.0464C177.625 22.3525 177.264 22.5056 176.849 22.5056C176.455 22.5056 176.106 22.3525 175.799 22.0464C175.493 21.7403 175.34 21.3904 175.34 20.9968C175.34 20.5813 175.493 20.2205 175.799 19.9144C176.084 19.6301 176.434 19.488 176.849 19.488C177.286 19.488 177.647 19.6301 177.931 19.9144C178.216 20.1987 178.358 20.5595 178.358 20.9968C178.358 21.4123 178.216 21.7621 177.931 22.0464ZM177.931 25.2936C177.625 25.5997 177.264 25.7528 176.849 25.7528C176.455 25.7528 176.106 25.5997 175.799 25.2936C175.493 24.9875 175.34 24.6376 175.34 24.244C175.34 23.8285 175.493 23.4677 175.799 23.1616C176.084 22.8773 176.434 22.7352 176.849 22.7352C177.286 22.7352 177.647 22.8773 177.931 23.1616C178.216 23.4459 178.358 23.8067 178.358 24.244C178.358 24.6595 178.216 25.0093 177.931 25.2936ZM181.179 28.5408C180.872 28.8469 180.512 29 180.096 29C179.703 29 179.353 28.8469 179.047 28.5408C178.74 28.2347 178.587 27.8848 178.587 27.4912C178.587 27.0757 178.74 26.7149 179.047 26.4088C179.331 26.1245 179.681 25.9824 180.096 25.9824C180.534 25.9824 180.894 26.1245 181.179 26.4088C181.463 26.6931 181.605 27.0539 181.605 27.4912C181.605 27.9067 181.463 28.2565 181.179 28.5408ZM184.426 28.5408C184.12 28.8469 183.759 29 183.343 29C182.95 29 182.6 28.8469 182.294 28.5408C181.988 28.2347 181.835 27.8848 181.835 27.4912C181.835 27.0757 181.988 26.7149 182.294 26.4088C182.578 26.1245 182.928 25.9824 183.343 25.9824C183.781 25.9824 184.142 26.1245 184.426 26.4088C184.71 26.6931 184.852 27.0539 184.852 27.4912C184.852 27.9067 184.71 28.2565 184.426 28.5408ZM187.673 28.5408C187.367 28.8469 187.006 29 186.591 29C186.197 29 185.847 28.8469 185.541 28.5408C185.235 28.2347 185.082 27.8848 185.082 27.4912C185.082 27.0757 185.235 26.7149 185.541 26.4088C185.825 26.1245 186.175 25.9824 186.591 25.9824C187.028 25.9824 187.389 26.1245 187.673 26.4088C187.957 26.6931 188.099 27.0539 188.099 27.4912C188.099 27.9067 187.957 28.2565 187.673 28.5408ZM190.92 28.5408C190.614 28.8469 190.253 29 189.838 29C189.444 29 189.094 28.8469 188.788 28.5408C188.482 28.2347 188.329 27.8848 188.329 27.4912C188.329 27.0757 188.482 26.7149 188.788 26.4088C189.072 26.1245 189.422 25.9824 189.838 25.9824C190.275 25.9824 190.636 26.1245 190.92 26.4088C191.204 26.6931 191.347 27.0539 191.347 27.4912C191.347 27.9067 191.204 28.2565 190.92 28.5408Z" fill="#434A47"/>
<path d="M199.179 9.0576C198.872 9.36373 198.512 9.5168 198.096 9.5168C197.703 9.5168 197.353 9.36373 197.047 9.0576C196.74 8.75147 196.587 8.4016 196.587 8.008C196.587 7.59253 196.74 7.23173 197.047 6.9256C197.331 6.64133 197.681 6.4992 198.096 6.4992C198.534 6.4992 198.894 6.64133 199.179 6.9256C199.463 7.20987 199.605 7.57067 199.605 8.008C199.605 8.42347 199.463 8.77333 199.179 9.0576ZM199.179 12.3048C198.872 12.6109 198.512 12.764 198.096 12.764C197.703 12.764 197.353 12.6109 197.047 12.3048C196.74 11.9987 196.587 11.6488 196.587 11.2552C196.587 10.8397 196.74 10.4789 197.047 10.1728C197.331 9.88853 197.681 9.7464 198.096 9.7464C198.534 9.7464 198.894 9.88853 199.179 10.1728C199.463 10.4571 199.605 10.8179 199.605 11.2552C199.605 11.6707 199.463 12.0205 199.179 12.3048ZM195.931 15.552C195.625 15.8581 195.264 16.0112 194.849 16.0112C194.455 16.0112 194.106 15.8581 193.799 15.552C193.493 15.2459 193.34 14.896 193.34 14.5024C193.34 14.0869 193.493 13.7261 193.799 13.42C194.084 13.1357 194.434 12.9936 194.849 12.9936C195.286 12.9936 195.647 13.1357 195.931 13.42C196.216 13.7043 196.358 14.0651 196.358 14.5024C196.358 14.9179 196.216 15.2677 195.931 15.552ZM199.179 15.552C198.872 15.8581 198.512 16.0112 198.096 16.0112C197.703 16.0112 197.353 15.8581 197.047 15.552C196.74 15.2459 196.587 14.896 196.587 14.5024C196.587 14.0869 196.74 13.7261 197.047 13.42C197.331 13.1357 197.681 12.9936 198.096 12.9936C198.534 12.9936 198.894 13.1357 199.179 13.42C199.463 13.7043 199.605 14.0651 199.605 14.5024C199.605 14.9179 199.463 15.2677 199.179 15.552ZM202.426 15.552C202.12 15.8581 201.759 16.0112 201.343 16.0112C200.95 16.0112 200.6 15.8581 200.294 15.552C199.988 15.2459 199.835 14.896 199.835 14.5024C199.835 14.0869 199.988 13.7261 200.294 13.42C200.578 13.1357 200.928 12.9936 201.343 12.9936C201.781 12.9936 202.142 13.1357 202.426 13.42C202.71 13.7043 202.852 14.0651 202.852 14.5024C202.852 14.9179 202.71 15.2677 202.426 15.552ZM205.673 15.552C205.367 15.8581 205.006 16.0112 204.591 16.0112C204.197 16.0112 203.847 15.8581 203.541 15.552C203.235 15.2459 203.082 14.896 203.082 14.5024C203.082 14.0869 203.235 13.7261 203.541 13.42C203.825 13.1357 204.175 12.9936 204.591 12.9936C205.028 12.9936 205.389 13.1357 205.673 13.42C205.957 13.7043 206.099 14.0651 206.099 14.5024C206.099 14.9179 205.957 15.2677 205.673 15.552ZM199.179 18.7992C198.872 19.1053 198.512 19.2584 198.096 19.2584C197.703 19.2584 197.353 19.1053 197.047 18.7992C196.74 18.4931 196.587 18.1432 196.587 17.7496C196.587 17.3341 196.74 16.9733 197.047 16.6672C197.331 16.3829 197.681 16.2408 198.096 16.2408C198.534 16.2408 198.894 16.3829 199.179 16.6672C199.463 16.9515 199.605 17.3123 199.605 17.7496C199.605 18.1651 199.463 18.5149 199.179 18.7992ZM199.179 22.0464C198.872 22.3525 198.512 22.5056 198.096 22.5056C197.703 22.5056 197.353 22.3525 197.047 22.0464C196.74 21.7403 196.587 21.3904 196.587 20.9968C196.587 20.5813 196.74 20.2205 197.047 19.9144C197.331 19.6301 197.681 19.488 198.096 19.488C198.534 19.488 198.894 19.6301 199.179 19.9144C199.463 20.1987 199.605 20.5595 199.605 20.9968C199.605 21.4123 199.463 21.7621 199.179 22.0464ZM199.179 25.2936C198.872 25.5997 198.512 25.7528 198.096 25.7528C197.703 25.7528 197.353 25.5997 197.047 25.2936C196.74 24.9875 196.587 24.6376 196.587 24.244C196.587 23.8285 196.74 23.4677 197.047 23.1616C197.331 22.8773 197.681 22.7352 198.096 22.7352C198.534 22.7352 198.894 22.8773 199.179 23.1616C199.463 23.4459 199.605 23.8067 199.605 24.244C199.605 24.6595 199.463 25.0093 199.179 25.2936ZM202.426 28.5408C202.12 28.8469 201.759 29 201.343 29C200.95 29 200.6 28.8469 200.294 28.5408C199.988 28.2347 199.835 27.8848 199.835 27.4912C199.835 27.0757 199.988 26.7149 200.294 26.4088C200.578 26.1245 200.928 25.9824 201.343 25.9824C201.781 25.9824 202.142 26.1245 202.426 26.4088C202.71 26.6931 202.852 27.0539 202.852 27.4912C202.852 27.9067 202.71 28.2565 202.426 28.5408ZM205.673 28.5408C205.367 28.8469 205.006 29 204.591 29C204.197 29 203.847 28.8469 203.541 28.5408C203.235 28.2347 203.082 27.8848 203.082 27.4912C203.082 27.0757 203.235 26.7149 203.541 26.4088C203.825 26.1245 204.175 25.9824 204.591 25.9824C205.028 25.9824 205.389 26.1245 205.673 26.4088C205.957 26.6931 206.099 27.0539 206.099 27.4912C206.099 27.9067 205.957 28.2565 205.673 28.5408Z" fill="#434A47"/>
<path d="M152.973 9.0576C152.667 9.36373 152.306 9.5168 151.89 9.5168C151.497 9.5168 151.147 9.36373 150.841 9.0576C150.535 8.75147 150.382 8.4016 150.382 8.008C150.382 7.59253 150.535 7.23173 150.841 6.9256C151.125 6.64133 151.475 6.4992 151.89 6.4992C152.328 6.4992 152.689 6.64133 152.973 6.9256C153.257 7.20987 153.399 7.57067 153.399 8.008C153.399 8.42347 153.257 8.77333 152.973 9.0576ZM149.726 15.552C149.419 15.8581 149.059 16.0112 148.643 16.0112C148.25 16.0112 147.9 15.8581 147.594 15.552C147.287 15.2459 147.134 14.896 147.134 14.5024C147.134 14.0869 147.287 13.7261 147.594 13.42C147.878 13.1357 148.228 12.9936 148.643 12.9936C149.081 12.9936 149.441 13.1357 149.726 13.42C150.01 13.7043 150.152 14.0651 150.152 14.5024C150.152 14.9179 150.01 15.2677 149.726 15.552ZM152.973 15.552C152.667 15.8581 152.306 16.0112 151.89 16.0112C151.497 16.0112 151.147 15.8581 150.841 15.552C150.535 15.2459 150.382 14.896 150.382 14.5024C150.382 14.0869 150.535 13.7261 150.841 13.42C151.125 13.1357 151.475 12.9936 151.89 12.9936C152.328 12.9936 152.689 13.1357 152.973 13.42C153.257 13.7043 153.399 14.0651 153.399 14.5024C153.399 14.9179 153.257 15.2677 152.973 15.552ZM152.973 18.7992C152.667 19.1053 152.306 19.2584 151.89 19.2584C151.497 19.2584 151.147 19.1053 150.841 18.7992C150.535 18.4931 150.382 18.1432 150.382 17.7496C150.382 17.3341 150.535 16.9733 150.841 16.6672C151.125 16.3829 151.475 16.2408 151.89 16.2408C152.328 16.2408 152.689 16.3829 152.973 16.6672C153.257 16.9515 153.399 17.3123 153.399 17.7496C153.399 18.1651 153.257 18.5149 152.973 18.7992ZM152.973 22.0464C152.667 22.3525 152.306 22.5056 151.89 22.5056C151.497 22.5056 151.147 22.3525 150.841 22.0464C150.535 21.7403 150.382 21.3904 150.382 20.9968C150.382 20.5813 150.535 20.2205 150.841 19.9144C151.125 19.6301 151.475 19.488 151.89 19.488C152.328 19.488 152.689 19.6301 152.973 19.9144C153.257 20.1987 153.399 20.5595 153.399 20.9968C153.399 21.4123 153.257 21.7621 152.973 22.0464ZM152.973 25.2936C152.667 25.5997 152.306 25.7528 151.89 25.7528C151.497 25.7528 151.147 25.5997 150.841 25.2936C150.535 24.9875 150.382 24.6376 150.382 24.244C150.382 23.8285 150.535 23.4677 150.841 23.1616C151.125 22.8773 151.475 22.7352 151.89 22.7352C152.328 22.7352 152.689 22.8773 152.973 23.1616C153.257 23.4459 153.399 23.8067 153.399 24.244C153.399 24.6595 153.257 25.0093 152.973 25.2936ZM143.231 28.5408C142.925 28.8469 142.564 29 142.149 29C141.755 29 141.405 28.8469 141.099 28.5408C140.793 28.2347 140.64 27.8848 140.64 27.4912C140.64 27.0757 140.793 26.7149 141.099 26.4088C141.383 26.1245 141.733 25.9824 142.149 25.9824C142.586 25.9824 142.947 26.1245 143.231 26.4088C143.515 26.6931 143.658 27.0539 143.658 27.4912C143.658 27.9067 143.515 28.2565 143.231 28.5408ZM152.973 28.5408C152.667 28.8469 152.306 29 151.89 29C151.497 29 151.147 28.8469 150.841 28.5408C150.535 28.2347 150.382 27.8848 150.382 27.4912C150.382 27.0757 150.535 26.7149 150.841 26.4088C151.125 26.1245 151.475 25.9824 151.89 25.9824C152.328 25.9824 152.689 26.1245 152.973 26.4088C153.257 26.6931 153.399 27.0539 153.399 27.4912C153.399 27.9067 153.257 28.2565 152.973 28.5408ZM146.905 30.7384C146.905 31.1757 146.763 31.5365 146.478 31.8208C146.194 32.1051 145.833 32.2472 145.396 32.2472C144.981 32.2472 144.631 32.1051 144.346 31.8208C144.04 31.5147 143.887 31.1539 143.887 30.7384C143.887 30.3448 144.04 29.9949 144.346 29.6888C144.653 29.3827 145.002 29.2296 145.396 29.2296C145.811 29.2296 146.172 29.3827 146.478 29.6888C146.763 29.9731 146.905 30.3229 146.905 30.7384ZM150.152 30.7384C150.152 31.1757 150.01 31.5365 149.726 31.8208C149.441 32.1051 149.081 32.2472 148.643 32.2472C148.228 32.2472 147.878 32.1051 147.594 31.8208C147.287 31.5147 147.134 31.1539 147.134 30.7384C147.134 30.3448 147.287 29.9949 147.594 29.6888C147.9 29.3827 148.25 29.2296 148.643 29.2296C149.059 29.2296 149.419 29.3827 149.726 29.6888C150.01 29.9731 150.152 30.3229 150.152 30.7384Z" fill="#434A47"/>
<path d="M162.179 15.552C161.872 15.8581 161.512 16.0112 161.096 16.0112C160.703 16.0112 160.353 15.8581 160.047 15.552C159.74 15.2459 159.587 14.896 159.587 14.5024C159.587 14.0869 159.74 13.7261 160.047 13.42C160.331 13.1357 160.681 12.9936 161.096 12.9936C161.534 12.9936 161.894 13.1357 162.179 13.42C162.463 13.7043 162.605 14.0651 162.605 14.5024C162.605 14.9179 162.463 15.2677 162.179 15.552ZM165.426 15.552C165.12 15.8581 164.759 16.0112 164.343 16.0112C163.95 16.0112 163.6 15.8581 163.294 15.552C162.988 15.2459 162.835 14.896 162.835 14.5024C162.835 14.0869 162.988 13.7261 163.294 13.42C163.578 13.1357 163.928 12.9936 164.343 12.9936C164.781 12.9936 165.142 13.1357 165.426 13.42C165.71 13.7043 165.852 14.0651 165.852 14.5024C165.852 14.9179 165.71 15.2677 165.426 15.552ZM168.673 15.552C168.367 15.8581 168.006 16.0112 167.591 16.0112C167.197 16.0112 166.847 15.8581 166.541 15.552C166.235 15.2459 166.082 14.896 166.082 14.5024C166.082 14.0869 166.235 13.7261 166.541 13.42C166.825 13.1357 167.175 12.9936 167.591 12.9936C168.028 12.9936 168.389 13.1357 168.673 13.42C168.957 13.7043 169.099 14.0651 169.099 14.5024C169.099 14.9179 168.957 15.2677 168.673 15.552ZM158.931 18.7992C158.625 19.1053 158.264 19.2584 157.849 19.2584C157.455 19.2584 157.106 19.1053 156.799 18.7992C156.493 18.4931 156.34 18.1432 156.34 17.7496C156.34 17.3341 156.493 16.9733 156.799 16.6672C157.084 16.3829 157.434 16.2408 157.849 16.2408C158.286 16.2408 158.647 16.3829 158.931 16.6672C159.216 16.9515 159.358 17.3123 159.358 17.7496C159.358 18.1651 159.216 18.5149 158.931 18.7992ZM171.92 18.7992C171.614 19.1053 171.253 19.2584 170.838 19.2584C170.444 19.2584 170.094 19.1053 169.788 18.7992C169.482 18.4931 169.329 18.1432 169.329 17.7496C169.329 17.3341 169.482 16.9733 169.788 16.6672C170.072 16.3829 170.422 16.2408 170.838 16.2408C171.275 16.2408 171.636 16.3829 171.92 16.6672C172.204 16.9515 172.347 17.3123 172.347 17.7496C172.347 18.1651 172.204 18.5149 171.92 18.7992ZM158.931 22.0464C158.625 22.3525 158.264 22.5056 157.849 22.5056C157.455 22.5056 157.106 22.3525 156.799 22.0464C156.493 21.7403 156.34 21.3904 156.34 20.9968C156.34 20.5813 156.493 20.2205 156.799 19.9144C157.084 19.6301 157.434 19.488 157.849 19.488C158.286 19.488 158.647 19.6301 158.931 19.9144C159.216 20.1987 159.358 20.5595 159.358 20.9968C159.358 21.4123 159.216 21.7621 158.931 22.0464ZM162.179 22.0464C161.872 22.3525 161.512 22.5056 161.096 22.5056C160.703 22.5056 160.353 22.3525 160.047 22.0464C159.74 21.7403 159.587 21.3904 159.587 20.9968C159.587 20.5813 159.74 20.2205 160.047 19.9144C160.331 19.6301 160.681 19.488 161.096 19.488C161.534 19.488 161.894 19.6301 162.179 19.9144C162.463 20.1987 162.605 20.5595 162.605 20.9968C162.605 21.4123 162.463 21.7621 162.179 22.0464ZM165.426 22.0464C165.12 22.3525 164.759 22.5056 164.343 22.5056C163.95 22.5056 163.6 22.3525 163.294 22.0464C162.988 21.7403 162.835 21.3904 162.835 20.9968C162.835 20.5813 162.988 20.2205 163.294 19.9144C163.578 19.6301 163.928 19.488 164.343 19.488C164.781 19.488 165.142 19.6301 165.426 19.9144C165.71 20.1987 165.852 20.5595 165.852 20.9968C165.852 21.4123 165.71 21.7621 165.426 22.0464ZM168.673 22.0464C168.367 22.3525 168.006 22.5056 167.591 22.5056C167.197 22.5056 166.847 22.3525 166.541 22.0464C166.235 21.7403 166.082 21.3904 166.082 20.9968C166.082 20.5813 166.235 20.2205 166.541 19.9144C166.825 19.6301 167.175 19.488 167.591 19.488C168.028 19.488 168.389 19.6301 168.673 19.9144C168.957 20.1987 169.099 20.5595 169.099 20.9968C169.099 21.4123 168.957 21.7621 168.673 22.0464ZM171.92 22.0464C171.614 22.3525 171.253 22.5056 170.838 22.5056C170.444 22.5056 170.094 22.3525 169.788 22.0464C169.482 21.7403 169.329 21.3904 169.329 20.9968C169.329 20.5813 169.482 20.2205 169.788 19.9144C170.072 19.6301 170.422 19.488 170.838 19.488C171.275 19.488 171.636 19.6301 171.92 19.9144C172.204 20.1987 172.347 20.5595 172.347 20.9968C172.347 21.4123 172.204 21.7621 171.92 22.0464ZM158.931 25.2936C158.625 25.5997 158.264 25.7528 157.849 25.7528C157.455 25.7528 157.106 25.5997 156.799 25.2936C156.493 24.9875 156.34 24.6376 156.34 24.244C156.34 23.8285 156.493 23.4677 156.799 23.1616C157.084 22.8773 157.434 22.7352 157.849 22.7352C158.286 22.7352 158.647 22.8773 158.931 23.1616C159.216 23.4459 159.358 23.8067 159.358 24.244C159.358 24.6595 159.216 25.0093 158.931 25.2936ZM162.179 28.5408C161.872 28.8469 161.512 29 161.096 29C160.703 29 160.353 28.8469 160.047 28.5408C159.74 28.2347 159.587 27.8848 159.587 27.4912C159.587 27.0757 159.74 26.7149 160.047 26.4088C160.331 26.1245 160.681 25.9824 161.096 25.9824C161.534 25.9824 161.894 26.1245 162.179 26.4088C162.463 26.6931 162.605 27.0539 162.605 27.4912C162.605 27.9067 162.463 28.2565 162.179 28.5408ZM165.426 28.5408C165.12 28.8469 164.759 29 164.343 29C163.95 29 163.6 28.8469 163.294 28.5408C162.988 28.2347 162.835 27.8848 162.835 27.4912C162.835 27.0757 162.988 26.7149 163.294 26.4088C163.578 26.1245 163.928 25.9824 164.343 25.9824C164.781 25.9824 165.142 26.1245 165.426 26.4088C165.71 26.6931 165.852 27.0539 165.852 27.4912C165.852 27.9067 165.71 28.2565 165.426 28.5408ZM168.673 28.5408C168.367 28.8469 168.006 29 167.591 29C167.197 29 166.847 28.8469 166.541 28.5408C166.235 28.2347 166.082 27.8848 166.082 27.4912C166.082 27.0757 166.235 26.7149 166.541 26.4088C166.825 26.1245 167.175 25.9824 167.591 25.9824C168.028 25.9824 168.389 26.1245 168.673 26.4088C168.957 26.6931 169.099 27.0539 169.099 27.4912C169.099 27.9067 168.957 28.2565 168.673 28.5408ZM171.92 28.5408C171.614 28.8469 171.253 29 170.838 29C170.444 29 170.094 28.8469 169.788 28.5408C169.482 28.2347 169.329 27.8848 169.329 27.4912C169.329 27.0757 169.482 26.7149 169.788 26.4088C170.072 26.1245 170.422 25.9824 170.838 25.9824C171.275 25.9824 171.636 26.1245 171.92 26.4088C172.204 26.6931 172.347 27.0539 172.347 27.4912C172.347 27.9067 172.204 28.2565 171.92 28.5408Z" fill="#434A47"/>
</svg>
