<svg id="Layer_2" data-name="Layer 2" xmlns="http://www.w3.org/2000/svg" viewBox="0 0 200 200"><defs><style>.cls-1{fill:none;}</style></defs><rect class="cls-1" x="178.26" y="5.2" width="13.1" height="13.1"/><circle cx="184.81" cy="11.75" r="5.47"/><rect class="cls-1" x="178.26" y="18.3" width="13.1" height="13.1"/><circle cx="184.81" cy="24.85" r="5.47"/><rect class="cls-1" x="178.26" y="31.4" width="13.1" height="13.1"/><circle cx="184.81" cy="37.95" r="5.47"/><rect class="cls-1" x="178.26" y="44.5" width="13.1" height="13.1"/><circle cx="184.81" cy="51.05" r="5.47"/><rect class="cls-1" x="178.26" y="57.6" width="13.1" height="13.1"/><circle cx="184.81" cy="64.15" r="5.47"/><rect class="cls-1" x="178.26" y="70.7" width="13.1" height="13.1"/><circle cx="184.81" cy="77.25" r="5.47"/><rect class="cls-1" x="178.26" y="83.8" width="13.1" height="13.1"/><circle cx="184.81" cy="90.35" r="5.47"/><rect class="cls-1" x="165.16" y="5.2" width="13.1" height="13.1"/><circle cx="171.71" cy="11.75" r="5.47"/><rect class="cls-1" x="165.16" y="18.3" width="13.1" height="13.1"/><circle cx="171.71" cy="24.85" r="5.47"/><rect class="cls-1" x="165.16" y="31.4" width="13.1" height="13.1"/><circle cx="171.71" cy="37.95" r="5.47"/><rect class="cls-1" x="165.16" y="44.5" width="13.1" height="13.1"/><circle cx="171.71" cy="51.05" r="5.47"/><rect class="cls-1" x="165.16" y="57.6" width="13.1" height="13.1"/><circle cx="171.71" cy="64.15" r="5.47"/><rect class="cls-1" x="165.16" y="70.7" width="13.1" height="13.1"/><circle cx="171.71" cy="77.25" r="5.47"/><rect class="cls-1" x="165.16" y="83.8" width="13.1" height="13.1"/><circle cx="171.71" cy="90.35" r="5.47"/><rect class="cls-1" x="152.06" y="5.2" width="13.1" height="13.1"/><circle cx="158.61" cy="11.75" r="5.47"/><rect class="cls-1" x="152.06" y="18.3" width="13.1" height="13.1"/><circle cx="158.61" cy="24.85" r="5.47"/><rect class="cls-1" x="152.06" y="31.4" width="13.1" height="13.1"/><circle cx="158.61" cy="37.95" r="5.47"/><rect class="cls-1" x="152.06" y="44.5" width="13.1" height="13.1"/><circle cx="158.61" cy="51.05" r="5.47"/><rect class="cls-1" x="152.06" y="57.6" width="13.1" height="13.1"/><rect class="cls-1" x="152.06" y="70.7" width="13.1" height="13.1"/><rect class="cls-1" x="138.96" y="5.2" width="13.1" height="13.1"/><circle cx="145.51" cy="11.75" r="5.47"/><rect class="cls-1" x="138.96" y="18.3" width="13.1" height="13.1"/><circle cx="145.51" cy="24.85" r="5.47"/><rect class="cls-1" x="138.96" y="31.4" width="13.1" height="13.1"/><circle cx="145.51" cy="37.95" r="5.47"/><rect class="cls-1" x="138.96" y="44.5" width="13.1" height="13.1"/><circle cx="145.51" cy="51.05" r="5.47"/><rect class="cls-1" x="138.96" y="57.6" width="13.1" height="13.1"/><circle cx="145.51" cy="64.15" r="5.47"/><rect class="cls-1" x="138.96" y="70.7" width="13.1" height="13.1"/><rect class="cls-1" x="125.86" y="5.2" width="13.1" height="13.1"/><circle cx="132.41" cy="11.75" r="5.47"/><rect class="cls-1" x="125.86" y="18.3" width="13.1" height="13.1"/><circle cx="132.41" cy="24.85" r="5.47"/><rect class="cls-1" x="125.86" y="31.4" width="13.1" height="13.1"/><rect class="cls-1" x="125.86" y="44.5" width="13.1" height="13.1"/><circle cx="132.41" cy="51.05" r="5.47"/><rect class="cls-1" x="125.86" y="57.6" width="13.1" height="13.1"/><circle cx="132.41" cy="64.15" r="5.47"/><rect class="cls-1" x="125.86" y="70.7" width="13.1" height="13.1"/><circle cx="132.41" cy="77.25" r="5.47"/><rect class="cls-1" x="125.86" y="83.8" width="13.1" height="13.1"/><rect class="cls-1" x="125.86" y="136.2" width="13.1" height="13.1"/><rect class="cls-1" x="125.86" y="149.3" width="13.1" height="13.1"/><circle cx="132.41" cy="155.85" r="5.47"/><rect class="cls-1" x="112.76" y="5.2" width="13.1" height="13.1"/><circle cx="119.31" cy="11.75" r="5.47"/><rect class="cls-1" x="112.76" y="18.3" width="13.1" height="13.1"/><circle cx="119.31" cy="24.85" r="5.47"/><rect class="cls-1" x="112.76" y="57.6" width="13.1" height="13.1"/><circle cx="119.31" cy="64.15" r="5.47"/><rect class="cls-1" x="112.76" y="70.7" width="13.1" height="13.1"/><circle cx="119.31" cy="77.25" r="5.47"/><rect class="cls-1" x="112.76" y="83.8" width="13.1" height="13.1"/><circle cx="119.31" cy="90.35" r="5.47"/><rect class="cls-1" x="112.76" y="136.2" width="13.1" height="13.1"/><circle cx="119.31" cy="142.75" r="5.47"/><rect class="cls-1" x="112.76" y="149.3" width="13.1" height="13.1"/><circle cx="119.31" cy="155.85" r="5.47"/><rect class="cls-1" x="99.66" y="5.2" width="13.1" height="13.1"/><circle cx="106.21" cy="11.75" r="5.47"/><rect class="cls-1" x="99.66" y="18.3" width="13.1" height="13.1"/><circle cx="106.21" cy="24.85" r="5.47"/><rect class="cls-1" x="99.66" y="70.7" width="13.1" height="13.1"/><circle cx="106.21" cy="77.25" r="5.47"/><rect class="cls-1" x="99.66" y="83.8" width="13.1" height="13.1"/><circle cx="106.21" cy="90.35" r="5.47"/><rect class="cls-1" x="99.66" y="96.9" width="13.1" height="13.1"/><circle cx="106.21" cy="103.45" r="5.47"/><rect class="cls-1" x="99.66" y="110" width="13.1" height="13.1"/><rect class="cls-1" x="99.66" y="123.1" width="13.1" height="13.1"/><circle cx="106.21" cy="129.65" r="5.47"/><rect class="cls-1" x="99.66" y="136.2" width="13.1" height="13.1"/><circle cx="106.21" cy="142.75" r="5.47"/><rect class="cls-1" x="86.56" y="83.8" width="13.1" height="13.1"/><circle cx="93.11" cy="90.35" r="5.47"/><rect class="cls-1" x="86.56" y="96.9" width="13.1" height="13.1"/><circle cx="93.11" cy="103.45" r="5.47"/><rect class="cls-1" x="86.56" y="110" width="13.1" height="13.1"/><circle cx="93.11" cy="116.55" r="5.47"/><rect class="cls-1" x="86.56" y="123.1" width="13.1" height="13.1"/><circle cx="93.11" cy="129.65" r="5.47"/><rect class="cls-1" x="86.56" y="136.2" width="13.1" height="13.1"/><rect class="cls-1" x="73.46" y="83.8" width="13.1" height="13.1"/><rect class="cls-1" x="73.46" y="96.9" width="13.1" height="13.1"/><circle cx="80.01" cy="103.45" r="5.47"/><rect class="cls-1" x="73.46" y="110" width="13.1" height="13.1"/><circle cx="80.01" cy="116.55" r="5.47"/><rect class="cls-1" x="73.46" y="123.1" width="13.1" height="13.1"/><circle cx="80.01" cy="129.65" r="5.47"/><rect class="cls-1" x="60.36" y="83.8" width="13.1" height="13.1"/><circle cx="66.91" cy="90.35" r="5.47"/><rect class="cls-1" x="60.36" y="96.9" width="13.1" height="13.1"/><circle cx="66.91" cy="103.45" r="5.47"/><rect class="cls-1" x="60.36" y="110" width="13.1" height="13.1"/><circle cx="66.91" cy="116.55" r="5.47"/><rect class="cls-1" x="60.36" y="123.1" width="13.1" height="13.1"/><circle cx="66.91" cy="129.65" r="5.47"/><rect class="cls-1" x="60.36" y="136.2" width="13.1" height="13.1"/><circle cx="66.91" cy="142.75" r="5.47"/><rect class="cls-1" x="60.36" y="149.3" width="13.1" height="13.1"/><rect class="cls-1" x="47.26" y="70.7" width="13.1" height="13.1"/><circle cx="53.81" cy="77.25" r="5.47"/><rect class="cls-1" x="47.26" y="83.8" width="13.1" height="13.1"/><circle cx="53.81" cy="90.35" r="5.47"/><circle cx="53.81" cy="129.65" r="5.47"/><rect class="cls-1" x="47.26" y="136.2" width="13.1" height="13.1"/><circle cx="53.81" cy="142.75" r="5.47"/><rect class="cls-1" x="47.26" y="149.3" width="13.1" height="13.1"/><circle cx="53.81" cy="155.85" r="5.47"/><rect class="cls-1" x="34.16" y="70.7" width="13.1" height="13.1"/><circle cx="40.71" cy="77.25" r="5.47"/><rect class="cls-1" x="34.16" y="83.8" width="13.1" height="13.1"/><rect class="cls-1" x="34.16" y="136.2" width="13.1" height="13.1"/><circle cx="40.71" cy="142.75" r="5.47"/><rect class="cls-1" x="34.16" y="149.3" width="13.1" height="13.1"/><circle cx="40.71" cy="155.85" r="5.47"/><rect class="cls-1" x="34.16" y="162.4" width="13.1" height="13.1"/><circle cx="40.71" cy="168.95" r="5.47"/><rect class="cls-1" x="34.16" y="175.5" width="13.1" height="13.1"/><rect class="cls-1" x="21.06" y="149.3" width="13.1" height="13.1"/><circle cx="27.61" cy="155.85" r="5.47"/><rect class="cls-1" x="21.06" y="162.4" width="13.1" height="13.1"/><circle cx="27.61" cy="168.95" r="5.47"/><rect class="cls-1" x="21.06" y="175.5" width="13.1" height="13.1"/><circle cx="27.61" cy="182.05" r="5.47"/><rect class="cls-1" x="7.96" y="162.4" width="13.1" height="13.1"/><circle cx="14.51" cy="168.95" r="5.47"/><rect class="cls-1" x="7.96" y="175.5" width="13.1" height="13.1"/><circle cx="14.51" cy="182.05" r="5.47"/></svg>