<svg xmlns="http://www.w3.org/2000/svg" viewBox="0 0 200 200"><defs><style>.cls-1{fill:none;}</style></defs><g id="Layer_2" data-name="Layer 2"><rect class="cls-1" x="186.67" width="13.33" height="13.33"/><circle cx="193.33" cy="6.67" r="5.57"/><rect class="cls-1" x="173.33" width="13.33" height="13.33"/><circle cx="180" cy="6.67" r="5.57"/><rect class="cls-1" x="160" width="13.33" height="13.33"/><circle cx="166.67" cy="6.67" r="5.57"/><rect class="cls-1" x="160" y="13.33" width="13.33" height="13.33"/><circle cx="166.67" cy="20" r="5.57"/><rect class="cls-1" x="160" y="80" width="13.33" height="13.33"/><circle cx="166.67" cy="86.67" r="5.57"/><rect class="cls-1" x="160" y="93.33" width="13.33" height="13.33"/><circle cx="166.67" cy="100" r="5.57"/><rect class="cls-1" x="160" y="106.67" width="13.33" height="13.33"/><circle cx="166.67" cy="113.33" r="5.57"/><rect class="cls-1" x="160" y="120" width="13.33" height="13.33"/><circle cx="166.67" cy="126.67" r="5.57"/><rect class="cls-1" x="160" y="133.33" width="13.33" height="13.33"/><circle cx="166.67" cy="140" r="5.57"/><rect class="cls-1" x="160" y="146.67" width="13.33" height="13.33"/><circle cx="166.67" cy="153.33" r="5.57"/><rect class="cls-1" x="146.67" y="13.33" width="13.33" height="13.33"/><circle cx="153.33" cy="20" r="5.57"/><rect class="cls-1" x="146.67" y="26.67" width="13.33" height="13.33"/><circle cx="153.33" cy="33.33" r="5.57"/><rect class="cls-1" x="146.67" y="40" width="13.33" height="13.33"/><circle cx="153.33" cy="46.67" r="5.57"/><rect class="cls-1" x="146.67" y="66.67" width="13.33" height="13.33"/><circle cx="153.33" cy="73.33" r="5.57"/><rect class="cls-1" x="146.67" y="80" width="13.33" height="13.33"/><circle cx="153.33" cy="86.67" r="5.57"/><rect class="cls-1" x="146.67" y="93.33" width="13.33" height="13.33"/><circle cx="153.33" cy="100" r="5.57"/><rect class="cls-1" x="146.67" y="106.67" width="13.33" height="13.33"/><circle cx="153.33" cy="113.33" r="5.57"/><rect class="cls-1" x="146.67" y="120" width="13.33" height="13.33"/><circle cx="153.33" cy="126.67" r="5.57"/><rect class="cls-1" x="146.67" y="133.33" width="13.33" height="13.33"/><circle cx="153.33" cy="140" r="5.57"/><rect class="cls-1" x="146.67" y="146.67" width="13.33" height="13.33"/><circle cx="153.33" cy="153.33" r="5.57"/><rect class="cls-1" x="146.67" y="160" width="13.33" height="13.33"/><circle cx="153.33" cy="166.67" r="5.57"/><rect class="cls-1" x="133.33" y="26.67" width="13.33" height="13.33"/><circle cx="140" cy="33.33" r="5.57"/><rect class="cls-1" x="133.33" y="40" width="13.33" height="13.33"/><circle cx="140" cy="46.67" r="5.57"/><rect class="cls-1" x="133.33" y="53.33" width="13.33" height="13.33"/><circle cx="140" cy="60" r="5.57"/><rect class="cls-1" x="133.33" y="66.67" width="13.33" height="13.33"/><circle cx="140" cy="73.33" r="5.57"/><rect class="cls-1" x="133.33" y="80" width="13.33" height="13.33"/><circle cx="140" cy="86.67" r="5.57"/><rect class="cls-1" x="133.33" y="160" width="13.33" height="13.33"/><circle cx="140" cy="166.67" r="5.57"/><rect class="cls-1" x="133.33" y="173.33" width="13.33" height="13.33"/><circle cx="140" cy="180" r="5.57"/><rect class="cls-1" x="120" y="40" width="13.33" height="13.33"/><circle cx="126.67" cy="46.67" r="5.57"/><rect class="cls-1" x="120" y="53.33" width="13.33" height="13.33"/><circle cx="126.67" cy="60" r="5.57"/><rect class="cls-1" x="120" y="66.67" width="13.33" height="13.33"/><circle cx="126.67" cy="73.33" r="5.57"/><rect class="cls-1" x="120" y="173.33" width="13.33" height="13.33"/><circle cx="126.67" cy="180" r="5.57"/><rect class="cls-1" x="120" y="186.67" width="13.33" height="13.33"/><circle cx="126.67" cy="193.33" r="5.57"/><rect class="cls-1" x="106.67" y="40" width="13.33" height="13.33"/><circle cx="113.33" cy="46.67" r="5.57"/><rect class="cls-1" x="106.67" y="53.33" width="13.33" height="13.33"/><circle cx="113.33" cy="60" r="5.57"/><rect class="cls-1" x="106.67" y="173.33" width="13.33" height="13.33"/><circle cx="113.33" cy="180" r="5.57"/><rect class="cls-1" x="106.67" y="186.67" width="13.33" height="13.33"/><circle cx="113.33" cy="193.33" r="5.57"/><rect class="cls-1" x="93.33" y="40" width="13.33" height="13.33"/><circle cx="100" cy="46.67" r="5.57"/><rect class="cls-1" x="93.33" y="53.33" width="13.33" height="13.33"/><circle cx="100" cy="60" r="5.57"/><rect class="cls-1" x="93.33" y="173.33" width="13.33" height="13.33"/><circle cx="100" cy="180" r="5.57"/><rect class="cls-1" x="93.33" y="186.67" width="13.33" height="13.33"/><circle cx="100" cy="193.33" r="5.57"/><rect class="cls-1" x="80" y="40" width="13.33" height="13.33"/><circle cx="86.67" cy="46.67" r="5.57"/><rect class="cls-1" x="80" y="53.33" width="13.33" height="13.33"/><circle cx="86.67" cy="60" r="5.57"/><rect class="cls-1" x="80" y="173.33" width="13.33" height="13.33"/><circle cx="86.67" cy="180" r="5.57"/><rect class="cls-1" x="80" y="186.67" width="13.33" height="13.33"/><circle cx="86.67" cy="193.33" r="5.57"/><rect class="cls-1" x="66.67" y="40" width="13.33" height="13.33"/><circle cx="73.33" cy="46.67" r="5.57"/><rect class="cls-1" x="66.67" y="53.33" width="13.33" height="13.33"/><circle cx="73.33" cy="60" r="5.57"/><rect class="cls-1" x="66.67" y="66.67" width="13.33" height="13.33"/><circle cx="73.33" cy="73.33" r="5.57"/><rect class="cls-1" x="66.67" y="173.33" width="13.33" height="13.33"/><circle cx="73.33" cy="180" r="5.57"/><rect class="cls-1" x="66.67" y="186.67" width="13.33" height="13.33"/><circle cx="73.33" cy="193.33" r="5.57"/><rect class="cls-1" x="53.33" y="26.67" width="13.33" height="13.33"/><circle cx="60" cy="33.33" r="5.57"/><rect class="cls-1" x="53.33" y="40" width="13.33" height="13.33"/><circle cx="60" cy="46.67" r="5.57"/><rect class="cls-1" x="53.33" y="53.33" width="13.33" height="13.33"/><circle cx="60" cy="60" r="5.57"/><rect class="cls-1" x="53.33" y="66.67" width="13.33" height="13.33"/><circle cx="60" cy="73.33" r="5.57"/><rect class="cls-1" x="53.33" y="80" width="13.33" height="13.33"/><circle cx="60" cy="86.67" r="5.57"/><rect class="cls-1" x="53.33" y="160" width="13.33" height="13.33"/><circle cx="60" cy="166.67" r="5.57"/><rect class="cls-1" x="53.33" y="173.33" width="13.33" height="13.33"/><circle cx="60" cy="180" r="5.57"/><rect class="cls-1" x="40" y="13.33" width="13.33" height="13.33"/><circle cx="46.67" cy="20" r="5.57"/><rect class="cls-1" x="40" y="26.67" width="13.33" height="13.33"/><circle cx="46.67" cy="33.33" r="5.57"/><rect class="cls-1" x="40" y="40" width="13.33" height="13.33"/><circle cx="46.67" cy="46.67" r="5.57"/><rect class="cls-1" x="40" y="66.67" width="13.33" height="13.33"/><circle cx="46.67" cy="73.33" r="5.57"/><rect class="cls-1" x="40" y="80" width="13.33" height="13.33"/><circle cx="46.67" cy="86.67" r="5.57"/><rect class="cls-1" x="40" y="93.33" width="13.33" height="13.33"/><circle cx="46.67" cy="100" r="5.57"/><rect class="cls-1" x="40" y="106.67" width="13.33" height="13.33"/><circle cx="46.67" cy="113.33" r="5.57"/><rect class="cls-1" x="40" y="120" width="13.33" height="13.33"/><circle cx="46.67" cy="126.67" r="5.57"/><rect class="cls-1" x="40" y="133.33" width="13.33" height="13.33"/><circle cx="46.67" cy="140" r="5.57"/><rect class="cls-1" x="40" y="146.67" width="13.33" height="13.33"/><circle cx="46.67" cy="153.33" r="5.57"/><rect class="cls-1" x="40" y="160" width="13.33" height="13.33"/><circle cx="46.67" cy="166.67" r="5.57"/><rect class="cls-1" x="26.67" width="13.33" height="13.33"/><circle cx="33.33" cy="6.67" r="5.57"/><rect class="cls-1" x="26.67" y="13.33" width="13.33" height="13.33"/><circle cx="33.33" cy="20" r="5.57"/><rect class="cls-1" x="26.67" y="80" width="13.33" height="13.33"/><circle cx="33.33" cy="86.67" r="5.57"/><rect class="cls-1" x="26.67" y="93.33" width="13.33" height="13.33"/><circle cx="33.33" cy="100" r="5.57"/><rect class="cls-1" x="26.67" y="106.67" width="13.33" height="13.33"/><circle cx="33.33" cy="113.33" r="5.57"/><rect class="cls-1" x="26.67" y="120" width="13.33" height="13.33"/><circle cx="33.33" cy="126.67" r="5.57"/><rect class="cls-1" x="26.67" y="133.33" width="13.33" height="13.33"/><circle cx="33.33" cy="140" r="5.57"/><rect class="cls-1" x="26.67" y="146.67" width="13.33" height="13.33"/><circle cx="33.33" cy="153.33" r="5.57"/><rect class="cls-1" x="13.33" width="13.33" height="13.33"/><circle cx="20" cy="6.67" r="5.57"/><rect class="cls-1" width="13.33" height="13.33"/><circle cx="6.67" cy="6.67" r="5.57"/></g></svg>