<svg id="Layer_2" data-name="Layer 2" xmlns="http://www.w3.org/2000/svg" viewBox="0 0 200 200"><defs><style>.cls-1{fill:none;}</style></defs><rect class="cls-1" x="180" y="147.61" width="10" height="10"/><rect class="cls-1" x="170" y="137.61" width="10" height="10"/><circle cx="135" cy="152.61" r="4.18"/><rect class="cls-1" x="170" y="147.61" width="10" height="10"/><circle cx="175" cy="152.61" r="4.18"/><rect class="cls-1" x="170" y="157.61" width="10" height="10"/><circle cx="115" cy="152.49" r="4.18"/><rect class="cls-1" x="160" y="147.61" width="10" height="10"/><circle cx="165" cy="152.61" r="4.18"/><rect class="cls-1" x="150" y="137.61" width="10" height="10"/><circle cx="155" cy="142.61" r="4.18"/><rect class="cls-1" x="140" y="47.61" width="10" height="10"/><rect class="cls-1" x="140" y="57.61" width="10" height="10"/><circle cx="145" cy="62.61" r="4.18"/><rect class="cls-1" x="140" y="67.61" width="10" height="10"/><circle cx="145" cy="72.61" r="4.18"/><rect class="cls-1" x="140" y="77.61" width="10" height="10"/><circle cx="145" cy="82.61" r="4.18"/><rect class="cls-1" x="140" y="87.61" width="10" height="10"/><circle cx="145" cy="92.61" r="4.18"/><rect class="cls-1" x="140" y="97.61" width="10" height="10"/><circle cx="145" cy="102.61" r="4.18"/><rect class="cls-1" x="140" y="107.61" width="10" height="10"/><circle cx="145" cy="112.61" r="4.18"/><rect class="cls-1" x="140" y="117.61" width="10" height="10"/><circle cx="145" cy="122.61" r="4.18"/><rect class="cls-1" x="140" y="127.61" width="10" height="10"/><circle cx="145" cy="132.61" r="4.18"/><rect class="cls-1" x="140" y="137.61" width="10" height="10"/><circle cx="145" cy="142.61" r="4.18"/><rect class="cls-1" x="130" y="47.61" width="10" height="10"/><circle cx="135" cy="52.61" r="4.18"/><rect class="cls-1" x="120" y="47.61" width="10" height="10"/><circle cx="125" cy="52.61" r="4.18"/><rect class="cls-1" x="110" y="47.61" width="10" height="10"/><circle cx="115" cy="52.61" r="4.18"/><rect class="cls-1" x="110" y="57.61" width="10" height="10"/><circle cx="115" cy="62.61" r="4.18"/><rect class="cls-1" x="110" y="67.61" width="10" height="10"/><circle cx="115" cy="72.61" r="4.18"/><rect class="cls-1" x="100" y="67.61" width="10" height="10"/><circle cx="105" cy="72.61" r="4.18"/><rect class="cls-1" x="100" y="77.61" width="10" height="10"/><circle cx="105" cy="82.61" r="4.18"/><rect class="cls-1" x="100" y="87.61" width="10" height="10"/><circle cx="105" cy="92.61" r="4.18"/><rect class="cls-1" x="100" y="97.61" width="10" height="10"/><circle cx="105" cy="102.61" r="4.18"/><rect class="cls-1" x="100" y="107.61" width="10" height="10"/><circle cx="105" cy="112.61" r="4.18"/><rect class="cls-1" x="100" y="117.61" width="10" height="10"/><circle cx="105" cy="122.61" r="4.18"/><rect class="cls-1" x="100" y="127.61" width="10" height="10"/><circle cx="105" cy="132.61" r="4.18"/><rect class="cls-1" x="90" y="47.61" width="10" height="10"/><circle cx="95" cy="52.61" r="4.18"/><rect class="cls-1" x="90" y="57.61" width="10" height="10"/><circle cx="95" cy="62.61" r="4.18"/><rect class="cls-1" x="90" y="67.61" width="10" height="10"/><circle cx="95" cy="72.61" r="4.18"/><rect class="cls-1" x="90" y="77.61" width="10" height="10"/><circle cx="95" cy="82.61" r="4.18"/><rect class="cls-1" x="90" y="87.61" width="10" height="10"/><circle cx="95" cy="92.61" r="4.18"/><rect class="cls-1" x="90" y="97.61" width="10" height="10"/><circle cx="95" cy="102.61" r="4.18"/><rect class="cls-1" x="90" y="107.61" width="10" height="10"/><circle cx="95" cy="112.61" r="4.18"/><rect class="cls-1" x="90" y="117.61" width="10" height="10"/><circle cx="95" cy="122.61" r="4.18"/><rect class="cls-1" x="90" y="127.61" width="10" height="10"/><circle cx="95" cy="132.61" r="4.18"/><rect class="cls-1" x="80" y="47.61" width="10" height="10"/><circle cx="85" cy="52.61" r="4.18"/><rect class="cls-1" x="80" y="57.61" width="10" height="10"/><circle cx="85" cy="62.61" r="4.18"/><rect class="cls-1" x="70" y="47.61" width="10" height="10"/><circle cx="75" cy="52.61" r="4.18"/><rect class="cls-1" x="70" y="57.61" width="10" height="10"/><circle cx="75" cy="62.61" r="4.18"/><rect class="cls-1" x="60" y="57.61" width="10" height="10"/><circle cx="65" cy="62.61" r="4.18"/><rect class="cls-1" x="60" y="67.61" width="10" height="10"/><circle cx="65" cy="72.61" r="4.18"/><rect class="cls-1" x="60" y="77.61" width="10" height="10"/><circle cx="65" cy="82.61" r="4.18"/><rect class="cls-1" x="50" y="77.61" width="10" height="10"/><circle cx="55" cy="82.61" r="4.18"/><rect class="cls-1" x="50" y="87.61" width="10" height="10"/><circle cx="55" cy="92.61" r="4.18"/><rect class="cls-1" x="50" y="97.61" width="10" height="10"/><circle cx="55" cy="102.61" r="4.18"/><rect class="cls-1" x="50" y="107.61" width="10" height="10"/><circle cx="55" cy="112.61" r="4.18"/><rect class="cls-1" x="50" y="117.61" width="10" height="10"/><circle cx="55" cy="122.61" r="4.18"/><rect class="cls-1" x="50" y="127.61" width="10" height="10"/><circle cx="55" cy="132.61" r="4.18"/><rect class="cls-1" x="40" y="47.61" width="10" height="10"/><circle cx="45" cy="52.61" r="4.18"/><rect class="cls-1" x="40" y="57.61" width="10" height="10"/><circle cx="45" cy="62.61" r="4.18"/><rect class="cls-1" x="40" y="67.61" width="10" height="10"/><circle cx="45" cy="72.61" r="4.18"/><rect class="cls-1" x="40" y="77.61" width="10" height="10"/><circle cx="45" cy="82.61" r="4.18"/><rect class="cls-1" x="40" y="87.61" width="10" height="10"/><circle cx="45" cy="92.61" r="4.18"/><rect class="cls-1" x="40" y="97.61" width="10" height="10"/><circle cx="45" cy="102.61" r="4.18"/><rect class="cls-1" x="40" y="107.61" width="10" height="10"/><circle cx="45" cy="112.61" r="4.18"/><rect class="cls-1" x="40" y="117.61" width="10" height="10"/><circle cx="45" cy="122.61" r="4.18"/><rect class="cls-1" x="40" y="127.61" width="10" height="10"/><circle cx="45" cy="132.61" r="4.18"/><rect class="cls-1" x="30" y="47.61" width="10" height="10"/><circle cx="35" cy="52.61" r="4.18"/><rect class="cls-1" x="20" y="47.61" width="10" height="10"/><circle cx="25" cy="52.61" r="4.18"/><rect class="cls-1" x="10" y="47.61" width="10" height="10"/><circle cx="15" cy="52.61" r="4.18"/><rect class="cls-1" x="10" y="57.61" width="10" height="10"/><circle cx="15" cy="62.61" r="4.18"/><rect class="cls-1" x="150" y="147.61" width="10" height="10"/><circle cx="155" cy="152.61" r="4.18"/><rect class="cls-1" x="130" y="57.62" width="10" height="10"/><circle cx="135" cy="62.62" r="4.18"/><rect class="cls-1" x="130" y="67.62" width="10" height="10"/><circle cx="135" cy="72.62" r="4.18"/><rect class="cls-1" x="130" y="77.62" width="10" height="10"/><circle cx="135" cy="82.62" r="4.18"/><rect class="cls-1" x="130" y="87.62" width="10" height="10"/><circle cx="135" cy="92.62" r="4.18"/><rect class="cls-1" x="130" y="97.62" width="10" height="10"/><circle cx="135" cy="102.62" r="4.18"/><rect class="cls-1" x="130" y="107.62" width="10" height="10"/><circle cx="135" cy="112.62" r="4.18"/><rect class="cls-1" x="130" y="117.62" width="10" height="10"/><circle cx="135" cy="122.62" r="4.18"/><rect class="cls-1" x="130" y="127.62" width="10" height="10"/><circle cx="135" cy="132.62" r="4.18"/><circle cx="155" cy="82.61" r="4.18"/><circle cx="165" cy="92.62" r="4.18"/><circle cx="165" cy="102.62" r="4.18"/><circle cx="155" cy="132.62" r="4.18"/><circle cx="165" cy="122.2" r="4.18"/><circle cx="165" cy="112.61" r="4.18"/><circle cx="125" cy="152.49" r="4.18"/></svg>