<svg id="Layer_2" data-name="Layer 2" xmlns="http://www.w3.org/2000/svg" viewBox="0 0 200 200"><defs><style>.cls-1{fill:none;}</style></defs><rect class="cls-1" x="187.08" y="62.77" width="12.41" height="12.41"/><circle cx="193.28" cy="68.97" r="5.18"/><rect class="cls-1" x="173.65" y="62.77" width="12.41" height="12.41"/><circle cx="179.85" cy="68.97" r="5.18"/><rect class="cls-1" x="173.65" y="75.18" width="12.41" height="12.41"/><circle cx="179.85" cy="81.38" r="5.18"/><rect class="cls-1" x="161.24" y="87.59" width="12.41" height="12.41"/><circle cx="167.44" cy="93.8" r="5.18"/><rect class="cls-1" x="161.24" y="75.18" width="12.41" height="12.41"/><circle cx="167.44" cy="81.38" r="5.18"/><rect class="cls-1" x="148.83" y="87.59" width="12.41" height="12.41"/><circle cx="155.03" cy="93.8" r="5.18"/><rect class="cls-1" x="148.83" y="75.18" width="12.41" height="12.41"/><circle cx="155.03" cy="81.38" r="5.18"/><rect class="cls-1" x="136.42" y="62.77" width="12.41" height="12.41"/><circle cx="142.62" cy="68.97" r="5.18"/><rect class="cls-1" x="136.42" y="75.18" width="12.41" height="12.41"/><circle cx="142.62" cy="81.38" r="5.18"/><rect class="cls-1" x="124.01" y="50.36" width="12.41" height="12.41"/><circle cx="130.21" cy="56.56" r="5.18"/><rect class="cls-1" x="124.01" y="62.77" width="12.41" height="12.41"/><circle cx="130.21" cy="68.97" r="5.18"/><rect class="cls-1" x="111.6" y="62.77" width="12.41" height="12.41"/><circle cx="117.8" cy="68.97" r="5.18"/><rect class="cls-1" x="111.6" y="50.36" width="12.41" height="12.41"/><circle cx="117.8" cy="56.56" r="5.18"/><rect class="cls-1" x="99.18" y="62.77" width="12.41" height="12.41"/><circle cx="105.39" cy="68.97" r="5.18"/><rect class="cls-1" x="99.18" y="75.18" width="12.41" height="12.41"/><circle cx="105.39" cy="81.38" r="5.18"/><rect class="cls-1" x="86.77" y="75.18" width="12.41" height="12.41"/><circle cx="92.98" cy="81.38" r="5.18"/><rect class="cls-1" x="86.77" y="87.59" width="12.41" height="12.41"/><circle cx="92.98" cy="93.8" r="5.18"/><rect class="cls-1" x="74.36" y="75.18" width="12.41" height="12.41"/><circle cx="80.57" cy="81.38" r="5.18"/><rect class="cls-1" x="74.36" y="87.59" width="12.41" height="12.41"/><circle cx="80.57" cy="93.8" r="5.18"/><rect class="cls-1" x="61.95" y="62.77" width="12.41" height="12.41"/><circle cx="68.16" cy="68.97" r="5.18"/><rect class="cls-1" x="61.95" y="75.18" width="12.41" height="12.41"/><circle cx="68.16" cy="81.38" r="5.18"/><rect class="cls-1" x="49.54" y="50.36" width="12.41" height="12.41"/><circle cx="55.75" cy="56.56" r="5.18"/><rect class="cls-1" x="49.54" y="62.77" width="12.41" height="12.41"/><circle cx="55.75" cy="68.97" r="5.18"/><rect class="cls-1" x="37.13" y="50.36" width="12.41" height="12.41"/><circle cx="43.34" cy="56.56" r="5.18"/><rect class="cls-1" x="37.13" y="62.77" width="12.41" height="12.41"/><circle cx="43.34" cy="68.97" r="5.18"/><rect class="cls-1" x="24.72" y="62.77" width="12.41" height="12.41"/><circle cx="30.93" cy="68.97" r="5.18"/><rect class="cls-1" x="24.72" y="75.18" width="12.41" height="12.41"/><circle cx="30.93" cy="81.38" r="5.18"/><rect class="cls-1" x="12.31" y="75.18" width="12.41" height="12.41"/><circle cx="18.52" cy="81.38" r="5.18"/><rect class="cls-1" x="12.31" y="87.59" width="12.41" height="12.41"/><circle cx="18.52" cy="93.8" r="5.18"/><rect class="cls-1" x="-0.1" y="87.59" width="12.41" height="12.41"/><circle cx="6.11" cy="93.8" r="5.18"/><rect class="cls-1" x="187.08" y="112.41" width="12.41" height="12.41"/><circle cx="193.28" cy="118.62" r="5.18"/><rect class="cls-1" x="173.65" y="112.41" width="12.41" height="12.41"/><circle cx="179.85" cy="118.62" r="5.18"/><rect class="cls-1" x="173.65" y="124.82" width="12.41" height="12.41"/><circle cx="179.85" cy="131.03" r="5.18"/><rect class="cls-1" x="161.24" y="137.23" width="12.41" height="12.41"/><circle cx="167.44" cy="143.44" r="5.18"/><rect class="cls-1" x="161.24" y="124.82" width="12.41" height="12.41"/><circle cx="167.44" cy="131.03" r="5.18"/><rect class="cls-1" x="148.83" y="137.23" width="12.41" height="12.41"/><circle cx="155.03" cy="143.44" r="5.18"/><rect class="cls-1" x="148.83" y="124.82" width="12.41" height="12.41"/><circle cx="155.03" cy="131.03" r="5.18"/><rect class="cls-1" x="136.42" y="112.41" width="12.41" height="12.41"/><circle cx="142.62" cy="118.62" r="5.18"/><rect class="cls-1" x="136.42" y="124.82" width="12.41" height="12.41"/><circle cx="142.62" cy="131.03" r="5.18"/><rect class="cls-1" x="124.01" y="100" width="12.41" height="12.41"/><circle cx="130.21" cy="106.21" r="5.18"/><rect class="cls-1" x="124.01" y="112.41" width="12.41" height="12.41"/><circle cx="130.21" cy="118.62" r="5.18"/><rect class="cls-1" x="111.6" y="112.41" width="12.41" height="12.41"/><circle cx="117.8" cy="118.62" r="5.18"/><rect class="cls-1" x="111.6" y="100" width="12.41" height="12.41"/><circle cx="117.8" cy="106.21" r="5.18"/><rect class="cls-1" x="99.18" y="112.41" width="12.41" height="12.41"/><circle cx="105.39" cy="118.62" r="5.18"/><rect class="cls-1" x="99.18" y="124.82" width="12.41" height="12.41"/><circle cx="105.39" cy="131.03" r="5.18"/><rect class="cls-1" x="86.77" y="124.82" width="12.41" height="12.41"/><circle cx="92.98" cy="131.03" r="5.18"/><rect class="cls-1" x="86.77" y="137.23" width="12.41" height="12.41"/><circle cx="92.98" cy="143.44" r="5.18"/><rect class="cls-1" x="74.36" y="124.82" width="12.41" height="12.41"/><circle cx="80.57" cy="131.03" r="5.18"/><rect class="cls-1" x="74.36" y="137.23" width="12.41" height="12.41"/><circle cx="80.57" cy="143.44" r="5.18"/><rect class="cls-1" x="61.95" y="112.41" width="12.41" height="12.41"/><circle cx="68.16" cy="118.62" r="5.18"/><rect class="cls-1" x="61.95" y="124.82" width="12.41" height="12.41"/><circle cx="68.16" cy="131.03" r="5.18"/><rect class="cls-1" x="49.54" y="100" width="12.41" height="12.41"/><circle cx="55.75" cy="106.21" r="5.18"/><rect class="cls-1" x="49.54" y="112.41" width="12.41" height="12.41"/><circle cx="55.75" cy="118.62" r="5.18"/><rect class="cls-1" x="37.13" y="100" width="12.41" height="12.41"/><circle cx="43.34" cy="106.21" r="5.18"/><rect class="cls-1" x="37.13" y="112.41" width="12.41" height="12.41"/><circle cx="43.34" cy="118.62" r="5.18"/><rect class="cls-1" x="24.72" y="112.41" width="12.41" height="12.41"/><circle cx="30.93" cy="118.62" r="5.18"/><rect class="cls-1" x="24.72" y="124.82" width="12.41" height="12.41"/><circle cx="30.93" cy="131.03" r="5.18"/><rect class="cls-1" x="12.31" y="124.82" width="12.41" height="12.41"/><circle cx="18.52" cy="131.03" r="5.18"/><rect class="cls-1" x="12.31" y="137.23" width="12.41" height="12.41"/><circle cx="18.52" cy="143.44" r="5.18"/><rect class="cls-1" x="-0.1" y="137.23" width="12.41" height="12.41"/><circle cx="6.11" cy="143.44" r="5.18"/></svg>