<svg id="Layer_2" data-name="Layer 2" xmlns="http://www.w3.org/2000/svg" viewBox="0 0 200 200"><defs><style>.cls-1{fill:none;}</style></defs><rect class="cls-1" x="154.5" y="166.7" width="11.1" height="11.1"/><circle cx="160.06" cy="172.25" r="4.64"/><rect class="cls-1" x="154.5" y="177.8" width="11.1" height="11.1"/><circle cx="160.06" cy="183.35" r="4.64"/><rect class="cls-1" x="143.4" y="22.38" width="11.1" height="11.1"/><circle cx="148.95" cy="27.93" r="4.64"/><rect class="cls-1" x="143.4" y="33.48" width="11.1" height="11.1"/><circle cx="148.95" cy="39.03" r="4.64"/><rect class="cls-1" x="143.4" y="44.58" width="11.1" height="11.1"/><circle cx="148.95" cy="50.13" r="4.64"/><rect class="cls-1" x="143.4" y="55.68" width="11.1" height="11.1"/><circle cx="148.95" cy="61.23" r="4.64"/><rect class="cls-1" x="143.4" y="66.79" width="11.1" height="11.1"/><circle cx="148.95" cy="72.34" r="4.64"/><rect class="cls-1" x="143.4" y="166.7" width="11.1" height="11.1"/><circle cx="148.95" cy="172.25" r="4.64"/><rect class="cls-1" x="143.4" y="177.8" width="11.1" height="11.1"/><circle cx="148.95" cy="183.35" r="4.64"/><rect class="cls-1" x="143.4" y="188.9" width="11.1" height="11.1"/><circle cx="148.95" cy="194.45" r="4.64"/><rect class="cls-1" x="132.3" y="11.28" width="11.1" height="11.1"/><circle cx="137.85" cy="16.83" r="4.64"/><rect class="cls-1" x="132.3" y="22.38" width="11.1" height="11.1"/><circle cx="137.85" cy="27.93" r="4.64"/><rect class="cls-1" x="132.3" y="33.48" width="11.1" height="11.1"/><circle cx="137.85" cy="39.03" r="4.64"/><rect class="cls-1" x="132.3" y="44.58" width="11.1" height="11.1"/><circle cx="137.85" cy="50.13" r="4.64"/><rect class="cls-1" x="132.3" y="55.68" width="11.1" height="11.1"/><circle cx="137.85" cy="61.23" r="4.64"/><rect class="cls-1" x="132.3" y="66.79" width="11.1" height="11.1"/><circle cx="137.85" cy="72.34" r="4.64"/><rect class="cls-1" x="132.3" y="77.89" width="11.1" height="11.1"/><circle cx="137.85" cy="83.44" r="4.64"/><rect class="cls-1" x="132.3" y="88.99" width="11.1" height="11.1"/><circle cx="137.85" cy="94.54" r="4.64"/><rect class="cls-1" x="132.3" y="100.09" width="11.1" height="11.1"/><circle cx="137.85" cy="105.64" r="4.64"/><rect class="cls-1" x="132.3" y="177.8" width="11.1" height="11.1"/><circle cx="137.85" cy="183.35" r="4.64"/><rect class="cls-1" x="132.3" y="188.9" width="11.1" height="11.1"/><circle cx="137.85" cy="194.45" r="4.64"/><rect class="cls-1" x="121.2" y="0.18" width="11.1" height="11.1"/><circle cx="126.75" cy="5.73" r="4.64"/><rect class="cls-1" x="121.2" y="11.28" width="11.1" height="11.1"/><circle cx="126.75" cy="16.83" r="4.64"/><rect class="cls-1" x="121.2" y="22.38" width="11.1" height="11.1"/><circle cx="126.75" cy="27.93" r="4.64"/><rect class="cls-1" x="121.2" y="77.89" width="11.1" height="11.1"/><circle cx="126.75" cy="83.44" r="4.64"/><rect class="cls-1" x="121.2" y="88.99" width="11.1" height="11.1"/><circle cx="126.75" cy="94.54" r="4.64"/><rect class="cls-1" x="121.2" y="100.09" width="11.1" height="11.1"/><circle cx="126.75" cy="105.64" r="4.64"/><rect class="cls-1" x="121.2" y="111.19" width="11.1" height="11.1"/><circle cx="126.75" cy="116.74" r="4.64"/><rect class="cls-1" x="121.2" y="122.29" width="11.1" height="11.1"/><circle cx="126.75" cy="127.84" r="4.64"/><rect class="cls-1" x="121.2" y="133.39" width="11.1" height="11.1"/><circle cx="126.75" cy="138.94" r="4.64"/><rect class="cls-1" x="121.2" y="177.8" width="11.1" height="11.1"/><circle cx="126.75" cy="183.35" r="4.64"/><rect class="cls-1" x="121.2" y="188.9" width="11.1" height="11.1"/><circle cx="126.75" cy="194.45" r="4.64"/><rect class="cls-1" x="110.1" y="0.18" width="11.1" height="11.1"/><circle cx="115.65" cy="5.73" r="4.64"/><rect class="cls-1" x="110.1" y="11.28" width="11.1" height="11.1"/><circle cx="115.65" cy="16.83" r="4.64"/><rect class="cls-1" x="110.1" y="111.19" width="11.1" height="11.1"/><circle cx="115.65" cy="116.74" r="4.64"/><rect class="cls-1" x="110.1" y="122.29" width="11.1" height="11.1"/><circle cx="115.65" cy="127.84" r="4.64"/><rect class="cls-1" x="110.1" y="133.39" width="11.1" height="11.1"/><circle cx="115.65" cy="138.94" r="4.64"/><rect class="cls-1" x="110.1" y="144.49" width="11.1" height="11.1"/><circle cx="115.65" cy="150.04" r="4.64"/><rect class="cls-1" x="110.1" y="155.6" width="11.1" height="11.1"/><circle cx="115.65" cy="161.15" r="4.64"/><rect class="cls-1" x="110.1" y="166.7" width="11.1" height="11.1"/><circle cx="115.65" cy="172.25" r="4.64"/><rect class="cls-1" x="110.1" y="177.8" width="11.1" height="11.1"/><circle cx="115.65" cy="183.35" r="4.64"/><rect class="cls-1" x="110.1" y="188.9" width="11.1" height="11.1"/><circle cx="115.65" cy="194.45" r="4.64"/><rect class="cls-1" x="99" y="0.18" width="11.1" height="11.1"/><circle cx="104.55" cy="5.73" r="4.64"/><rect class="cls-1" x="99" y="11.28" width="11.1" height="11.1"/><circle cx="104.55" cy="16.83" r="4.64"/><rect class="cls-1" x="99" y="144.49" width="11.1" height="11.1"/><circle cx="104.55" cy="150.04" r="4.64"/><rect class="cls-1" x="99" y="155.6" width="11.1" height="11.1"/><circle cx="104.55" cy="161.15" r="4.64"/><rect class="cls-1" x="99" y="166.7" width="11.1" height="11.1"/><circle cx="104.55" cy="172.25" r="4.64"/><rect class="cls-1" x="99" y="177.8" width="11.1" height="11.1"/><circle cx="104.55" cy="183.35" r="4.64"/><rect class="cls-1" x="87.9" y="0.18" width="11.1" height="11.1"/><circle cx="93.45" cy="5.73" r="4.64"/><rect class="cls-1" x="87.9" y="11.28" width="11.1" height="11.1"/><circle cx="93.45" cy="16.83" r="4.64"/><rect class="cls-1" x="87.9" y="88.99" width="11.1" height="11.1"/><circle cx="93.45" cy="94.54" r="4.64"/><rect class="cls-1" x="87.9" y="100.09" width="11.1" height="11.1"/><circle cx="93.45" cy="105.64" r="4.64"/><rect class="cls-1" x="87.9" y="111.19" width="11.1" height="11.1"/><circle cx="93.45" cy="116.74" r="4.64"/><rect class="cls-1" x="87.9" y="122.29" width="11.1" height="11.1"/><circle cx="93.45" cy="127.84" r="4.64"/><rect class="cls-1" x="87.9" y="133.39" width="11.1" height="11.1"/><circle cx="93.45" cy="138.94" r="4.64"/><rect class="cls-1" x="87.9" y="144.49" width="11.1" height="11.1"/><circle cx="93.45" cy="150.04" r="4.64"/><rect class="cls-1" x="76.8" y="0.18" width="11.1" height="11.1"/><circle cx="82.35" cy="5.73" r="4.64"/><rect class="cls-1" x="76.8" y="11.28" width="11.1" height="11.1"/><circle cx="82.35" cy="16.83" r="4.64"/><rect class="cls-1" x="76.8" y="22.38" width="11.1" height="11.1"/><circle cx="82.35" cy="27.93" r="4.64"/><rect class="cls-1" x="76.8" y="66.79" width="11.1" height="11.1"/><circle cx="82.35" cy="72.34" r="4.64"/><rect class="cls-1" x="76.8" y="77.89" width="11.1" height="11.1"/><circle cx="82.35" cy="83.44" r="4.64"/><rect class="cls-1" x="76.8" y="88.99" width="11.1" height="11.1"/><circle cx="82.35" cy="94.54" r="4.64"/><rect class="cls-1" x="76.8" y="100.09" width="11.1" height="11.1"/><circle cx="82.35" cy="105.64" r="4.64"/><rect class="cls-1" x="76.8" y="111.19" width="11.1" height="11.1"/><circle cx="82.35" cy="116.74" r="4.64"/><rect class="cls-1" x="76.8" y="122.29" width="11.1" height="11.1"/><circle cx="82.35" cy="127.84" r="4.64"/><rect class="cls-1" x="76.8" y="133.39" width="11.1" height="11.1"/><circle cx="82.35" cy="138.94" r="4.64"/><rect class="cls-1" x="76.8" y="144.49" width="11.1" height="11.1"/><circle cx="82.35" cy="150.04" r="4.64"/><rect class="cls-1" x="76.8" y="155.6" width="11.1" height="11.1"/><circle cx="82.35" cy="161.15" r="4.64"/><rect class="cls-1" x="65.69" y="11.28" width="11.1" height="11.1"/><circle cx="71.25" cy="16.83" r="4.64"/><rect class="cls-1" x="65.69" y="22.38" width="11.1" height="11.1"/><circle cx="71.25" cy="27.93" r="4.64"/><rect class="cls-1" x="65.69" y="33.48" width="11.1" height="11.1"/><circle cx="71.25" cy="39.03" r="4.64"/><rect class="cls-1" x="65.69" y="44.58" width="11.1" height="11.1"/><circle cx="71.25" cy="50.13" r="4.64"/><rect class="cls-1" x="65.69" y="55.68" width="11.1" height="11.1"/><circle cx="71.25" cy="61.23" r="4.64"/><rect class="cls-1" x="65.69" y="66.79" width="11.1" height="11.1"/><circle cx="71.25" cy="72.34" r="4.64"/><rect class="cls-1" x="65.69" y="77.89" width="11.1" height="11.1"/><circle cx="71.25" cy="83.44" r="4.64"/><rect class="cls-1" x="65.69" y="100.09" width="11.1" height="11.1"/><circle cx="71.25" cy="105.64" r="4.64"/><rect class="cls-1" x="65.69" y="111.19" width="11.1" height="11.1"/><circle cx="71.25" cy="116.74" r="4.64"/><rect class="cls-1" x="65.69" y="144.49" width="11.1" height="11.1"/><circle cx="71.25" cy="150.04" r="4.64"/><rect class="cls-1" x="65.69" y="155.6" width="11.1" height="11.1"/><circle cx="71.25" cy="161.15" r="4.64"/><rect class="cls-1" x="54.59" y="22.38" width="11.1" height="11.1"/><circle cx="60.14" cy="27.93" r="4.64"/><rect class="cls-1" x="54.59" y="33.48" width="11.1" height="11.1"/><circle cx="60.14" cy="39.03" r="4.64"/><rect class="cls-1" x="54.59" y="44.58" width="11.1" height="11.1"/><circle cx="60.14" cy="50.13" r="4.64"/><rect class="cls-1" x="54.59" y="55.68" width="11.1" height="11.1"/><circle cx="60.14" cy="61.23" r="4.64"/><rect class="cls-1" x="54.59" y="100.09" width="11.1" height="11.1"/><circle cx="60.14" cy="105.64" r="4.64"/><rect class="cls-1" x="54.59" y="111.19" width="11.1" height="11.1"/><circle cx="60.14" cy="116.74" r="4.64"/><rect class="cls-1" x="54.59" y="144.49" width="11.1" height="11.1"/><circle cx="60.14" cy="150.04" r="4.64"/><rect class="cls-1" x="54.59" y="155.6" width="11.1" height="11.1"/><circle cx="60.14" cy="161.15" r="4.64"/><rect class="cls-1" x="43.49" y="100.09" width="11.1" height="11.1"/><circle cx="49.04" cy="105.64" r="4.64"/><rect class="cls-1" x="43.49" y="111.19" width="11.1" height="11.1"/><circle cx="49.04" cy="116.74" r="4.64"/><rect class="cls-1" x="43.49" y="122.29" width="11.1" height="11.1"/><circle cx="49.04" cy="127.84" r="4.64"/><rect class="cls-1" x="43.49" y="133.39" width="11.1" height="11.1"/><circle cx="49.04" cy="138.94" r="4.64"/><rect class="cls-1" x="43.49" y="144.49" width="11.1" height="11.1"/><circle cx="49.04" cy="150.04" r="4.64"/><rect class="cls-1" x="43.49" y="155.6" width="11.1" height="11.1"/><circle cx="49.04" cy="161.15" r="4.64"/><rect class="cls-1" x="32.39" y="111.19" width="11.1" height="11.1"/><circle cx="37.94" cy="116.74" r="4.64"/><rect class="cls-1" x="32.39" y="122.29" width="11.1" height="11.1"/><circle cx="37.94" cy="127.84" r="4.64"/><rect class="cls-1" x="32.39" y="133.39" width="11.1" height="11.1"/><circle cx="37.94" cy="138.94" r="4.64"/><rect class="cls-1" x="32.39" y="144.49" width="11.1" height="11.1"/><circle cx="37.94" cy="150.04" r="4.64"/></svg>