<svg id="Layer_2" data-name="Layer 2" xmlns="http://www.w3.org/2000/svg" viewBox="0 0 200 200"><defs><style>.cls-1{fill:none;}</style></defs><rect class="cls-1" x="166.68" width="12.5" height="12.5"/><circle cx="172.93" cy="6.25" r="5.22"/><rect class="cls-1" x="166.68" y="12.5" width="12.5" height="12.5"/><circle cx="172.93" cy="18.75" r="5.22"/><rect class="cls-1" x="166.68" y="87.5" width="12.5" height="12.5"/><circle cx="172.93" cy="93.75" r="5.22"/><rect class="cls-1" x="166.68" y="100" width="12.5" height="12.5"/><circle cx="172.93" cy="106.25" r="5.22"/><rect class="cls-1" x="166.68" y="175" width="12.5" height="12.5"/><circle cx="172.93" cy="181.25" r="5.22"/><rect class="cls-1" x="166.68" y="187.5" width="12.5" height="12.5"/><circle cx="172.93" cy="193.75" r="5.22"/><rect class="cls-1" x="154.18" width="12.5" height="12.5"/><circle cx="160.43" cy="6.25" r="5.22"/><rect class="cls-1" x="154.18" y="12.5" width="12.5" height="12.5"/><circle cx="160.43" cy="18.75" r="5.22"/><rect class="cls-1" x="154.18" y="25" width="12.5" height="12.5"/><circle cx="160.43" cy="31.25" r="5.22"/><rect class="cls-1" x="154.18" y="37.5" width="12.5" height="12.5"/><circle cx="160.43" cy="43.75" r="5.22"/><rect class="cls-1" x="154.18" y="87.5" width="12.5" height="12.5"/><circle cx="160.43" cy="93.75" r="5.22"/><rect class="cls-1" x="154.18" y="100" width="12.5" height="12.5"/><circle cx="160.43" cy="106.25" r="5.22"/><rect class="cls-1" x="154.18" y="150" width="12.5" height="12.5"/><circle cx="160.43" cy="156.25" r="5.22"/><rect class="cls-1" x="154.18" y="162.5" width="12.5" height="12.5"/><circle cx="160.43" cy="168.75" r="5.22"/><rect class="cls-1" x="154.18" y="175" width="12.5" height="12.5"/><circle cx="160.43" cy="181.25" r="5.22"/><rect class="cls-1" x="154.18" y="187.5" width="12.5" height="12.5"/><circle cx="160.43" cy="193.75" r="5.22"/><rect class="cls-1" x="141.68" y="25" width="12.5" height="12.5"/><circle cx="147.93" cy="31.25" r="5.22"/><rect class="cls-1" x="141.68" y="37.5" width="12.5" height="12.5"/><circle cx="147.93" cy="43.75" r="5.22"/><rect class="cls-1" x="141.68" y="50" width="12.5" height="12.5"/><circle cx="147.93" cy="56.25" r="5.22"/><rect class="cls-1" x="141.68" y="62.5" width="12.5" height="12.5"/><circle cx="147.93" cy="68.75" r="5.22"/><rect class="cls-1" x="141.68" y="75" width="12.5" height="12.5"/><circle cx="147.93" cy="81.25" r="5.22"/><rect class="cls-1" x="141.68" y="87.5" width="12.5" height="12.5"/><circle cx="147.93" cy="93.75" r="5.22"/><rect class="cls-1" x="141.68" y="100" width="12.5" height="12.5"/><circle cx="147.93" cy="106.25" r="5.22"/><rect class="cls-1" x="141.68" y="112.5" width="12.5" height="12.5"/><circle cx="147.93" cy="118.75" r="5.22"/><rect class="cls-1" x="141.68" y="125" width="12.5" height="12.5"/><circle cx="147.93" cy="131.25" r="5.22"/><rect class="cls-1" x="141.68" y="137.5" width="12.5" height="12.5"/><circle cx="147.93" cy="143.75" r="5.22"/><rect class="cls-1" x="141.68" y="150" width="12.5" height="12.5"/><circle cx="147.93" cy="156.25" r="5.22"/><rect class="cls-1" x="141.68" y="162.5" width="12.5" height="12.5"/><circle cx="147.93" cy="168.75" r="5.22"/><rect class="cls-1" x="129.18" y="50" width="12.5" height="12.5"/><circle cx="135.43" cy="56.25" r="5.22"/><rect class="cls-1" x="129.18" y="62.5" width="12.5" height="12.5"/><circle cx="135.43" cy="68.75" r="5.22"/><rect class="cls-1" x="129.18" y="75" width="12.5" height="12.5"/><circle cx="135.43" cy="81.25" r="5.22"/><rect class="cls-1" x="129.18" y="87.5" width="12.5" height="12.5"/><circle cx="135.43" cy="93.75" r="5.22"/><rect class="cls-1" x="129.18" y="100" width="12.5" height="12.5"/><circle cx="135.43" cy="106.25" r="5.22"/><rect class="cls-1" x="129.18" y="112.5" width="12.5" height="12.5"/><circle cx="135.43" cy="118.75" r="5.22"/><rect class="cls-1" x="129.18" y="125" width="12.5" height="12.5"/><circle cx="135.43" cy="131.25" r="5.22"/><rect class="cls-1" x="129.18" y="137.5" width="12.5" height="12.5"/><circle cx="135.43" cy="143.75" r="5.22"/><rect class="cls-1" x="116.68" y="87.5" width="12.5" height="12.5"/><circle cx="122.93" cy="93.75" r="5.22"/><rect class="cls-1" x="116.68" y="100" width="12.5" height="12.5"/><circle cx="122.93" cy="106.25" r="5.22"/><rect class="cls-1" x="104.18" y="87.5" width="12.5" height="12.5"/><circle cx="110.43" cy="93.75" r="5.22"/><rect class="cls-1" x="104.18" y="100" width="12.5" height="12.5"/><circle cx="110.43" cy="106.25" r="5.22"/><rect class="cls-1" x="91.68" y="87.5" width="12.5" height="12.5"/><circle cx="97.93" cy="93.75" r="5.22"/><rect class="cls-1" x="91.68" y="100" width="12.5" height="12.5"/><circle cx="97.93" cy="106.25" r="5.22"/><rect class="cls-1" x="79.18" y="87.5" width="12.5" height="12.5"/><circle cx="85.43" cy="93.75" r="5.22"/><rect class="cls-1" x="79.18" y="100" width="12.5" height="12.5"/><circle cx="85.43" cy="106.25" r="5.22"/><rect class="cls-1" x="66.68" y="50" width="12.5" height="12.5"/><circle cx="72.93" cy="56.25" r="5.22"/><rect class="cls-1" x="66.68" y="62.5" width="12.5" height="12.5"/><circle cx="72.93" cy="68.75" r="5.22"/><rect class="cls-1" x="66.68" y="75" width="12.5" height="12.5"/><circle cx="72.93" cy="81.25" r="5.22"/><rect class="cls-1" x="66.68" y="87.5" width="12.5" height="12.5"/><circle cx="72.93" cy="93.75" r="5.22"/><rect class="cls-1" x="66.68" y="100" width="12.5" height="12.5"/><circle cx="72.93" cy="106.25" r="5.22"/><rect class="cls-1" x="66.68" y="112.5" width="12.5" height="12.5"/><circle cx="72.93" cy="118.75" r="5.22"/><rect class="cls-1" x="66.68" y="125" width="12.5" height="12.5"/><circle cx="72.93" cy="131.25" r="5.22"/><rect class="cls-1" x="66.68" y="137.5" width="12.5" height="12.5"/><circle cx="72.93" cy="143.75" r="5.22"/><rect class="cls-1" x="54.18" y="25" width="12.5" height="12.5"/><circle cx="60.43" cy="31.25" r="5.22"/><rect class="cls-1" x="54.18" y="37.5" width="12.5" height="12.5"/><circle cx="60.43" cy="43.75" r="5.22"/><rect class="cls-1" x="54.18" y="50" width="12.5" height="12.5"/><circle cx="60.43" cy="56.25" r="5.22"/><rect class="cls-1" x="54.18" y="62.5" width="12.5" height="12.5"/><circle cx="60.43" cy="68.75" r="5.22"/><rect class="cls-1" x="54.18" y="75" width="12.5" height="12.5"/><circle cx="60.43" cy="81.25" r="5.22"/><rect class="cls-1" x="54.18" y="87.5" width="12.5" height="12.5"/><circle cx="60.43" cy="93.75" r="5.22"/><rect class="cls-1" x="54.18" y="100" width="12.5" height="12.5"/><circle cx="60.43" cy="106.25" r="5.22"/><rect class="cls-1" x="54.18" y="112.5" width="12.5" height="12.5"/><circle cx="60.43" cy="118.75" r="5.22"/><rect class="cls-1" x="54.18" y="125" width="12.5" height="12.5"/><circle cx="60.43" cy="131.25" r="5.22"/><rect class="cls-1" x="54.18" y="137.5" width="12.5" height="12.5"/><circle cx="60.43" cy="143.75" r="5.22"/><rect class="cls-1" x="54.18" y="150" width="12.5" height="12.5"/><circle cx="60.43" cy="156.25" r="5.22"/><rect class="cls-1" x="54.18" y="162.5" width="12.5" height="12.5"/><circle cx="60.43" cy="168.75" r="5.22"/><rect class="cls-1" x="41.68" width="12.5" height="12.5"/><circle cx="47.93" cy="6.25" r="5.22"/><rect class="cls-1" x="41.68" y="12.5" width="12.5" height="12.5"/><circle cx="47.93" cy="18.75" r="5.22"/><rect class="cls-1" x="41.68" y="25" width="12.5" height="12.5"/><circle cx="47.93" cy="31.25" r="5.22"/><rect class="cls-1" x="41.68" y="37.5" width="12.5" height="12.5"/><circle cx="47.93" cy="43.75" r="5.22"/><rect class="cls-1" x="41.68" y="87.5" width="12.5" height="12.5"/><circle cx="47.93" cy="93.75" r="5.22"/><rect class="cls-1" x="41.68" y="100" width="12.5" height="12.5"/><circle cx="47.93" cy="106.25" r="5.22"/><rect class="cls-1" x="41.68" y="150" width="12.5" height="12.5"/><circle cx="47.93" cy="156.25" r="5.22"/><rect class="cls-1" x="41.68" y="162.5" width="12.5" height="12.5"/><circle cx="47.93" cy="168.75" r="5.22"/><rect class="cls-1" x="41.68" y="175" width="12.5" height="12.5"/><circle cx="47.93" cy="181.25" r="5.22"/><rect class="cls-1" x="41.68" y="187.5" width="12.5" height="12.5"/><circle cx="47.93" cy="193.75" r="5.22"/><rect class="cls-1" x="29.18" width="12.5" height="12.5"/><circle cx="35.43" cy="6.25" r="5.22"/><rect class="cls-1" x="29.18" y="12.5" width="12.5" height="12.5"/><circle cx="35.43" cy="18.75" r="5.22"/><rect class="cls-1" x="29.18" y="87.5" width="12.5" height="12.5"/><circle cx="35.43" cy="93.75" r="5.22"/><rect class="cls-1" x="29.18" y="100" width="12.5" height="12.5"/><circle cx="35.43" cy="106.25" r="5.22"/><rect class="cls-1" x="29.18" y="175" width="12.5" height="12.5"/><circle cx="35.43" cy="181.25" r="5.22"/><rect class="cls-1" x="29.18" y="187.5" width="12.5" height="12.5"/><circle cx="35.43" cy="193.75" r="5.22"/></svg>