<svg id="Layer_2" data-name="Layer 2" xmlns="http://www.w3.org/2000/svg" viewBox="0 0 200 200"><defs><style>.cls-1{fill:none;}</style></defs><rect class="cls-1" x="180" y="150" width="10" height="10"/><circle cx="185" cy="155" r="4.18"/><rect class="cls-1" x="170" y="140" width="10" height="10"/><circle cx="175" cy="145" r="4.18"/><rect class="cls-1" x="170" y="150" width="10" height="10"/><circle cx="175" cy="155" r="4.18"/><rect class="cls-1" x="170" y="160" width="10" height="10"/><circle cx="175" cy="165" r="4.18"/><rect class="cls-1" x="160" y="150" width="10" height="10"/><circle cx="165" cy="155" r="4.18"/><rect class="cls-1" x="150" y="140" width="10" height="10"/><circle cx="155" cy="145" r="4.18"/><rect class="cls-1" x="140" y="50" width="10" height="10"/><circle cx="145" cy="55" r="4.18"/><rect class="cls-1" x="140" y="60" width="10" height="10"/><circle cx="145" cy="65" r="4.18"/><rect class="cls-1" x="140" y="70" width="10" height="10"/><circle cx="145" cy="75" r="4.18"/><rect class="cls-1" x="140" y="80" width="10" height="10"/><circle cx="145" cy="85" r="4.18"/><rect class="cls-1" x="140" y="90" width="10" height="10"/><circle cx="145" cy="95" r="4.18"/><rect class="cls-1" x="140" y="100" width="10" height="10"/><circle cx="145" cy="105" r="4.18"/><rect class="cls-1" x="140" y="110" width="10" height="10"/><circle cx="145" cy="115" r="4.18"/><rect class="cls-1" x="140" y="120" width="10" height="10"/><circle cx="145" cy="125" r="4.18"/><rect class="cls-1" x="140" y="130" width="10" height="10"/><circle cx="145" cy="135" r="4.18"/><rect class="cls-1" x="140" y="140" width="10" height="10"/><circle cx="145" cy="145" r="4.18"/><rect class="cls-1" x="130" y="50" width="10" height="10"/><circle cx="135" cy="55" r="4.18"/><rect class="cls-1" x="120" y="50" width="10" height="10"/><circle cx="125" cy="55" r="4.18"/><rect class="cls-1" x="110" y="50" width="10" height="10"/><circle cx="115" cy="55" r="4.18"/><rect class="cls-1" x="110" y="60" width="10" height="10"/><circle cx="115" cy="65" r="4.18"/><rect class="cls-1" x="110" y="70" width="10" height="10"/><circle cx="115" cy="75" r="4.18"/><rect class="cls-1" x="100" y="70" width="10" height="10"/><circle cx="105" cy="75" r="4.18"/><rect class="cls-1" x="100" y="80" width="10" height="10"/><circle cx="105" cy="85" r="4.18"/><rect class="cls-1" x="100" y="90" width="10" height="10"/><circle cx="105" cy="95" r="4.18"/><rect class="cls-1" x="100" y="100" width="10" height="10"/><circle cx="105" cy="105" r="4.18"/><rect class="cls-1" x="100" y="110" width="10" height="10"/><circle cx="105" cy="115" r="4.18"/><rect class="cls-1" x="100" y="120" width="10" height="10"/><circle cx="105" cy="125" r="4.18"/><rect class="cls-1" x="100" y="130" width="10" height="10"/><circle cx="105" cy="135" r="4.18"/><rect class="cls-1" x="90" y="50" width="10" height="10"/><circle cx="95" cy="55" r="4.18"/><rect class="cls-1" x="90" y="60" width="10" height="10"/><circle cx="95" cy="65" r="4.18"/><rect class="cls-1" x="90" y="70" width="10" height="10"/><circle cx="95" cy="75" r="4.18"/><rect class="cls-1" x="90" y="80" width="10" height="10"/><circle cx="95" cy="85" r="4.18"/><rect class="cls-1" x="90" y="90" width="10" height="10"/><circle cx="95" cy="95" r="4.18"/><rect class="cls-1" x="90" y="100" width="10" height="10"/><circle cx="95" cy="105" r="4.18"/><rect class="cls-1" x="90" y="110" width="10" height="10"/><circle cx="95" cy="115" r="4.18"/><rect class="cls-1" x="90" y="120" width="10" height="10"/><circle cx="95" cy="125" r="4.18"/><rect class="cls-1" x="90" y="130" width="10" height="10"/><circle cx="95" cy="135" r="4.18"/><rect class="cls-1" x="80" y="50" width="10" height="10"/><circle cx="85" cy="55" r="4.18"/><rect class="cls-1" x="80" y="60" width="10" height="10"/><circle cx="85" cy="65" r="4.18"/><rect class="cls-1" x="70" y="50" width="10" height="10"/><circle cx="75" cy="55" r="4.18"/><rect class="cls-1" x="70" y="60" width="10" height="10"/><circle cx="75" cy="65" r="4.18"/><rect class="cls-1" x="60" y="60" width="10" height="10"/><circle cx="65" cy="65" r="4.18"/><rect class="cls-1" x="60" y="70" width="10" height="10"/><circle cx="65" cy="75" r="4.18"/><rect class="cls-1" x="60" y="80" width="10" height="10"/><circle cx="65" cy="85" r="4.18"/><rect class="cls-1" x="50" y="80" width="10" height="10"/><circle cx="55" cy="85" r="4.18"/><rect class="cls-1" x="50" y="90" width="10" height="10"/><circle cx="55" cy="95" r="4.18"/><rect class="cls-1" x="50" y="100" width="10" height="10"/><circle cx="55" cy="105" r="4.18"/><rect class="cls-1" x="50" y="110" width="10" height="10"/><circle cx="55" cy="115" r="4.18"/><rect class="cls-1" x="50" y="120" width="10" height="10"/><circle cx="55" cy="125" r="4.18"/><rect class="cls-1" x="50" y="130" width="10" height="10"/><circle cx="55" cy="135" r="4.18"/><rect class="cls-1" x="40" y="50" width="10" height="10"/><circle cx="45" cy="55" r="4.18"/><rect class="cls-1" x="40" y="60" width="10" height="10"/><circle cx="45" cy="65" r="4.18"/><rect class="cls-1" x="40" y="70" width="10" height="10"/><circle cx="45" cy="75" r="4.18"/><rect class="cls-1" x="40" y="80" width="10" height="10"/><circle cx="45" cy="85" r="4.18"/><rect class="cls-1" x="40" y="90" width="10" height="10"/><circle cx="45" cy="95" r="4.18"/><rect class="cls-1" x="40" y="100" width="10" height="10"/><circle cx="45" cy="105" r="4.18"/><rect class="cls-1" x="40" y="110" width="10" height="10"/><circle cx="45" cy="115" r="4.18"/><rect class="cls-1" x="40" y="120" width="10" height="10"/><circle cx="45" cy="125" r="4.18"/><rect class="cls-1" x="40" y="130" width="10" height="10"/><circle cx="45" cy="135" r="4.18"/><rect class="cls-1" x="30" y="50" width="10" height="10"/><circle cx="35" cy="55" r="4.18"/><rect class="cls-1" x="20" y="50" width="10" height="10"/><circle cx="25" cy="55" r="4.18"/><rect class="cls-1" x="10" y="50" width="10" height="10"/><circle cx="15" cy="55" r="4.18"/><rect class="cls-1" x="10" y="60" width="10" height="10"/><circle cx="15" cy="65" r="4.18"/><rect class="cls-1" x="150" y="150" width="10" height="10"/><circle cx="155" cy="155" r="4.18"/><rect class="cls-1" x="130" y="60.01" width="10" height="10"/><circle cx="135" cy="65.01" r="4.18"/><rect class="cls-1" x="130" y="70.01" width="10" height="10"/><circle cx="135" cy="75.01" r="4.18"/><rect class="cls-1" x="130" y="80.01" width="10" height="10"/><circle cx="135" cy="85.01" r="4.18"/><rect class="cls-1" x="130" y="90.01" width="10" height="10"/><circle cx="135" cy="95.01" r="4.18"/><rect class="cls-1" x="130" y="100.01" width="10" height="10"/><circle cx="135" cy="105.01" r="4.18"/><rect class="cls-1" x="130" y="110.01" width="10" height="10"/><circle cx="135" cy="115.01" r="4.18"/><rect class="cls-1" x="130" y="120.01" width="10" height="10"/><circle cx="135" cy="125.01" r="4.18"/><rect class="cls-1" x="130" y="130.01" width="10" height="10"/><circle cx="135" cy="135.01" r="4.18"/></svg>