<?xml version="1.0" encoding="utf-8"?>
<!-- Generator: Adobe Illustrator 25.0.1, SVG Export Plug-In . SVG Version: 6.00 Build 0)  -->
<svg version="1.1" id="Layer_1" xmlns="http://www.w3.org/2000/svg" xmlns:xlink="http://www.w3.org/1999/xlink" x="0px" y="0px"
	 viewBox="0 0 15 15" style="enable-background:new 0 0 15 15;" xml:space="preserve">
<style type="text/css">
	.st0{fill:#FF005A;}
	.st1{fill:#FFFAFA;}
</style>
<path class="st0" d="M9.3,15.2c-3.1,0-6.1,0-9.1,0c0-5,0-10,0-15c5,0,10,0,15,0c0,5,0,10,0,15C13.2,15.2,11.3,15.2,9.3,15.2
	 M8.5,12.9c1.4,0,2.9,0,4.4,0c0-3.5,0-6.9,0-10.4c-3.5,0-6.9,0-10.4,0c0,3.5,0,6.9,0,10.4C4.4,12.9,6.4,12.9,8.5,12.9z"/>
<path class="st1" d="M8.4,12.9c-2,0-4,0-6,0c0-3.5,0-6.9,0-10.4c3.4,0,6.9,0,10.4,0c0,3.5,0,6.9,0,10.4C11.4,12.9,9.9,12.9,8.4,12.9
	 M8.4,5.2c0-0.6,0-1.1,0-1.7c-0.6,0-1,0-1.6,0c0,1.1,0,2.2,0,3.4c-1.1,0-2.2,0-3.3,0c0,0.5,0,1,0,1.6c1.1,0,2.2,0,3.4,0
	c0,1.2,0,2.3,0,3.3c0.6,0,1,0,1.5,0c0-1.1,0-2.2,0-3.4c1.2,0,2.3,0,3.4,0c0-0.6,0-1,0-1.5c-1.1,0-2.2,0-3.4,0
	C8.4,6.3,8.4,5.8,8.4,5.2z"/>
<path class="st0" d="M8.4,5.2c0,0.6,0,1.1,0,1.6c1.2,0,2.2,0,3.4,0c0,0.5,0,1,0,1.5c-1.1,0-2.2,0-3.4,0c0,1.2,0,2.3,0,3.4
	c-0.5,0-1,0-1.5,0c0-1.1,0-2.2,0-3.3c-1.2,0-2.2,0-3.4,0c0-0.6,0-1,0-1.6c1.1,0,2.1,0,3.3,0c0-1.2,0-2.2,0-3.4c0.5,0,1,0,1.6,0
	C8.4,4.1,8.4,4.6,8.4,5.2z"/>
</svg>
