<svg version="1.1" id="Layer_1" xmlns="http://www.w3.org/2000/svg" xmlns:xlink="http://www.w3.org/1999/xlink" x="0px" y="0px" width="15" viewBox="0 0 100 100" enable-background="new 0 0 100 100" xml:space="preserve" height="15"><path fill="#FF0000" opacity="1.000000" stroke="none" d=" M62.000000,101.000000   C41.333336,101.000000 21.166674,101.000000 1.000008,101.000000   C1.000005,67.666679 1.000005,34.333351 1.000003,1.000021   C34.333317,1.000014 67.666634,1.000014 100.999969,1.000007   C100.999977,34.333313 100.999977,67.666626 100.999985,100.999969   C88.166664,101.000000 75.333336,101.000000 62.000000,101.000000  M56.499947,85.845665   C66.111832,85.845665 75.723717,85.845665 85.580917,85.845665   C85.580917,62.436031 85.580917,39.553795 85.580917,16.489082   C62.288300,16.489082 39.261539,16.489082 16.304499,16.489082   C16.304499,39.723938 16.304499,62.622700 16.304499,85.845665   C29.577398,85.845665 42.538670,85.845665 56.499947,85.845665  z" /><path fill="#FFFAFA" opacity="1.000000" stroke="none" d=" M55.999943,85.845665   C42.538670,85.845665 29.577398,85.845665 16.304499,85.845665   C16.304499,62.622700 16.304499,39.723938 16.304499,16.489082   C39.261539,16.489082 62.288300,16.489082 85.580917,16.489082   C85.580917,39.553795 85.580917,62.436031 85.580917,85.845665   C75.723717,85.845665 66.111832,85.845665 55.999943,85.845665  M56.004955,34.499218   C56.004955,30.755533 56.004955,27.011850 56.004955,23.459976   C52.107166,23.459976 49.013821,23.459976 45.355572,23.459976   C45.355572,30.977226 45.355572,38.208603 45.355572,45.913181   C37.706989,45.913181 30.631990,45.913181 23.389214,45.913181   C23.389214,49.490192 23.389214,52.567883 23.389214,56.312134   C30.792150,56.312134 37.985882,56.312134 45.732815,56.312134   C45.732815,64.195976 45.732815,71.420998 45.732815,78.575798   C49.424549,78.575798 52.521969,78.575798 56.063400,78.575798   C56.063400,71.077332 56.063400,63.832203 56.063400,55.998631   C63.876469,55.998631 71.249718,55.998631 78.527008,55.998631   C78.527008,52.306282 78.527008,49.227757 78.527008,45.747971   C70.960617,45.747971 63.699780,45.747971 56.004955,45.747971   C56.004955,42.060104 56.004955,38.770481 56.004955,34.499218  z" /><path fill="#FF0808" opacity="1.000000" stroke="none" d=" M56.004955,34.990036   C56.004955,38.770481 56.004955,42.060104 56.004955,45.747971   C63.699780,45.747971 70.960617,45.747971 78.527008,45.747971   C78.527008,49.227757 78.527008,52.306282 78.527008,55.998631   C71.249718,55.998631 63.876469,55.998631 56.063400,55.998631   C56.063400,63.832203 56.063400,71.077332 56.063400,78.575798   C52.521969,78.575798 49.424549,78.575798 45.732815,78.575798   C45.732815,71.420998 45.732815,64.195976 45.732815,56.312134   C37.985882,56.312134 30.792150,56.312134 23.389214,56.312134   C23.389214,52.567883 23.389214,49.490192 23.389214,45.913181   C30.631990,45.913181 37.706989,45.913181 45.355572,45.913181   C45.355572,38.208603 45.355572,30.977226 45.355572,23.459976   C49.013821,23.459976 52.107166,23.459976 56.004955,23.459976   C56.004955,27.011850 56.004955,30.755533 56.004955,34.990036  z" /></svg>