<svg width="55" height="33" viewBox="0 0 55 33" fill="none" xmlns="http://www.w3.org/2000/svg">
<path d="M23 14.073L10.6 2.0863L5 7.49964L9.4 11.753H1.5V19.4863H9.4L5 23.7396L10.6 29.153L15 24.8996V31.0863H23V14.073Z" fill="#D9D9D9" stroke="#B2ABAB" stroke-width="3"/>
<mask id="path-2-outside-1_802_38" maskUnits="userSpaceOnUse" x="28" y="1.48633" width="27" height="31" fill="black">
<rect fill="white" x="28" y="1.48633" width="27" height="31"/>
<path d="M40.5541 10.8904V11.9363H29V10.8904H31.1041V8.78633H29V7.74043H31.1041V5.63633H30.0459V4.59043H31.1041V2.48633H32.15V4.59043H40.5541V5.63633H38.45V7.74043H40.5541V8.78633H38.45V10.8904H40.5541ZM29 6.68223V5.63633H30.0459V6.68223H29ZM33.1959 5.63633H32.15V7.74043H33.1959V5.63633ZM35.3 5.63633H34.2541V7.74043H35.3V5.63633ZM37.4041 5.63633H36.3459V7.74043H37.4041V5.63633ZM33.1959 8.78633H32.15V10.8904H33.1959V8.78633ZM35.3 8.78633H34.2541V10.8904H35.3V8.78633ZM37.4041 8.78633H36.3459V10.8904H37.4041V8.78633ZM31.1041 12.9822V14.0404H30.0459V12.9822H31.1041ZM33.1959 14.0404H32.15V12.9822H33.1959V14.0404ZM36.3459 14.0404H35.3V12.9822H36.3459V14.0404ZM39.4959 14.0404H38.45V12.9822H39.4959V14.0404ZM29 15.0863V14.0404H30.0459V15.0863H29ZM34.2541 15.0863H33.1959V14.0404H34.2541V15.0863ZM37.4041 15.0863H36.3459V14.0404H37.4041V15.0863ZM40.5541 15.0863H39.4959V14.0404H40.5541V15.0863Z"/>
<path d="M46.9801 11.9363V10.8904H41.726V9.83223H46.9801V8.78633H42.7719V7.74043H43.8301V5.63633H41.726V4.59043H46.9801V2.48633H48.026V4.59043H53.2801V5.63633H51.176V7.74043H52.2219V9.83223H53.2801V10.8904H52.2219V12.9822H48.026V15.0863H44.876V14.0404H46.9801V12.9822H42.7719V11.9363H46.9801ZM46.9801 5.63633H44.876V7.74043H46.9801V5.63633ZM50.1301 5.63633H48.026V7.74043H50.1301V5.63633ZM51.176 8.78633H48.026V9.83223H51.176V8.78633ZM51.176 10.8904H48.026V11.9363H51.176V10.8904Z"/>
<path d="M37.4041 18.4863H38.45V19.5322H37.4041V18.4863ZM31.1041 19.5322H32.15V20.5904H31.1041V19.5322ZM40.5541 20.5904V25.8322H38.45V27.9363H39.4959V28.9822H38.45V31.0863H36.3459V30.0404H37.4041V25.8322H34.2541V20.5904H36.3459V19.5322H37.4041V20.5904H40.5541ZM30.0459 20.5904H31.1041V21.6363H30.0459V20.5904ZM33.1959 23.7404H32.15V24.7863H31.1041V23.7404H29V21.6363H30.0459V22.6822H32.15V21.6363H33.1959V23.7404ZM39.4959 21.6363H35.3V22.6822H39.4959V21.6363ZM35.3 23.7404V24.7863H39.4959V23.7404H35.3ZM31.1041 25.8322H33.1959V26.8904H32.15V31.0863H31.1041V26.8904H29V25.8322H30.0459V24.7863H31.1041V25.8322ZM34.2541 26.8904H36.3459V28.9822H35.3V27.9363H34.2541V26.8904ZM39.4959 26.8904H40.5541V27.9363H39.4959V26.8904ZM30.0459 30.0404H29V27.9363H30.0459V30.0404ZM35.3 30.0404H34.2541V28.9822H35.3V30.0404ZM40.5541 28.9822V31.0863H39.4959V28.9822H40.5541ZM34.2541 31.0863H33.1959V30.0404H34.2541V31.0863Z"/>
<path d="M53.2801 21.6363V22.6822H50.1301V24.7863H52.2219V25.8322H48.026V26.8904H53.2801V27.9363H50.1301V28.9822H49.0719V27.9363H48.026V31.0863H46.9801V28.9822H45.9219V27.9363H41.726V26.8904H46.9801V25.8322H42.7719V24.7863H44.876V22.6822H41.726V21.6363H43.8301V19.5322H44.876V21.6363H45.9219V18.4863H46.9801V21.6363H48.026V18.4863H49.0719V21.6363H50.1301V20.5904H51.176V21.6363H53.2801ZM51.176 19.5322H52.2219V20.5904H51.176V19.5322ZM45.9219 24.7863H49.0719V22.6822H45.9219V24.7863ZM45.9219 30.0404H43.8301V28.9822H45.9219V30.0404ZM51.176 28.9822V30.0404H50.1301V28.9822H51.176ZM43.8301 31.0863H41.726V30.0404H43.8301V31.0863ZM53.2801 30.0404V31.0863H51.176V30.0404H53.2801Z"/>
</mask>
<path d="M40.5541 10.8904V11.9363H29V10.8904H31.1041V8.78633H29V7.74043H31.1041V5.63633H30.0459V4.59043H31.1041V2.48633H32.15V4.59043H40.5541V5.63633H38.45V7.74043H40.5541V8.78633H38.45V10.8904H40.5541ZM29 6.68223V5.63633H30.0459V6.68223H29ZM33.1959 5.63633H32.15V7.74043H33.1959V5.63633ZM35.3 5.63633H34.2541V7.74043H35.3V5.63633ZM37.4041 5.63633H36.3459V7.74043H37.4041V5.63633ZM33.1959 8.78633H32.15V10.8904H33.1959V8.78633ZM35.3 8.78633H34.2541V10.8904H35.3V8.78633ZM37.4041 8.78633H36.3459V10.8904H37.4041V8.78633ZM31.1041 12.9822V14.0404H30.0459V12.9822H31.1041ZM33.1959 14.0404H32.15V12.9822H33.1959V14.0404ZM36.3459 14.0404H35.3V12.9822H36.3459V14.0404ZM39.4959 14.0404H38.45V12.9822H39.4959V14.0404ZM29 15.0863V14.0404H30.0459V15.0863H29ZM34.2541 15.0863H33.1959V14.0404H34.2541V15.0863ZM37.4041 15.0863H36.3459V14.0404H37.4041V15.0863ZM40.5541 15.0863H39.4959V14.0404H40.5541V15.0863Z" fill="#B2ABAB"/>
<path d="M46.9801 11.9363V10.8904H41.726V9.83223H46.9801V8.78633H42.7719V7.74043H43.8301V5.63633H41.726V4.59043H46.9801V2.48633H48.026V4.59043H53.2801V5.63633H51.176V7.74043H52.2219V9.83223H53.2801V10.8904H52.2219V12.9822H48.026V15.0863H44.876V14.0404H46.9801V12.9822H42.7719V11.9363H46.9801ZM46.9801 5.63633H44.876V7.74043H46.9801V5.63633ZM50.1301 5.63633H48.026V7.74043H50.1301V5.63633ZM51.176 8.78633H48.026V9.83223H51.176V8.78633ZM51.176 10.8904H48.026V11.9363H51.176V10.8904Z" fill="#B2ABAB"/>
<path d="M37.4041 18.4863H38.45V19.5322H37.4041V18.4863ZM31.1041 19.5322H32.15V20.5904H31.1041V19.5322ZM40.5541 20.5904V25.8322H38.45V27.9363H39.4959V28.9822H38.45V31.0863H36.3459V30.0404H37.4041V25.8322H34.2541V20.5904H36.3459V19.5322H37.4041V20.5904H40.5541ZM30.0459 20.5904H31.1041V21.6363H30.0459V20.5904ZM33.1959 23.7404H32.15V24.7863H31.1041V23.7404H29V21.6363H30.0459V22.6822H32.15V21.6363H33.1959V23.7404ZM39.4959 21.6363H35.3V22.6822H39.4959V21.6363ZM35.3 23.7404V24.7863H39.4959V23.7404H35.3ZM31.1041 25.8322H33.1959V26.8904H32.15V31.0863H31.1041V26.8904H29V25.8322H30.0459V24.7863H31.1041V25.8322ZM34.2541 26.8904H36.3459V28.9822H35.3V27.9363H34.2541V26.8904ZM39.4959 26.8904H40.5541V27.9363H39.4959V26.8904ZM30.0459 30.0404H29V27.9363H30.0459V30.0404ZM35.3 30.0404H34.2541V28.9822H35.3V30.0404ZM40.5541 28.9822V31.0863H39.4959V28.9822H40.5541ZM34.2541 31.0863H33.1959V30.0404H34.2541V31.0863Z" fill="#B2ABAB"/>
<path d="M53.2801 21.6363V22.6822H50.1301V24.7863H52.2219V25.8322H48.026V26.8904H53.2801V27.9363H50.1301V28.9822H49.0719V27.9363H48.026V31.0863H46.9801V28.9822H45.9219V27.9363H41.726V26.8904H46.9801V25.8322H42.7719V24.7863H44.876V22.6822H41.726V21.6363H43.8301V19.5322H44.876V21.6363H45.9219V18.4863H46.9801V21.6363H48.026V18.4863H49.0719V21.6363H50.1301V20.5904H51.176V21.6363H53.2801ZM51.176 19.5322H52.2219V20.5904H51.176V19.5322ZM45.9219 24.7863H49.0719V22.6822H45.9219V24.7863ZM45.9219 30.0404H43.8301V28.9822H45.9219V30.0404ZM51.176 28.9822V30.0404H50.1301V28.9822H51.176ZM43.8301 31.0863H41.726V30.0404H43.8301V31.0863ZM53.2801 30.0404V31.0863H51.176V30.0404H53.2801Z" fill="#B2ABAB"/>
<path d="M40.5541 10.8904H41.5541V9.89043H40.5541V10.8904ZM40.5541 11.9363V12.9363H41.5541V11.9363H40.5541ZM29 11.9363H28V12.9363H29V11.9363ZM29 10.8904V9.89043H28V10.8904H29ZM31.1041 10.8904V11.8904H32.1041V10.8904H31.1041ZM31.1041 8.78633H32.1041V7.78633H31.1041V8.78633ZM29 8.78633H28V9.78633H29V8.78633ZM29 7.74043V6.74043H28V7.74043H29ZM31.1041 7.74043V8.74043H32.1041V7.74043H31.1041ZM31.1041 5.63633H32.1041V4.63633H31.1041V5.63633ZM30.0459 4.59043V3.59043H29.0459V4.59043H30.0459ZM31.1041 4.59043V5.59043H32.1041V4.59043H31.1041ZM31.1041 2.48633V1.48633H30.1041V2.48633H31.1041ZM32.15 2.48633H33.15V1.48633H32.15V2.48633ZM32.15 4.59043H31.15V5.59043H32.15V4.59043ZM40.5541 4.59043H41.5541V3.59043H40.5541V4.59043ZM40.5541 5.63633V6.63633H41.5541V5.63633H40.5541ZM38.45 5.63633V4.63633H37.45V5.63633H38.45ZM38.45 7.74043H37.45V8.74043H38.45V7.74043ZM40.5541 7.74043H41.5541V6.74043H40.5541V7.74043ZM40.5541 8.78633V9.78633H41.5541V8.78633H40.5541ZM38.45 8.78633V7.78633H37.45V8.78633H38.45ZM38.45 10.8904H37.45V11.8904H38.45V10.8904ZM29 6.68223H28V7.68223H29V6.68223ZM29 5.63633V4.63633H28V5.63633H29ZM30.0459 6.68223V7.68223H31.0459V6.68223H30.0459ZM33.1959 5.63633H34.1959V4.63633H33.1959V5.63633ZM32.15 5.63633V4.63633H31.15V5.63633H32.15ZM32.15 7.74043H31.15V8.74043H32.15V7.74043ZM33.1959 7.74043V8.74043H34.1959V7.74043H33.1959ZM35.3 5.63633H36.3V4.63633H35.3V5.63633ZM34.2541 5.63633V4.63633H33.2541V5.63633H34.2541ZM34.2541 7.74043H33.2541V8.74043H34.2541V7.74043ZM35.3 7.74043V8.74043H36.3V7.74043H35.3ZM37.4041 5.63633H38.4041V4.63633H37.4041V5.63633ZM36.3459 5.63633V4.63633H35.3459V5.63633H36.3459ZM36.3459 7.74043H35.3459V8.74043H36.3459V7.74043ZM37.4041 7.74043V8.74043H38.4041V7.74043H37.4041ZM33.1959 8.78633H34.1959V7.78633H33.1959V8.78633ZM32.15 8.78633V7.78633H31.15V8.78633H32.15ZM32.15 10.8904H31.15V11.8904H32.15V10.8904ZM33.1959 10.8904V11.8904H34.1959V10.8904H33.1959ZM35.3 8.78633H36.3V7.78633H35.3V8.78633ZM34.2541 8.78633V7.78633H33.2541V8.78633H34.2541ZM34.2541 10.8904H33.2541V11.8904H34.2541V10.8904ZM35.3 10.8904V11.8904H36.3V10.8904H35.3ZM37.4041 8.78633H38.4041V7.78633H37.4041V8.78633ZM36.3459 8.78633V7.78633H35.3459V8.78633H36.3459ZM36.3459 10.8904H35.3459V11.8904H36.3459V10.8904ZM37.4041 10.8904V11.8904H38.4041V10.8904H37.4041ZM31.1041 12.9822H32.1041V11.9822H31.1041V12.9822ZM31.1041 14.0404V15.0404H32.1041V14.0404H31.1041ZM30.0459 12.9822V11.9822H29.0459V12.9822H30.0459ZM32.15 14.0404H31.15V15.0404H32.15V14.0404ZM32.15 12.9822V11.9822H31.15V12.9822H32.15ZM33.1959 12.9822H34.1959V11.9822H33.1959V12.9822ZM35.3 14.0404H34.3V15.0404H35.3V14.0404ZM35.3 12.9822V11.9822H34.3V12.9822H35.3ZM36.3459 12.9822H37.3459V11.9822H36.3459V12.9822ZM38.45 14.0404H37.45V15.0404H38.45V14.0404ZM38.45 12.9822V11.9822H37.45V12.9822H38.45ZM39.4959 12.9822H40.4959V11.9822H39.4959V12.9822ZM29 15.0863H28V16.0863H29V15.0863ZM29 14.0404V13.0404H28V14.0404H29ZM30.0459 15.0863V16.0863H31.0459V15.0863H30.0459ZM34.2541 15.0863V16.0863H35.2541V15.0863H34.2541ZM33.1959 15.0863H32.1959V16.0863H33.1959V15.0863ZM34.2541 14.0404H35.2541V13.0404H34.2541V14.0404ZM37.4041 15.0863V16.0863H38.4041V15.0863H37.4041ZM36.3459 15.0863H35.3459V16.0863H36.3459V15.0863ZM37.4041 14.0404H38.4041V13.0404H37.4041V14.0404ZM40.5541 15.0863V16.0863H41.5541V15.0863H40.5541ZM39.4959 15.0863H38.4959V16.0863H39.4959V15.0863ZM40.5541 14.0404H41.5541V13.0404H40.5541V14.0404ZM46.9801 11.9363V12.9363H47.9801V11.9363H46.9801ZM46.9801 10.8904H47.9801V9.89043H46.9801V10.8904ZM41.726 10.8904H40.726V11.8904H41.726V10.8904ZM41.726 9.83223V8.83223H40.726V9.83223H41.726ZM46.9801 9.83223V10.8322H47.9801V9.83223H46.9801ZM46.9801 8.78633H47.9801V7.78633H46.9801V8.78633ZM42.7719 8.78633H41.7719V9.78633H42.7719V8.78633ZM42.7719 7.74043V6.74043H41.7719V7.74043H42.7719ZM43.8301 7.74043V8.74043H44.8301V7.74043H43.8301ZM43.8301 5.63633H44.8301V4.63633H43.8301V5.63633ZM41.726 5.63633H40.726V6.63633H41.726V5.63633ZM41.726 4.59043V3.59043H40.726V4.59043H41.726ZM46.9801 4.59043V5.59043H47.9801V4.59043H46.9801ZM46.9801 2.48633V1.48633H45.9801V2.48633H46.9801ZM48.026 2.48633H49.026V1.48633H48.026V2.48633ZM48.026 4.59043H47.026V5.59043H48.026V4.59043ZM53.2801 4.59043H54.2801V3.59043H53.2801V4.59043ZM53.2801 5.63633V6.63633H54.2801V5.63633H53.2801ZM51.176 5.63633V4.63633H50.176V5.63633H51.176ZM51.176 7.74043H50.176V8.74043H51.176V7.74043ZM52.2219 7.74043H53.2219V6.74043H52.2219V7.74043ZM52.2219 9.83223H51.2219V10.8322H52.2219V9.83223ZM53.2801 9.83223H54.2801V8.83223H53.2801V9.83223ZM53.2801 10.8904V11.8904H54.2801V10.8904H53.2801ZM52.2219 10.8904V9.89043H51.2219V10.8904H52.2219ZM52.2219 12.9822V13.9822H53.2219V12.9822H52.2219ZM48.026 12.9822V11.9822H47.026V12.9822H48.026ZM48.026 15.0863V16.0863H49.026V15.0863H48.026ZM44.876 15.0863H43.876V16.0863H44.876V15.0863ZM44.876 14.0404V13.0404H43.876V14.0404H44.876ZM46.9801 14.0404V15.0404H47.9801V14.0404H46.9801ZM46.9801 12.9822H47.9801V11.9822H46.9801V12.9822ZM42.7719 12.9822H41.7719V13.9822H42.7719V12.9822ZM42.7719 11.9363V10.9363H41.7719V11.9363H42.7719ZM46.9801 5.63633H47.9801V4.63633H46.9801V5.63633ZM44.876 5.63633V4.63633H43.876V5.63633H44.876ZM44.876 7.74043H43.876V8.74043H44.876V7.74043ZM46.9801 7.74043V8.74043H47.9801V7.74043H46.9801ZM50.1301 5.63633H51.1301V4.63633H50.1301V5.63633ZM48.026 5.63633V4.63633H47.026V5.63633H48.026ZM48.026 7.74043H47.026V8.74043H48.026V7.74043ZM50.1301 7.74043V8.74043H51.1301V7.74043H50.1301ZM51.176 8.78633H52.176V7.78633H51.176V8.78633ZM48.026 8.78633V7.78633H47.026V8.78633H48.026ZM48.026 9.83223H47.026V10.8322H48.026V9.83223ZM51.176 9.83223V10.8322H52.176V9.83223H51.176ZM51.176 10.8904H52.176V9.89043H51.176V10.8904ZM48.026 10.8904V9.89043H47.026V10.8904H48.026ZM48.026 11.9363H47.026V12.9363H48.026V11.9363ZM51.176 11.9363V12.9363H52.176V11.9363H51.176ZM37.4041 18.4863V17.4863H36.4041V18.4863H37.4041ZM38.45 18.4863H39.45V17.4863H38.45V18.4863ZM38.45 19.5322V20.5322H39.45V19.5322H38.45ZM31.1041 19.5322V18.5322H30.1041V19.5322H31.1041ZM32.15 19.5322H33.15V18.5322H32.15V19.5322ZM32.15 20.5904V21.5904H33.15V20.5904H32.15ZM40.5541 20.5904H41.5541V19.5904H40.5541V20.5904ZM40.5541 25.8322V26.8322H41.5541V25.8322H40.5541ZM38.45 25.8322V24.8322H37.45V25.8322H38.45ZM38.45 27.9363H37.45V28.9363H38.45V27.9363ZM38.45 28.9822V27.9822H37.45V28.9822H38.45ZM38.45 31.0863V32.0863H39.45V31.0863H38.45ZM36.3459 31.0863H35.3459V32.0863H36.3459V31.0863ZM36.3459 30.0404V29.0404H35.3459V30.0404H36.3459ZM37.4041 30.0404V31.0404H38.4041V30.0404H37.4041ZM37.4041 25.8322H38.4041V24.8322H37.4041V25.8322ZM34.2541 25.8322H33.2541V26.8322H34.2541V25.8322ZM34.2541 20.5904V19.5904H33.2541V20.5904H34.2541ZM36.3459 20.5904V21.5904H37.3459V20.5904H36.3459ZM36.3459 19.5322V18.5322H35.3459V19.5322H36.3459ZM37.4041 20.5904H36.4041V21.5904H37.4041V20.5904ZM30.0459 20.5904V19.5904H29.0459V20.5904H30.0459ZM31.1041 21.6363V22.6363H32.1041V21.6363H31.1041ZM33.1959 23.7404V24.7404H34.1959V23.7404H33.1959ZM32.15 23.7404V22.7404H31.15V23.7404H32.15ZM32.15 24.7863V25.7863H33.15V24.7863H32.15ZM31.1041 23.7404H32.1041V22.7404H31.1041V23.7404ZM29 23.7404H28V24.7404H29V23.7404ZM29 21.6363V20.6363H28V21.6363H29ZM30.0459 22.6822H29.0459V23.6822H30.0459V22.6822ZM32.15 22.6822V23.6822H33.15V22.6822H32.15ZM32.15 21.6363V20.6363H31.15V21.6363H32.15ZM33.1959 21.6363H34.1959V20.6363H33.1959V21.6363ZM39.4959 21.6363H40.4959V20.6363H39.4959V21.6363ZM35.3 21.6363V20.6363H34.3V21.6363H35.3ZM35.3 22.6822H34.3V23.6822H35.3V22.6822ZM39.4959 22.6822V23.6822H40.4959V22.6822H39.4959ZM35.3 23.7404V22.7404H34.3V23.7404H35.3ZM35.3 24.7863H34.3V25.7863H35.3V24.7863ZM39.4959 24.7863V25.7863H40.4959V24.7863H39.4959ZM39.4959 23.7404H40.4959V22.7404H39.4959V23.7404ZM31.1041 25.8322H30.1041V26.8322H31.1041V25.8322ZM33.1959 25.8322H34.1959V24.8322H33.1959V25.8322ZM33.1959 26.8904V27.8904H34.1959V26.8904H33.1959ZM32.15 26.8904V25.8904H31.15V26.8904H32.15ZM32.15 31.0863V32.0863H33.15V31.0863H32.15ZM31.1041 31.0863H30.1041V32.0863H31.1041V31.0863ZM31.1041 26.8904H32.1041V25.8904H31.1041V26.8904ZM29 26.8904H28V27.8904H29V26.8904ZM29 25.8322V24.8322H28V25.8322H29ZM30.0459 25.8322V26.8322H31.0459V25.8322H30.0459ZM30.0459 24.7863V23.7863H29.0459V24.7863H30.0459ZM34.2541 26.8904V25.8904H33.2541V26.8904H34.2541ZM36.3459 26.8904H37.3459V25.8904H36.3459V26.8904ZM36.3459 28.9822V29.9822H37.3459V28.9822H36.3459ZM35.3 27.9363H36.3V26.9363H35.3V27.9363ZM34.2541 27.9363H33.2541V28.9363H34.2541V27.9363ZM39.4959 26.8904V25.8904H38.4959V26.8904H39.4959ZM40.5541 26.8904H41.5541V25.8904H40.5541V26.8904ZM40.5541 27.9363V28.9363H41.5541V27.9363H40.5541ZM30.0459 30.0404V31.0404H31.0459V30.0404H30.0459ZM29 30.0404H28V31.0404H29V30.0404ZM29 27.9363V26.9363H28V27.9363H29ZM30.0459 27.9363H31.0459V26.9363H30.0459V27.9363ZM35.3 30.0404V31.0404H36.3V30.0404H35.3ZM34.2541 28.9822V27.9822H33.2541V28.9822H34.2541ZM40.5541 28.9822H41.5541V27.9822H40.5541V28.9822ZM40.5541 31.0863V32.0863H41.5541V31.0863H40.5541ZM39.4959 31.0863H38.4959V32.0863H39.4959V31.0863ZM34.2541 31.0863V32.0863H35.2541V31.0863H34.2541ZM33.1959 31.0863H32.1959V32.0863H33.1959V31.0863ZM33.1959 30.0404V29.0404H32.1959V30.0404H33.1959ZM53.2801 21.6363H54.2801V20.6363H53.2801V21.6363ZM53.2801 22.6822V23.6822H54.2801V22.6822H53.2801ZM50.1301 22.6822V21.6822H49.1301V22.6822H50.1301ZM50.1301 24.7863H49.1301V25.7863H50.1301V24.7863ZM52.2219 24.7863H53.2219V23.7863H52.2219V24.7863ZM52.2219 25.8322V26.8322H53.2219V25.8322H52.2219ZM48.026 25.8322V24.8322H47.026V25.8322H48.026ZM48.026 26.8904H47.026V27.8904H48.026V26.8904ZM53.2801 26.8904H54.2801V25.8904H53.2801V26.8904ZM53.2801 27.9363V28.9363H54.2801V27.9363H53.2801ZM50.1301 27.9363V26.9363H49.1301V27.9363H50.1301ZM49.0719 28.9822H48.0719V29.9822H49.0719V28.9822ZM49.0719 27.9363H50.0719V26.9363H49.0719V27.9363ZM48.026 27.9363V26.9363H47.026V27.9363H48.026ZM48.026 31.0863V32.0863H49.026V31.0863H48.026ZM46.9801 31.0863H45.9801V32.0863H46.9801V31.0863ZM46.9801 28.9822H47.9801V27.9822H46.9801V28.9822ZM45.9219 27.9363H46.9219V26.9363H45.9219V27.9363ZM41.726 27.9363H40.726V28.9363H41.726V27.9363ZM41.726 26.8904V25.8904H40.726V26.8904H41.726ZM46.9801 26.8904V27.8904H47.9801V26.8904H46.9801ZM46.9801 25.8322H47.9801V24.8322H46.9801V25.8322ZM42.7719 25.8322H41.7719V26.8322H42.7719V25.8322ZM42.7719 24.7863V23.7863H41.7719V24.7863H42.7719ZM44.876 24.7863V25.7863H45.876V24.7863H44.876ZM44.876 22.6822H45.876V21.6822H44.876V22.6822ZM41.726 22.6822H40.726V23.6822H41.726V22.6822ZM41.726 21.6363V20.6363H40.726V21.6363H41.726ZM43.8301 21.6363V22.6363H44.8301V21.6363H43.8301ZM43.8301 19.5322V18.5322H42.8301V19.5322H43.8301ZM44.876 19.5322H45.876V18.5322H44.876V19.5322ZM44.876 21.6363H43.876V22.6363H44.876V21.6363ZM45.9219 21.6363V22.6363H46.9219V21.6363H45.9219ZM45.9219 18.4863V17.4863H44.9219V18.4863H45.9219ZM46.9801 18.4863H47.9801V17.4863H46.9801V18.4863ZM46.9801 21.6363H45.9801V22.6363H46.9801V21.6363ZM48.026 21.6363V22.6363H49.026V21.6363H48.026ZM48.026 18.4863V17.4863H47.026V18.4863H48.026ZM49.0719 18.4863H50.0719V17.4863H49.0719V18.4863ZM49.0719 21.6363H48.0719V22.6363H49.0719V21.6363ZM50.1301 21.6363V22.6363H51.1301V21.6363H50.1301ZM50.1301 20.5904V19.5904H49.1301V20.5904H50.1301ZM51.176 21.6363H50.176V22.6363H51.176V21.6363ZM51.176 19.5322V18.5322H50.176V19.5322H51.176ZM52.2219 19.5322H53.2219V18.5322H52.2219V19.5322ZM52.2219 20.5904V21.5904H53.2219V20.5904H52.2219ZM45.9219 24.7863H44.9219V25.7863H45.9219V24.7863ZM49.0719 24.7863V25.7863H50.0719V24.7863H49.0719ZM49.0719 22.6822H50.0719V21.6822H49.0719V22.6822ZM45.9219 22.6822V21.6822H44.9219V22.6822H45.9219ZM45.9219 30.0404V31.0404H46.9219V30.0404H45.9219ZM43.8301 28.9822V27.9822H42.8301V28.9822H43.8301ZM51.176 28.9822H52.176V27.9822H51.176V28.9822ZM50.1301 30.0404H49.1301V31.0404H50.1301V30.0404ZM43.8301 31.0863V32.0863H44.8301V31.0863H43.8301ZM41.726 31.0863H40.726V32.0863H41.726V31.0863ZM41.726 30.0404V29.0404H40.726V30.0404H41.726ZM53.2801 30.0404H54.2801V29.0404H53.2801V30.0404ZM53.2801 31.0863V32.0863H54.2801V31.0863H53.2801ZM51.176 31.0863H50.176V32.0863H51.176V31.0863ZM40.5541 10.8904H39.5541V11.9363H40.5541H41.5541V10.8904H40.5541ZM40.5541 11.9363V10.9363H29V11.9363V12.9363H40.5541V11.9363ZM29 11.9363H30V10.8904H29H28V11.9363H29ZM29 10.8904V11.8904H31.1041V10.8904V9.89043H29V10.8904ZM31.1041 10.8904H32.1041V8.78633H31.1041H30.1041V10.8904H31.1041ZM31.1041 8.78633V7.78633H29V8.78633V9.78633H31.1041V8.78633ZM29 8.78633H30V7.74043H29H28V8.78633H29ZM29 7.74043V8.74043H31.1041V7.74043V6.74043H29V7.74043ZM31.1041 7.74043H32.1041V5.63633H31.1041H30.1041V7.74043H31.1041ZM31.1041 5.63633V4.63633H30.0459V5.63633V6.63633H31.1041V5.63633ZM30.0459 5.63633H31.0459V4.59043H30.0459H29.0459V5.63633H30.0459ZM30.0459 4.59043V5.59043H31.1041V4.59043V3.59043H30.0459V4.59043ZM31.1041 4.59043H32.1041V2.48633H31.1041H30.1041V4.59043H31.1041ZM31.1041 2.48633V3.48633H32.15V2.48633V1.48633H31.1041V2.48633ZM32.15 2.48633H31.15V4.59043H32.15H33.15V2.48633H32.15ZM32.15 4.59043V5.59043H40.5541V4.59043V3.59043H32.15V4.59043ZM40.5541 4.59043H39.5541V5.63633H40.5541H41.5541V4.59043H40.5541ZM40.5541 5.63633V4.63633H38.45V5.63633V6.63633H40.5541V5.63633ZM38.45 5.63633H37.45V7.74043H38.45H39.45V5.63633H38.45ZM38.45 7.74043V8.74043H40.5541V7.74043V6.74043H38.45V7.74043ZM40.5541 7.74043H39.5541V8.78633H40.5541H41.5541V7.74043H40.5541ZM40.5541 8.78633V7.78633H38.45V8.78633V9.78633H40.5541V8.78633ZM38.45 8.78633H37.45V10.8904H38.45H39.45V8.78633H38.45ZM38.45 10.8904V11.8904H40.5541V10.8904V9.89043H38.45V10.8904ZM29 6.68223H30V5.63633H29H28V6.68223H29ZM29 5.63633V6.63633H30.0459V5.63633V4.63633H29V5.63633ZM30.0459 5.63633H29.0459V6.68223H30.0459H31.0459V5.63633H30.0459ZM30.0459 6.68223V5.68223H29V6.68223V7.68223H30.0459V6.68223ZM33.1959 5.63633V4.63633H32.15V5.63633V6.63633H33.1959V5.63633ZM32.15 5.63633H31.15V7.74043H32.15H33.15V5.63633H32.15ZM32.15 7.74043V8.74043H33.1959V7.74043V6.74043H32.15V7.74043ZM33.1959 7.74043H34.1959V5.63633H33.1959H32.1959V7.74043H33.1959ZM35.3 5.63633V4.63633H34.2541V5.63633V6.63633H35.3V5.63633ZM34.2541 5.63633H33.2541V7.74043H34.2541H35.2541V5.63633H34.2541ZM34.2541 7.74043V8.74043H35.3V7.74043V6.74043H34.2541V7.74043ZM35.3 7.74043H36.3V5.63633H35.3H34.3V7.74043H35.3ZM37.4041 5.63633V4.63633H36.3459V5.63633V6.63633H37.4041V5.63633ZM36.3459 5.63633H35.3459V7.74043H36.3459H37.3459V5.63633H36.3459ZM36.3459 7.74043V8.74043H37.4041V7.74043V6.74043H36.3459V7.74043ZM37.4041 7.74043H38.4041V5.63633H37.4041H36.4041V7.74043H37.4041ZM33.1959 8.78633V7.78633H32.15V8.78633V9.78633H33.1959V8.78633ZM32.15 8.78633H31.15V10.8904H32.15H33.15V8.78633H32.15ZM32.15 10.8904V11.8904H33.1959V10.8904V9.89043H32.15V10.8904ZM33.1959 10.8904H34.1959V8.78633H33.1959H32.1959V10.8904H33.1959ZM35.3 8.78633V7.78633H34.2541V8.78633V9.78633H35.3V8.78633ZM34.2541 8.78633H33.2541V10.8904H34.2541H35.2541V8.78633H34.2541ZM34.2541 10.8904V11.8904H35.3V10.8904V9.89043H34.2541V10.8904ZM35.3 10.8904H36.3V8.78633H35.3H34.3V10.8904H35.3ZM37.4041 8.78633V7.78633H36.3459V8.78633V9.78633H37.4041V8.78633ZM36.3459 8.78633H35.3459V10.8904H36.3459H37.3459V8.78633H36.3459ZM36.3459 10.8904V11.8904H37.4041V10.8904V9.89043H36.3459V10.8904ZM37.4041 10.8904H38.4041V8.78633H37.4041H36.4041V10.8904H37.4041ZM31.1041 12.9822H30.1041V14.0404H31.1041H32.1041V12.9822H31.1041ZM31.1041 14.0404V13.0404H30.0459V14.0404V15.0404H31.1041V14.0404ZM30.0459 14.0404H31.0459V12.9822H30.0459H29.0459V14.0404H30.0459ZM30.0459 12.9822V13.9822H31.1041V12.9822V11.9822H30.0459V12.9822ZM33.1959 14.0404V13.0404H32.15V14.0404V15.0404H33.1959V14.0404ZM32.15 14.0404H33.15V12.9822H32.15H31.15V14.0404H32.15ZM32.15 12.9822V13.9822H33.1959V12.9822V11.9822H32.15V12.9822ZM33.1959 12.9822H32.1959V14.0404H33.1959H34.1959V12.9822H33.1959ZM36.3459 14.0404V13.0404H35.3V14.0404V15.0404H36.3459V14.0404ZM35.3 14.0404H36.3V12.9822H35.3H34.3V14.0404H35.3ZM35.3 12.9822V13.9822H36.3459V12.9822V11.9822H35.3V12.9822ZM36.3459 12.9822H35.3459V14.0404H36.3459H37.3459V12.9822H36.3459ZM39.4959 14.0404V13.0404H38.45V14.0404V15.0404H39.4959V14.0404ZM38.45 14.0404H39.45V12.9822H38.45H37.45V14.0404H38.45ZM38.45 12.9822V13.9822H39.4959V12.9822V11.9822H38.45V12.9822ZM39.4959 12.9822H38.4959V14.0404H39.4959H40.4959V12.9822H39.4959ZM29 15.0863H30V14.0404H29H28V15.0863H29ZM29 14.0404V15.0404H30.0459V14.0404V13.0404H29V14.0404ZM30.0459 14.0404H29.0459V15.0863H30.0459H31.0459V14.0404H30.0459ZM30.0459 15.0863V14.0863H29V15.0863V16.0863H30.0459V15.0863ZM34.2541 15.0863V14.0863H33.1959V15.0863V16.0863H34.2541V15.0863ZM33.1959 15.0863H34.1959V14.0404H33.1959H32.1959V15.0863H33.1959ZM33.1959 14.0404V15.0404H34.2541V14.0404V13.0404H33.1959V14.0404ZM34.2541 14.0404H33.2541V15.0863H34.2541H35.2541V14.0404H34.2541ZM37.4041 15.0863V14.0863H36.3459V15.0863V16.0863H37.4041V15.0863ZM36.3459 15.0863H37.3459V14.0404H36.3459H35.3459V15.0863H36.3459ZM36.3459 14.0404V15.0404H37.4041V14.0404V13.0404H36.3459V14.0404ZM37.4041 14.0404H36.4041V15.0863H37.4041H38.4041V14.0404H37.4041ZM40.5541 15.0863V14.0863H39.4959V15.0863V16.0863H40.5541V15.0863ZM39.4959 15.0863H40.4959V14.0404H39.4959H38.4959V15.0863H39.4959ZM39.4959 14.0404V15.0404H40.5541V14.0404V13.0404H39.4959V14.0404ZM40.5541 14.0404H39.5541V15.0863H40.5541H41.5541V14.0404H40.5541ZM46.9801 11.9363H47.9801V10.8904H46.9801H45.9801V11.9363H46.9801ZM46.9801 10.8904V9.89043H41.726V10.8904V11.8904H46.9801V10.8904ZM41.726 10.8904H42.726V9.83223H41.726H40.726V10.8904H41.726ZM41.726 9.83223V10.8322H46.9801V9.83223V8.83223H41.726V9.83223ZM46.9801 9.83223H47.9801V8.78633H46.9801H45.9801V9.83223H46.9801ZM46.9801 8.78633V7.78633H42.7719V8.78633V9.78633H46.9801V8.78633ZM42.7719 8.78633H43.7719V7.74043H42.7719H41.7719V8.78633H42.7719ZM42.7719 7.74043V8.74043H43.8301V7.74043V6.74043H42.7719V7.74043ZM43.8301 7.74043H44.8301V5.63633H43.8301H42.8301V7.74043H43.8301ZM43.8301 5.63633V4.63633H41.726V5.63633V6.63633H43.8301V5.63633ZM41.726 5.63633H42.726V4.59043H41.726H40.726V5.63633H41.726ZM41.726 4.59043V5.59043H46.9801V4.59043V3.59043H41.726V4.59043ZM46.9801 4.59043H47.9801V2.48633H46.9801H45.9801V4.59043H46.9801ZM46.9801 2.48633V3.48633H48.026V2.48633V1.48633H46.9801V2.48633ZM48.026 2.48633H47.026V4.59043H48.026H49.026V2.48633H48.026ZM48.026 4.59043V5.59043H53.2801V4.59043V3.59043H48.026V4.59043ZM53.2801 4.59043H52.2801V5.63633H53.2801H54.2801V4.59043H53.2801ZM53.2801 5.63633V4.63633H51.176V5.63633V6.63633H53.2801V5.63633ZM51.176 5.63633H50.176V7.74043H51.176H52.176V5.63633H51.176ZM51.176 7.74043V8.74043H52.2219V7.74043V6.74043H51.176V7.74043ZM52.2219 7.74043H51.2219V9.83223H52.2219H53.2219V7.74043H52.2219ZM52.2219 9.83223V10.8322H53.2801V9.83223V8.83223H52.2219V9.83223ZM53.2801 9.83223H52.2801V10.8904H53.2801H54.2801V9.83223H53.2801ZM53.2801 10.8904V9.89043H52.2219V10.8904V11.8904H53.2801V10.8904ZM52.2219 10.8904H51.2219V12.9822H52.2219H53.2219V10.8904H52.2219ZM52.2219 12.9822V11.9822H48.026V12.9822V13.9822H52.2219V12.9822ZM48.026 12.9822H47.026V15.0863H48.026H49.026V12.9822H48.026ZM48.026 15.0863V14.0863H44.876V15.0863V16.0863H48.026V15.0863ZM44.876 15.0863H45.876V14.0404H44.876H43.876V15.0863H44.876ZM44.876 14.0404V15.0404H46.9801V14.0404V13.0404H44.876V14.0404ZM46.9801 14.0404H47.9801V12.9822H46.9801H45.9801V14.0404H46.9801ZM46.9801 12.9822V11.9822H42.7719V12.9822V13.9822H46.9801V12.9822ZM42.7719 12.9822H43.7719V11.9363H42.7719H41.7719V12.9822H42.7719ZM42.7719 11.9363V12.9363H46.9801V11.9363V10.9363H42.7719V11.9363ZM46.9801 5.63633V4.63633H44.876V5.63633V6.63633H46.9801V5.63633ZM44.876 5.63633H43.876V7.74043H44.876H45.876V5.63633H44.876ZM44.876 7.74043V8.74043H46.9801V7.74043V6.74043H44.876V7.74043ZM46.9801 7.74043H47.9801V5.63633H46.9801H45.9801V7.74043H46.9801ZM50.1301 5.63633V4.63633H48.026V5.63633V6.63633H50.1301V5.63633ZM48.026 5.63633H47.026V7.74043H48.026H49.026V5.63633H48.026ZM48.026 7.74043V8.74043H50.1301V7.74043V6.74043H48.026V7.74043ZM50.1301 7.74043H51.1301V5.63633H50.1301H49.1301V7.74043H50.1301ZM51.176 8.78633V7.78633H48.026V8.78633V9.78633H51.176V8.78633ZM48.026 8.78633H47.026V9.83223H48.026H49.026V8.78633H48.026ZM48.026 9.83223V10.8322H51.176V9.83223V8.83223H48.026V9.83223ZM51.176 9.83223H52.176V8.78633H51.176H50.176V9.83223H51.176ZM51.176 10.8904V9.89043H48.026V10.8904V11.8904H51.176V10.8904ZM48.026 10.8904H47.026V11.9363H48.026H49.026V10.8904H48.026ZM48.026 11.9363V12.9363H51.176V11.9363V10.9363H48.026V11.9363ZM51.176 11.9363H52.176V10.8904H51.176H50.176V11.9363H51.176ZM37.4041 18.4863V19.4863H38.45V18.4863V17.4863H37.4041V18.4863ZM38.45 18.4863H37.45V19.5322H38.45H39.45V18.4863H38.45ZM38.45 19.5322V18.5322H37.4041V19.5322V20.5322H38.45V19.5322ZM37.4041 19.5322H38.4041V18.4863H37.4041H36.4041V19.5322H37.4041ZM31.1041 19.5322V20.5322H32.15V19.5322V18.5322H31.1041V19.5322ZM32.15 19.5322H31.15V20.5904H32.15H33.15V19.5322H32.15ZM32.15 20.5904V19.5904H31.1041V20.5904V21.5904H32.15V20.5904ZM31.1041 20.5904H32.1041V19.5322H31.1041H30.1041V20.5904H31.1041ZM40.5541 20.5904H39.5541V25.8322H40.5541H41.5541V20.5904H40.5541ZM40.5541 25.8322V24.8322H38.45V25.8322V26.8322H40.5541V25.8322ZM38.45 25.8322H37.45V27.9363H38.45H39.45V25.8322H38.45ZM38.45 27.9363V28.9363H39.4959V27.9363V26.9363H38.45V27.9363ZM39.4959 27.9363H38.4959V28.9822H39.4959H40.4959V27.9363H39.4959ZM39.4959 28.9822V27.9822H38.45V28.9822V29.9822H39.4959V28.9822ZM38.45 28.9822H37.45V31.0863H38.45H39.45V28.9822H38.45ZM38.45 31.0863V30.0863H36.3459V31.0863V32.0863H38.45V31.0863ZM36.3459 31.0863H37.3459V30.0404H36.3459H35.3459V31.0863H36.3459ZM36.3459 30.0404V31.0404H37.4041V30.0404V29.0404H36.3459V30.0404ZM37.4041 30.0404H38.4041V25.8322H37.4041H36.4041V30.0404H37.4041ZM37.4041 25.8322V24.8322H34.2541V25.8322V26.8322H37.4041V25.8322ZM34.2541 25.8322H35.2541V20.5904H34.2541H33.2541V25.8322H34.2541ZM34.2541 20.5904V21.5904H36.3459V20.5904V19.5904H34.2541V20.5904ZM36.3459 20.5904H37.3459V19.5322H36.3459H35.3459V20.5904H36.3459ZM36.3459 19.5322V20.5322H37.4041V19.5322V18.5322H36.3459V19.5322ZM37.4041 19.5322H36.4041V20.5904H37.4041H38.4041V19.5322H37.4041ZM37.4041 20.5904V21.5904H40.5541V20.5904V19.5904H37.4041V20.5904ZM30.0459 20.5904V21.5904H31.1041V20.5904V19.5904H30.0459V20.5904ZM31.1041 20.5904H30.1041V21.6363H31.1041H32.1041V20.5904H31.1041ZM31.1041 21.6363V20.6363H30.0459V21.6363V22.6363H31.1041V21.6363ZM30.0459 21.6363H31.0459V20.5904H30.0459H29.0459V21.6363H30.0459ZM33.1959 23.7404V22.7404H32.15V23.7404V24.7404H33.1959V23.7404ZM32.15 23.7404H31.15V24.7863H32.15H33.15V23.7404H32.15ZM32.15 24.7863V23.7863H31.1041V24.7863V25.7863H32.15V24.7863ZM31.1041 24.7863H32.1041V23.7404H31.1041H30.1041V24.7863H31.1041ZM31.1041 23.7404V22.7404H29V23.7404V24.7404H31.1041V23.7404ZM29 23.7404H30V21.6363H29H28V23.7404H29ZM29 21.6363V22.6363H30.0459V21.6363V20.6363H29V21.6363ZM30.0459 21.6363H29.0459V22.6822H30.0459H31.0459V21.6363H30.0459ZM30.0459 22.6822V23.6822H32.15V22.6822V21.6822H30.0459V22.6822ZM32.15 22.6822H33.15V21.6363H32.15H31.15V22.6822H32.15ZM32.15 21.6363V22.6363H33.1959V21.6363V20.6363H32.15V21.6363ZM33.1959 21.6363H32.1959V23.7404H33.1959H34.1959V21.6363H33.1959ZM39.4959 21.6363V20.6363H35.3V21.6363V22.6363H39.4959V21.6363ZM35.3 21.6363H34.3V22.6822H35.3H36.3V21.6363H35.3ZM35.3 22.6822V23.6822H39.4959V22.6822V21.6822H35.3V22.6822ZM39.4959 22.6822H40.4959V21.6363H39.4959H38.4959V22.6822H39.4959ZM35.3 23.7404H34.3V24.7863H35.3H36.3V23.7404H35.3ZM35.3 24.7863V25.7863H39.4959V24.7863V23.7863H35.3V24.7863ZM39.4959 24.7863H40.4959V23.7404H39.4959H38.4959V24.7863H39.4959ZM39.4959 23.7404V22.7404H35.3V23.7404V24.7404H39.4959V23.7404ZM31.1041 25.8322V26.8322H33.1959V25.8322V24.8322H31.1041V25.8322ZM33.1959 25.8322H32.1959V26.8904H33.1959H34.1959V25.8322H33.1959ZM33.1959 26.8904V25.8904H32.15V26.8904V27.8904H33.1959V26.8904ZM32.15 26.8904H31.15V31.0863H32.15H33.15V26.8904H32.15ZM32.15 31.0863V30.0863H31.1041V31.0863V32.0863H32.15V31.0863ZM31.1041 31.0863H32.1041V26.8904H31.1041H30.1041V31.0863H31.1041ZM31.1041 26.8904V25.8904H29V26.8904V27.8904H31.1041V26.8904ZM29 26.8904H30V25.8322H29H28V26.8904H29ZM29 25.8322V26.8322H30.0459V25.8322V24.8322H29V25.8322ZM30.0459 25.8322H31.0459V24.7863H30.0459H29.0459V25.8322H30.0459ZM30.0459 24.7863V25.7863H31.1041V24.7863V23.7863H30.0459V24.7863ZM31.1041 24.7863H30.1041V25.8322H31.1041H32.1041V24.7863H31.1041ZM34.2541 26.8904V27.8904H36.3459V26.8904V25.8904H34.2541V26.8904ZM36.3459 26.8904H35.3459V28.9822H36.3459H37.3459V26.8904H36.3459ZM36.3459 28.9822V27.9822H35.3V28.9822V29.9822H36.3459V28.9822ZM35.3 28.9822H36.3V27.9363H35.3H34.3V28.9822H35.3ZM35.3 27.9363V26.9363H34.2541V27.9363V28.9363H35.3V27.9363ZM34.2541 27.9363H35.2541V26.8904H34.2541H33.2541V27.9363H34.2541ZM39.4959 26.8904V27.8904H40.5541V26.8904V25.8904H39.4959V26.8904ZM40.5541 26.8904H39.5541V27.9363H40.5541H41.5541V26.8904H40.5541ZM40.5541 27.9363V26.9363H39.4959V27.9363V28.9363H40.5541V27.9363ZM39.4959 27.9363H40.4959V26.8904H39.4959H38.4959V27.9363H39.4959ZM30.0459 30.0404V29.0404H29V30.0404V31.0404H30.0459V30.0404ZM29 30.0404H30V27.9363H29H28V30.0404H29ZM29 27.9363V28.9363H30.0459V27.9363V26.9363H29V27.9363ZM30.0459 27.9363H29.0459V30.0404H30.0459H31.0459V27.9363H30.0459ZM35.3 30.0404V29.0404H34.2541V30.0404V31.0404H35.3V30.0404ZM34.2541 30.0404H35.2541V28.9822H34.2541H33.2541V30.0404H34.2541ZM34.2541 28.9822V29.9822H35.3V28.9822V27.9822H34.2541V28.9822ZM35.3 28.9822H34.3V30.0404H35.3H36.3V28.9822H35.3ZM40.5541 28.9822H39.5541V31.0863H40.5541H41.5541V28.9822H40.5541ZM40.5541 31.0863V30.0863H39.4959V31.0863V32.0863H40.5541V31.0863ZM39.4959 31.0863H40.4959V28.9822H39.4959H38.4959V31.0863H39.4959ZM39.4959 28.9822V29.9822H40.5541V28.9822V27.9822H39.4959V28.9822ZM34.2541 31.0863V30.0863H33.1959V31.0863V32.0863H34.2541V31.0863ZM33.1959 31.0863H34.1959V30.0404H33.1959H32.1959V31.0863H33.1959ZM33.1959 30.0404V31.0404H34.2541V30.0404V29.0404H33.1959V30.0404ZM34.2541 30.0404H33.2541V31.0863H34.2541H35.2541V30.0404H34.2541ZM53.2801 21.6363H52.2801V22.6822H53.2801H54.2801V21.6363H53.2801ZM53.2801 22.6822V21.6822H50.1301V22.6822V23.6822H53.2801V22.6822ZM50.1301 22.6822H49.1301V24.7863H50.1301H51.1301V22.6822H50.1301ZM50.1301 24.7863V25.7863H52.2219V24.7863V23.7863H50.1301V24.7863ZM52.2219 24.7863H51.2219V25.8322H52.2219H53.2219V24.7863H52.2219ZM52.2219 25.8322V24.8322H48.026V25.8322V26.8322H52.2219V25.8322ZM48.026 25.8322H47.026V26.8904H48.026H49.026V25.8322H48.026ZM48.026 26.8904V27.8904H53.2801V26.8904V25.8904H48.026V26.8904ZM53.2801 26.8904H52.2801V27.9363H53.2801H54.2801V26.8904H53.2801ZM53.2801 27.9363V26.9363H50.1301V27.9363V28.9363H53.2801V27.9363ZM50.1301 27.9363H49.1301V28.9822H50.1301H51.1301V27.9363H50.1301ZM50.1301 28.9822V27.9822H49.0719V28.9822V29.9822H50.1301V28.9822ZM49.0719 28.9822H50.0719V27.9363H49.0719H48.0719V28.9822H49.0719ZM49.0719 27.9363V26.9363H48.026V27.9363V28.9363H49.0719V27.9363ZM48.026 27.9363H47.026V31.0863H48.026H49.026V27.9363H48.026ZM48.026 31.0863V30.0863H46.9801V31.0863V32.0863H48.026V31.0863ZM46.9801 31.0863H47.9801V28.9822H46.9801H45.9801V31.0863H46.9801ZM46.9801 28.9822V27.9822H45.9219V28.9822V29.9822H46.9801V28.9822ZM45.9219 28.9822H46.9219V27.9363H45.9219H44.9219V28.9822H45.9219ZM45.9219 27.9363V26.9363H41.726V27.9363V28.9363H45.9219V27.9363ZM41.726 27.9363H42.726V26.8904H41.726H40.726V27.9363H41.726ZM41.726 26.8904V27.8904H46.9801V26.8904V25.8904H41.726V26.8904ZM46.9801 26.8904H47.9801V25.8322H46.9801H45.9801V26.8904H46.9801ZM46.9801 25.8322V24.8322H42.7719V25.8322V26.8322H46.9801V25.8322ZM42.7719 25.8322H43.7719V24.7863H42.7719H41.7719V25.8322H42.7719ZM42.7719 24.7863V25.7863H44.876V24.7863V23.7863H42.7719V24.7863ZM44.876 24.7863H45.876V22.6822H44.876H43.876V24.7863H44.876ZM44.876 22.6822V21.6822H41.726V22.6822V23.6822H44.876V22.6822ZM41.726 22.6822H42.726V21.6363H41.726H40.726V22.6822H41.726ZM41.726 21.6363V22.6363H43.8301V21.6363V20.6363H41.726V21.6363ZM43.8301 21.6363H44.8301V19.5322H43.8301H42.8301V21.6363H43.8301ZM43.8301 19.5322V20.5322H44.876V19.5322V18.5322H43.8301V19.5322ZM44.876 19.5322H43.876V21.6363H44.876H45.876V19.5322H44.876ZM44.876 21.6363V22.6363H45.9219V21.6363V20.6363H44.876V21.6363ZM45.9219 21.6363H46.9219V18.4863H45.9219H44.9219V21.6363H45.9219ZM45.9219 18.4863V19.4863H46.9801V18.4863V17.4863H45.9219V18.4863ZM46.9801 18.4863H45.9801V21.6363H46.9801H47.9801V18.4863H46.9801ZM46.9801 21.6363V22.6363H48.026V21.6363V20.6363H46.9801V21.6363ZM48.026 21.6363H49.026V18.4863H48.026H47.026V21.6363H48.026ZM48.026 18.4863V19.4863H49.0719V18.4863V17.4863H48.026V18.4863ZM49.0719 18.4863H48.0719V21.6363H49.0719H50.0719V18.4863H49.0719ZM49.0719 21.6363V22.6363H50.1301V21.6363V20.6363H49.0719V21.6363ZM50.1301 21.6363H51.1301V20.5904H50.1301H49.1301V21.6363H50.1301ZM50.1301 20.5904V21.5904H51.176V20.5904V19.5904H50.1301V20.5904ZM51.176 20.5904H50.176V21.6363H51.176H52.176V20.5904H51.176ZM51.176 21.6363V22.6363H53.2801V21.6363V20.6363H51.176V21.6363ZM51.176 19.5322V20.5322H52.2219V19.5322V18.5322H51.176V19.5322ZM52.2219 19.5322H51.2219V20.5904H52.2219H53.2219V19.5322H52.2219ZM52.2219 20.5904V19.5904H51.176V20.5904V21.5904H52.2219V20.5904ZM51.176 20.5904H52.176V19.5322H51.176H50.176V20.5904H51.176ZM45.9219 24.7863V25.7863H49.0719V24.7863V23.7863H45.9219V24.7863ZM49.0719 24.7863H50.0719V22.6822H49.0719H48.0719V24.7863H49.0719ZM49.0719 22.6822V21.6822H45.9219V22.6822V23.6822H49.0719V22.6822ZM45.9219 22.6822H44.9219V24.7863H45.9219H46.9219V22.6822H45.9219ZM45.9219 30.0404V29.0404H43.8301V30.0404V31.0404H45.9219V30.0404ZM43.8301 30.0404H44.8301V28.9822H43.8301H42.8301V30.0404H43.8301ZM43.8301 28.9822V29.9822H45.9219V28.9822V27.9822H43.8301V28.9822ZM45.9219 28.9822H44.9219V30.0404H45.9219H46.9219V28.9822H45.9219ZM51.176 28.9822H50.176V30.0404H51.176H52.176V28.9822H51.176ZM51.176 30.0404V29.0404H50.1301V30.0404V31.0404H51.176V30.0404ZM50.1301 30.0404H51.1301V28.9822H50.1301H49.1301V30.0404H50.1301ZM50.1301 28.9822V29.9822H51.176V28.9822V27.9822H50.1301V28.9822ZM43.8301 31.0863V30.0863H41.726V31.0863V32.0863H43.8301V31.0863ZM41.726 31.0863H42.726V30.0404H41.726H40.726V31.0863H41.726ZM41.726 30.0404V31.0404H43.8301V30.0404V29.0404H41.726V30.0404ZM43.8301 30.0404H42.8301V31.0863H43.8301H44.8301V30.0404H43.8301ZM53.2801 30.0404H52.2801V31.0863H53.2801H54.2801V30.0404H53.2801ZM53.2801 31.0863V30.0863H51.176V31.0863V32.0863H53.2801V31.0863ZM51.176 31.0863H52.176V30.0404H51.176H50.176V31.0863H51.176ZM51.176 30.0404V31.0404H53.2801V30.0404V29.0404H51.176V30.0404Z" fill="#D9D9D9" mask="url(#path-2-outside-1_802_38)"/>
</svg>
